RobotoCondensed-LightItalic.ufo
<glyph name="numbersign" format="2">
  <advance width="1020"/>
  <unicode hex="0023"/>
  <outline>
    <contour>
      <point x="134.3526825057367" y="0.0" type="line"/>
      <point x="221.1004785596025" y="0.0" type="line"/>
      <point x="701.5806501008796" y="1455.7082352099878" type="line"/>
      <point x="604.3022076052919" y="1455.5302589374846" type="line"/>
    </contour>
    <contour>
      <point x="469.9698268889887" y="0.0" type="line"/>
      <point x="556.7240568435723" y="0.0" type="line"/>
      <point x="1038.1743948780872" y="1455.7074528044798" type="line"/>
      <point x="940.8897504959562" y="1455.5289801935" type="line"/>
    </contour>
    <contour>
      <point x="1067.2540538909116" y="943.1476673034896" type="line"/>
      <point x="1082.1982308856673" y="1039.880274808405" type="line"/>
      <point x="232.6536483697774" y="1039.8980517343437" type="line"/>
      <point x="218.0927481747679" y="943.1322702192497" type="line"/>
    </contour>
    <contour>
      <point x="913.8001558040182" y="410.1455753749031" type="line"/>
      <point x="928.5673723881232" y="505.88187329842174" type="line"/>
      <point x="78.05286442750788" y="505.9000062997113" type="line"/>
      <point x="63.6687280580302" y="410.12951356566236" type="line"/>
    </contour>
  </outline>
</glyph>
<glyph name="dollar" format="2">
  <advance width="966"/>
  <unicode hex="0024"/>
  <guideline x="0.0" y="1658.0" angle="0.0" identifier="Y48l30clVh"/>
  <guideline x="0.0" y="555.0" angle="0.0" identifier="6fABJD4P6S"/>
  <outline>
    <contour>
      <point x="713.9572313841079" y="1677.9178920144614" type="line"/>
      <point x="625.7561210824705" y="1677.857989512245" type="line"/>
      <point x="580.7752939554497" y="1412.1400230246522" type="line"/>
      <point x="678.0937743208204" y="1412.1000682116094" type="line"/>
    </contour>
    <contour>
      <point x="453.2422651350789" y="38.90342913696182" type="line"/>
      <point x="365.0664179987936" y="38.842708760702784" type="line"/>
      <point x="322.8856406603628" y="-207.83911954202986" type="line"/>
      <point x="420.23343752231574" y="-207.88241699083935" type="line"/>
    </contour>
    <contour>
      <point x="708.3392358325938" y="367.4015754552185" type="curve" smooth="yes"/>
      <point x="691.9159050473826" y="211.97937396893823"/>
      <point x="577.9441991845748" y="83.08474586852023"/>
      <point x="414.83171954610617" y="86.72530219836489" type="curve" smooth="yes"/>
      <point x="228.66024227786707" y="90.88051920878408"/>
      <point x="182.02629599488566" y="260.8777896582769"/>
      <point x="196.14310477844867" y="418.9158302748752" type="curve"/>
      <point x="85.93942966537026" y="419.12697923600376" type="line"/>
      <point x="65.92751176045917" y="193.90236822733547"/>
      <point x="156.10378796547423" y="-16.88360791117548"/>
      <point x="407.63185533644497" y="-21.705459653981727" type="curve" smooth="yes"/>
      <point x="641.1322783279288" y="-26.181717247480908"/>
      <point x="800.4426097454933" y="142.3562913037285"/>
      <point x="818.1221146171305" y="369.3265816075855" type="curve" smooth="yes"/>
      <point x="834.5396735762674" y="580.095952700891"/>
      <point x="727.6179268719745" y="695.010010223552"/>
      <point x="547.8320663220636" y="782.0301760226519" type="curve" smooth="yes"/>
      <point x="410.2882094679193" y="848.6043170117455"/>
      <point x="325.9451524550038" y="930.3992279912551"/>
      <point x="342.3354648910056" y="1090.4797388346533" type="curve" smooth="yes"/>
      <point x="357.56603149854914" y="1239.2332719042593"/>
      <point x="452.4890183440288" y="1373.8708124475909"/>
      <point x="614.6768093176141" y="1369.5465847600287" type="curve" smooth="yes"/>
      <point x="792.4161059616617" y="1364.8077250523877"/>
      <point x="816.2932702194537" y="1165.0763582874386"/>
      <point x="803.3299923213805" y="1027.093142191102" type="curve"/>
      <point x="912.1560178701435" y="1026.9852132695908" type="line"/>
      <point x="931.8062471264199" y="1237.1595319637106"/>
      <point x="872.2559051303032" y="1471.3352178466978"/>
      <point x="622.4590688861124" y="1477.2590263235136" type="curve" smooth="yes"/>
      <point x="394.414449402135" y="1482.6669917337354"/>
      <point x="248.828289686679" y="1301.5622482770195"/>
      <point x="232.01715103623786" y="1086.2214558481005" type="curve" smooth="yes"/>
      <point x="215.31979712396964" y="872.3381789506373"/>
      <point x="323.7990783822847" y="760.6836708679565"/>
      <point x="505.0489284329807" y="672.9419765866958" type="curve" smooth="yes"/>
      <point x="636.9288949715287" y="609.0998729788216"/>
      <point x="724.6216505722547" y="521.4902178534795"/>
    </contour>
  </outline>
</glyph>
<glyph name="ampersand" format="2">
  <advance width="1068"/>
  <unicode hex="0026"/>
  <outline>
    <contour>
      <point x="363.4772769439425" y="786.2911598443876" type="line" smooth="yes"/>
      <point x="226.21926504072874" y="676.3609228003136"/>
      <point x="87.04016512816229" y="550.6859251507456"/>
      <point x="70.86386163968947" y="364.3125518234145" type="curve" smooth="yes"/>
      <point x="52.5325471422323" y="153.11047324904376"/>
      <point x="173.830804076709" y="-15.46615132768802"/>
      <point x="393.37377554350627" y="-19.90696100157571" type="curve" smooth="yes"/>
      <point x="532.6620149258588" y="-22.72441654012153"/>
      <point x="666.3658708576335" y="54.47832273378501"/>
      <point x="753.8440542285772" y="159.6901292942677" type="curve" smooth="yes"/>
      <point x="761.9328350977789" y="169.41867206146082"/>
      <point x="768.9778077618589" y="180.0388961212383"/>
      <point x="776.9737742452919" y="189.8547560154606" type="curve" smooth="yes"/>
      <point x="889.6099877504546" y="328.127132853601"/>
      <point x="950.5810360468696" y="476.1999223167704"/>
      <point x="973.4371668455873" y="653.3007491723689" type="curve"/>
      <point x="875.4545680282074" y="652.5626334714113" type="line"/>
      <point x="838.7457828716299" y="418.1708699304552"/>
      <point x="687.2543843090823" y="74.40762315815083"/>
      <point x="399.4461297631991" y="83.52698875380688" type="curve" smooth="yes"/>
      <point x="240.54202713495002" y="88.56195416438246"/>
      <point x="165.49747368349588" y="215.10730174639147"/>
      <point x="183.5951406610156" y="364.1811661939645" type="curve" smooth="yes"/>
      <point x="198.86254455951197" y="489.94162482423593"/>
      <point x="293.85006140637137" y="598.4612126284846"/>
      <point x="385.43527934530135" y="678.1826543348806" type="curve" smooth="yes"/>
      <point x="639.9032892719874" y="883.7451784760881" type="line" smooth="yes"/>
      <point x="739.2572035929544" y="963.5272782530911"/>
      <point x="827.8547007467581" y="1065.4329331900913"/>
      <point x="837.2401213745153" y="1198.2658388347727" type="curve" smooth="yes"/>
      <point x="847.5438717354484" y="1344.0959676872124"/>
      <point x="762.1514422414004" y="1474.2718838878302"/>
      <point x="607.9353599715522" y="1477.7730099753578" type="curve" smooth="yes"/>
      <point x="413.61748236071446" y="1482.1845562976528"/>
      <point x="308.04905753393643" y="1311.910536032204"/>
      <point x="292.70747653330983" y="1136.417096449334" type="curve" smooth="yes"/>
      <point x="278.7383870471457" y="976.6236852182674"/>
      <point x="358.1216252813356" y="835.4051309415003"/>
      <point x="431.8587880822937" y="699.9638582040074" type="curve" smooth="yes"/>
      <point x="808.5609010123428" y="0.0" type="line"/>
      <point x="932.0352519010022" y="0.0" type="line"/>
      <point x="487.7126030775652" y="825.6994162477339" type="line" smooth="yes"/>
      <point x="436.9016075124583" y="921.9523312143915"/>
      <point x="390.1311949291688" y="1029.9744532492327"/>
      <point x="402.1948371990383" y="1141.5007118397118" type="curve" smooth="yes"/>
      <point x="413.71851330041295" y="1248.0350778333695"/>
      <point x="475.8803030625422" y="1376.3516403273509"/>
      <point x="599.9194464774387" y="1374.6268704857196" type="curve" smooth="yes"/>
      <point x="695.9298025170959" y="1373.2918421872123"/>
      <point x="738.8447386106674" y="1285.541676647051"/>
      <point x="731.210934656299" y="1199.1398210474385" type="curve" smooth="yes"/>
      <point x="722.2278664461576" y="1097.4665573674156"/>
      <point x="656.142618902292" y="1023.2491132735939"/>
      <point x="580.4527564867313" y="961.5040064448599" type="curve" smooth="yes"/>
    </contour>
  </outline>
</glyph>
<glyph name="parenleft" format="2">
  <advance width="579"/>
  <unicode hex="0028"/>
  <guideline x="0.0" y="901.0" angle="0.0" identifier="XIs83MVpj3"/>
  <guideline x="0.0" y="555.0" angle="0.0" identifier="ogEcAeKrlI"/>
  <outline>
    <contour>
      <point x="127.9102144175969" y="570.1387132387646" type="line" smooth="yes"/>
      <point x="82.17849987807666" y="254.10142244655788"/>
      <point x="85.11073261556788" y="-231.09077833012307"/>
      <point x="344.91920499776097" y="-468.8655370968077" type="curve"/>
      <point x="377.9944671096709" y="-390.65383657743513" type="line"/>
      <point x="165.106616708213" y="-168.77021186076541"/>
      <point x="198.4187264842359" y="298.313238670214"/>
      <point x="238.8671594936004" y="570.9216106026449" type="curve" smooth="yes"/>
      <point x="241.9392532406905" y="590.7368528966845" type="line" smooth="yes"/>
      <point x="293.7814981867532" y="923.4032856369056"/>
      <point x="407.23107847134554" y="1328.231245105391"/>
      <point x="681.7615014452908" y="1549.8793011605999" type="curve"/>
      <point x="665.0354418610789" y="1633.9511407355212" type="line"/>
      <point x="333.9491224919461" y="1425.5729195925237"/>
      <point x="185.995743860985" y="947.5541831240346"/>
      <point x="130.289820350785" y="585.6671355174961" type="curve" smooth="yes"/>
    </contour>
  </outline>
</glyph>
<glyph name="parenright" format="2">
  <advance width="590"/>
  <unicode hex="0029"/>
  <guideline x="0.0" y="901.0" angle="0.0" identifier="Dat7yBeAnd"/>
  <guideline x="0.0" y="555.0" angle="0.0" identifier="o2jY6aUJO1"/>
  <outline>
    <contour>
      <point x="445.5362389513458" y="593.296191165369" type="line" smooth="yes"/>
      <point x="490.89901533120604" y="905.4888978435716"/>
      <point x="487.03262264683303" y="1397.6945933474424"/>
      <point x="229.0084215178979" y="1632.1914153442153" type="curve"/>
      <point x="194.94369463481468" y="1555.8071825295212" type="line"/>
      <point x="404.79781770410546" y="1330.666651706633"/>
      <point x="375.7452095448745" y="867.7903262526793"/>
      <point x="335.0139872660747" y="593.0961455050955" type="curve" smooth="yes"/>
      <point x="331.93835684521736" y="573.2663615229242" type="line" smooth="yes"/>
      <point x="279.95712426683934" y="239.72997031941475"/>
      <point x="166.9324723600979" y="-168.70614208891084"/>
      <point x="-107.75131812041212" y="-391.8242573873692" type="curve"/>
      <point x="-90.20233309791884" y="-470.97121844534" type="line"/>
      <point x="242.72062184545" y="-258.7728297977666"/>
      <point x="386.9928269006866" y="212.050963884976"/>
      <point x="443.1514989984464" y="577.7710774600564" type="curve" smooth="yes"/>
    </contour>
  </outline>
</glyph>
<glyph name="plus" format="2">
  <advance width="982"/>
  <unicode hex="002B"/>
  <outline>
    <contour>
      <point x="921.0213741725574" y="741.9131220222177" type="line"/>
      <point x="105.25264511134331" y="741.9178089617594" type="line"/>
      <point x="84.64095121328556" y="627.085351467137" type="line"/>
      <point x="900.4096802745015" y="627.0806645275921" type="line"/>
    </contour>
    <contour>
      <point x="646.4289576913247" y="1205.9372455691882" type="line"/>
      <point x="534.9071609561156" y="1205.9420803579817" type="line"/>
      <point x="350.46809204751395" y="146.06124687610557" type="line"/>
      <point x="461.98988878272235" y="146.05641208731123" type="line"/>
    </contour>
  </outline>
</glyph>
<glyph name="comma" format="2">
  <advance width="381"/>
  <unicode hex="002C"/>
  <guideline x="0.0" y="901.0" angle="0.0" identifier="66atCT4cPv"/>
  <guideline x="0.0" y="555.0" angle="0.0" identifier="gHXlIY2V6K"/>
  <outline>
    <contour>
      <point x="194.88582122148193" y="189.81902773803478" type="line"/>
      <point x="77.74319958909116" y="189.952653350605" type="line"/>
      <point x="52.788778607455" y="47.062816824592105" type="line" smooth="yes"/>
      <point x="34.10476112127722" y="-56.46725876647827"/>
      <point x="-15.88464815598391" y="-139.80318328866434"/>
      <point x="-82.96034046281231" y="-219.3853337798203" type="curve"/>
      <point x="-16.029003397774446" y="-273.5890536665563" type="line"/>
      <point x="85.1382786402826" y="-190.3021750266226"/>
      <point x="151.76704738453475" y="-79.1468420366112"/>
      <point x="172.52677390277233" y="50.78653379734796" type="curve" smooth="yes"/>
    </contour>
  </outline>
</glyph>
<glyph name="hyphen" format="2">
  <advance width="513"/>
  <unicode hex="002D"/>
  <outline>
    <contour>
      <point x="467.4365819468783" y="693.9194058955272" type="line"/>
      <point x="73.6453557686123" y="693.9238433639105" type="line"/>
      <point x="54.99019288647223" y="590.0805569549068" type="line"/>
      <point x="448.78141906473763" y="590.0761194865233" type="line"/>
    </contour>
  </outline>
</glyph>
<glyph name="slash" format="2">
  <advance width="706"/>
  <unicode hex="002F"/>
  <guideline x="0.0" y="901.0" angle="0.0" identifier="UpqE3z4UKw"/>
  <guideline x="0.0" y="555.0" angle="0.0" identifier="taFY2LuwNW"/>
  <outline>
    <contour>
      <point x="781.2242668248522" y="1455.01737654802" type="line"/>
      <point x="684.1232508795546" y="1455.4600131645343" type="line"/>
      <point x="-87.50594213740692" y="-124.58621528504034" type="line"/>
      <point x="19.017294769903998" y="-124.30992311191079" type="line"/>
    </contour>
  </outline>
</glyph>
<glyph name="one" format="2">
  <advance width="966"/>
  <unicode hex="0031"/>
  <guideline x="0.0" y="901.0" angle="0.0" identifier="8KXwOQ7859"/>
  <guideline x="0.0" y="555.0" angle="0.0" identifier="SoZMaKrGQQ"/>
  <outline>
    <contour>
      <point x="738.0978420599627" y="1461.7004478677734" type="line"/>
      <point x="716.2058047226551" y="1461.5097554223385" type="line"/>
      <point x="280.74840326988533" y="1279.906404313515" type="line"/>
      <point x="258.8590500169175" y="1158.485773873726" type="line"/>
      <point x="604.3998472960569" y="1304.5851859822658" type="line"/>
      <point x="377.5535490501788" y="0.0" type="line"/>
      <point x="488.1053986424074" y="0.0" type="line"/>
    </contour>
  </outline>
</glyph>
<glyph name="three" format="2">
  <advance width="966"/>
  <unicode hex="0033"/>
  <guideline x="0.0" y="1658.0" angle="0.0" identifier="5FHV3BJkvO"/>
  <guideline x="0.0" y="555.0" angle="0.0" identifier="Vv5CRcq6Tw"/>
  <outline>
    <contour>
      <point x="375.77298809848537" y="794.4248987700157" type="line"/>
      <point x="362.49255591133186" y="712.5403054845743" type="line"/>
      <point x="485.5114855869074" y="711.6993100103142" type="line" smooth="yes"/>
      <point x="699.4673744915813" y="713.2648389839669"/>
      <point x="882.257366215413" y="861.0916354774929"/>
      <point x="900.0709736886594" y="1080.2498253631834" type="curve" smooth="yes"/>
      <point x="916.688505441048" y="1284.6928717641485"/>
      <point x="822.3999314346336" y="1471.8537355751191"/>
      <point x="598.6646032955941" y="1476.8009395623612" type="curve" smooth="yes"/>
      <point x="364.90108200682835" y="1481.9698855406773"/>
      <point x="217.5502708181721" y="1289.480628283647"/>
      <point x="190.53073267811578" y="1074.0952140369839" type="curve"/>
      <point x="297.9620982417272" y="1074.8574509352006" type="line"/>
      <point x="324.20344763885794" y="1228.7258954255915"/>
      <point x="417.49731499083464" y="1378.0331712126294"/>
      <point x="591.869832885341" y="1373.645750306654" type="curve" smooth="yes"/>
      <point x="754.5703532298269" y="1369.552010805775"/>
      <point x="802.3367322503453" y="1226.332969567164"/>
      <point x="788.5740785271137" y="1084.5491723007103" type="curve" smooth="yes"/>
      <point x="771.8861644822232" y="912.6291436984678"/>
      <point x="645.8104881339799" y="795.075638367867"/>
      <point x="472.99266945193506" y="793.400676502126" type="curve" smooth="yes"/>
    </contour>
    <contour>
      <point x="358.76309028994757" y="689.9942794978417" type="line"/>
      <point x="467.6963775651777" y="689.0724481929919" type="line" smooth="yes"/>
      <point x="641.922457373012" y="683.5490511144474"/>
      <point x="717.890365291426" y="567.7359750043137"/>
      <point x="703.0410823098077" y="399.57470151255274" type="curve" smooth="yes"/>
      <point x="688.0382399237529" y="229.67443866765888"/>
      <point x="586.6481041609244" y="78.33810761571078"/>
      <point x="401.2460669954569" y="84.07933287862168" type="curve" smooth="yes"/>
      <point x="228.6241788629167" y="89.42480351222329"/>
      <point x="165.60174448280512" y="242.5841070607234"/>
      <point x="178.44488956987237" y="395.02810074318916" type="curve"/>
      <point x="67.90298003810258" y="395.20893949125616" type="line"/>
      <point x="50.710337303690814" y="180.5060076163218"/>
      <point x="161.94198087806348" y="-14.38641097754854"/>
      <point x="394.51834273604686" y="-20.283888449149714" type="curve" smooth="yes"/>
      <point x="639.6542562847682" y="-26.499840560898395"/>
      <point x="794.2949123737087" y="173.6265697038833"/>
      <point x="812.5609899410506" y="403.4089929818946" type="curve" smooth="yes"/>
      <point x="830.3341952585153" y="626.9912137519657"/>
      <point x="703.3058678854059" y="763.6539984928107"/>
      <point x="480.00961538450815" y="769.8196405907449" type="curve" smooth="yes"/>
      <point x="371.9828745597919" y="770.7513860073606" type="line"/>
    </contour>
  </outline>
</glyph>
<glyph name="nine" format="2">
  <advance width="966"/>
  <unicode hex="0039"/>
  <guideline x="0.0" y="555.0" angle="0.0" identifier="y1UrE5LM60"/>
  <guideline x="0.0" y="901.0" angle="0.0" identifier="ZhYZqzeVLd"/>
  <outline>
    <contour>
      <point x="184.67787421809396" y="94.85621114945084" type="line"/>
      <point x="172.0195738057676" y="-11.851734255922283" type="line"/>
      <point x="196.66698396591966" y="-12.06557609187625" type="line" smooth="yes"/>
      <point x="653.2467927635787" y="-11.396488593224081"/>
      <point x="814.9978964674738" y="388.50836586296435"/>
      <point x="870.2463858954759" y="781.244699317755" type="curve" smooth="yes"/>
      <point x="885.5719923012613" y="895.253439457064" type="line" smooth="yes"/>
      <point x="912.8974926496333" y="1124.6229347128442"/>
      <point x="886.0341614776253" y="1469.5624952212602"/>
      <point x="584.9504951873797" y="1476.599095347601" type="curve" smooth="yes"/>
      <point x="313.99269242152144" y="1482.931626542891"/>
      <point x="181.85296880331737" y="1188.733107305824"/>
      <point x="158.94188905248157" y="959.2377783755293" type="curve" smooth="yes"/>
      <point x="139.45048515466706" y="763.9966025999097"/>
      <point x="192.79700665257153" y="483.5781626613589"/>
      <point x="437.66086136797185" y="477.1407308734802" type="curve" smooth="yes"/>
      <point x="683.0923409518487" y="470.68837631810624"/>
      <point x="822.736914500458" y="724.5737816782703"/>
      <point x="853.6039273778647" y="935.5947656071029" type="curve"/>
      <point x="797.3027551751368" y="934.6196164108295" type="line"/>
      <point x="767.1557654601299" y="773.5608624452085"/>
      <point x="645.05018895952" y="575.8275699206368"/>
      <point x="458.78564368803677" y="581.853158518598" type="curve" smooth="yes"/>
      <point x="275.8794128517254" y="587.7701068965997"/>
      <point x="254.08359852939103" y="827.2711235934986"/>
      <point x="268.24027427612225" y="963.9820725097625" type="curve" smooth="yes"/>
      <point x="285.2434311527548" y="1128.1814758699238"/>
      <point x="377.53091464990916" y="1378.0477203919759"/>
      <point x="580.3928388799243" y="1371.9111715454467" type="curve" smooth="yes"/>
      <point x="799.2400591345672" y="1365.291069413826"/>
      <point x="793.5165425293939" y="1058.4759283924463"/>
      <point x="776.266813368353" y="907.7626158926125" type="curve" smooth="yes"/>
      <point x="748.1022680601544" y="702.9144106600731" type="line" smooth="yes"/>
      <point x="703.1208586501547" y="389.7595077148062"/>
      <point x="560.4260508574417" y="94.24048767097295"/>
      <point x="203.32211235533975" y="94.56672700921295" type="curve" smooth="yes"/>
    </contour>
  </outline>
</glyph>
<glyph name="equal" format="2">
  <advance width="960"/>
  <unicode hex="003D"/>
  <outline>
    <contour>
      <point x="882.0238742853311" y="936.9161003387388" type="line"/>
      <point x="199.1726529479942" y="936.9208557544181" type="line"/>
      <point x="179.63711866876838" y="828.083636411139" type="line"/>
      <point x="862.4883400061045" y="828.078880995457" type="line"/>
    </contour>
    <contour>
      <point x="810.8173569742229" y="525.9161616394695" type="line"/>
      <point x="127.96613563686488" y="525.9209170551488" type="line"/>
      <point x="108.4306013576424" y="417.08369771189024" type="line"/>
      <point x="791.2818226950028" y="417.07894229621155" type="line"/>
    </contour>
  </outline>
</glyph>
<glyph name="question" format="2">
  <advance width="802"/>
  <unicode hex="003F"/>
  <guideline x="0.0" y="1658.0" angle="0.0" identifier="vD35ZDiFac"/>
  <guideline x="0.0" y="555.0" angle="0.0" identifier="pe4odG749w"/>
  <outline>
    <contour>
      <point x="399.2455289627571" y="404.95613484364895" type="line"/>
      <point x="419.2169554697833" y="512.6795577707805"/>
      <point x="456.19574511765995" y="603.8732355468943"/>
      <point x="537.5256704304082" y="679.7255999814292" type="curve" smooth="yes"/>
      <point x="665.1619560110172" y="798.7655967808996"/>
      <point x="782.626756842363" y="930.0719026731874"/>
      <point x="800.4402658467268" y="1111.3820797504738" type="curve" smooth="yes"/>
      <point x="818.1379784940157" y="1291.5136536675964"/>
      <point x="744.8925834719748" y="1471.3485660100032"/>
      <point x="542.0715323601447" y="1476.8656165147272" type="curve" smooth="yes"/>
      <point x="329.32050764009483" y="1482.6527778664604"/>
      <point x="204.44291402377303" y="1309.7033302574591"/>
      <point x="175.58613445552345" y="1116.6017382186767" type="curve"/>
      <point x="284.02465950224695" y="1117.2573414366557" type="line"/>
      <point x="309.61715724741725" y="1244.8394496316282"/>
      <point x="385.6986627196778" y="1374.3797668901868"/>
      <point x="533.1360559419727" y="1370.027352629793" type="curve" smooth="yes"/>
      <point x="673.1310907380554" y="1365.8946399406036"/>
      <point x="700.0938979597163" y="1225.1808138736344"/>
      <point x="687.2376477036335" y="1110.3679911929746" type="curve" smooth="yes"/>
      <point x="670.8249185270732" y="963.7940114462341"/>
      <point x="582.440810725715" y="869.7251640828802"/>
      <point x="483.115198681588" y="769.423748105202" type="curve" smooth="yes"/>
      <point x="374.07582635576733" y="659.3131410168891"/>
      <point x="317.425914509047" y="558.054410352559"/>
      <point x="297.6809796497882" y="403.5250629171272" type="curve"/>
    </contour>
    <contour>
      <point x="218.84236806270297" y="71.53062359791886" type="curve" smooth="yes"/>
      <point x="215.67605918340922" y="29.438124316954628"/>
      <point x="240.76107573689032" y="-11.073920554108751"/>
      <point x="286.42982315815914" y="-10.099654688976274" type="curve" smooth="yes"/>
      <point x="330.6223347888913" y="-9.15688182991072"/>
      <point x="360.5700764043545" y="30.730599424778895"/>
      <point x="363.63347099648036" y="72.265335372563" type="curve" smooth="yes"/>
      <point x="366.7308826226031" y="114.26128794859925"/>
      <point x="340.32757512257604" y="154.9378860500702"/>
      <point x="295.04815923579025" y="153.93032641436022" type="curve" smooth="yes"/>
      <point x="251.00748510582522" y="152.95033131694646"/>
      <point x="221.93099406450622" y="112.59041678811103"/>
    </contour>
  </outline>
</glyph>
<glyph name="at" format="2">
  <advance width="1558"/>
  <unicode hex="0040"/>
  <outline>
    <contour>
      <point x="1434.9431166651789" y="517.8409645885496" type="curve" smooth="yes"/>
      <point x="1500.1545958264496" y="906.7683956261912"/>
      <point x="1447.6244459221903" y="1412.4945439998962"/>
      <point x="952.3158099124521" y="1421.1147213455577" type="curve" smooth="yes"/>
      <point x="450.6118657529413" y="1429.8462003856037"/>
      <point x="169.99513724312573" y="902.3432043865234"/>
      <point x="95.10970750580161" y="472.6233105134009" type="curve" smooth="yes"/>
      <point x="28.421612721636038" y="89.9427127819954"/>
      <point x="80.46919095199081" y="-447.16246912665224"/>
      <point x="577.9659376933428" y="-452.7649458473277" type="curve" smooth="yes"/>
      <point x="684.7988740685485" y="-453.96802715984666"/>
      <point x="798.3610338147131" y="-427.30004953253024"/>
      <point x="886.7676964038009" y="-365.9674098065093" type="curve"/>
      <point x="867.8878177327813" y="-283.5713978056164" type="line"/>
      <point x="780.8413469702593" y="-332.1104574543009"/>
      <point x="683.1452793271301" y="-362.3375515806989"/>
      <point x="582.7501137477968" y="-361.20969926274734" type="curve" smooth="yes"/>
      <point x="145.0911469505702" y="-356.29298163669307"/>
      <point x="128.66036938541083" y="150.6821013637673"/>
      <point x="187.43820580569889" y="472.23515382932186" type="curve" smooth="yes"/>
      <point x="256.2598501547642" y="848.7343780930835"/>
      <point x="499.6766280656865" y="1334.9818235368168"/>
      <point x="946.2388425510035" y="1326.2683471869043" type="curve" smooth="yes"/>
      <point x="1397.614395163242" y="1317.4609513190107"/>
      <point x="1407.799713199442" y="863.4746292895051"/>
      <point x="1350.018395064019" y="517.9912903092211" type="curve" smooth="yes"/>
      <point x="1325.5625297497597" y="371.76593098771684"/>
      <point x="1254.936838663261" y="55.7932344278487"/>
      <point x="1051.966897157369" y="65.29885756375579" type="curve" smooth="yes"/>
      <point x="935.4995803526208" y="70.75333231495483"/>
      <point x="958.1486484468782" y="235.60462417678332"/>
      <point x="970.4738275015288" y="310.31802818784524" type="curve"/>
      <point x="1104.7352774517053" y="880.8574717185452" type="line"/>
      <point x="1010.6971520630623" y="880.8765867980586" type="line"/>
      <point x="875.791581533955" y="310.1648020784883" type="line"/>
      <point x="853.8825502667996" y="179.87280939953013"/>
      <point x="863.8588783361137" y="-15.696183655479299"/>
      <point x="1036.5319400210653" y="-21.191276501251004" type="curve" smooth="yes"/>
      <point x="1295.9405029292232" y="-29.44661247698859"/>
      <point x="1401.1163996987789" y="316.0952244306902"/>
    </contour>
    <contour>
      <point x="548.1563857230284" y="419.5228493853906" type="curve" smooth="yes"/>
      <point x="578.4413857842084" y="586.1726429125889"/>
      <point x="664.3616067341219" y="904.9880664262843"/>
      <point x="888.6053615005054" y="897.3276885009504" type="curve" smooth="yes"/>
      <point x="952.0489789864498" y="895.1603947566989"/>
      <point x="999.2732987444574" y="866.5387007973968"/>
      <point x="1033.9117543585028" y="814.6635446059382" type="curve"/>
      <point x="1098.2338633317565" y="883.85186467158" type="line"/>
      <point x="1036.766763099862" y="947.2308439618535"/>
      <point x="975.5317770789636" y="989.5801216433774"/>
      <point x="883.8362367147172" y="991.3455070404705" type="curve" smooth="yes"/>
      <point x="614.3672344648083" y="996.5335089831113"/>
      <point x="484.3974345717614" y="630.5747158837763"/>
      <point x="447.65192352241456" y="419.80294624194335" type="curve" smooth="yes"/>
      <point x="423.97669807296325" y="284.0021634483968"/>
      <point x="395.08360518988184" y="-13.6397645861631"/>
      <point x="601.9702551114609" y="-21.51746162889187" type="curve" smooth="yes"/>
      <point x="786.565330327244" y="-28.546354400276016"/>
      <point x="882.8856126519611" y="178.85628937893662"/>
      <point x="936.5700903627878" y="322.7925100145467" type="curve"/>
      <point x="901.2118973908522" y="383.10335435548734" type="line"/>
      <point x="857.4173474299531" y="272.32516411732547"/>
      <point x="783.8597717466183" y="67.98349960150153"/>
      <point x="630.7633304125944" y="77.99759897318894" type="curve" smooth="yes"/>
      <point x="487.66060320343047" y="87.35800551265542"/>
      <point x="532.6339685933666" y="334.10737623117325"/>
    </contour>
  </outline>
</glyph>
<glyph name="B" format="2">
  <advance width="1065"/>
  <unicode hex="0042"/>
  <anchor x="672.4654482785602" y="1612" name="top"/>
  <anchor x="399.5485825253454" y="10" name="bottom"/>
  <anchor x="1218.4420635163638" y="1600" name="top_dd"/>
  <anchor x="871.6684620390217" y="-407" name="bottom_dd"/>
  <anchor x="1220.5154482785601" y="1612" name="top0315"/>
  <anchor x="672.4654482785602" y="1612" name="parent_top"/>
  <outline>
    <contour>
      <point x="604.3386460894335" y="699.7817433345572" type="line"/>
      <point x="672.248458831493" y="736.7626042771527" type="line"/>
      <point x="853.9085719121138" y="765.7051828409633"/>
      <point x="980.5189337174764" y="897.0086536224189"/>
      <point x="996.7574610017109" y="1082.0138565728184" type="curve" smooth="yes"/>
      <point x="1016.9447808827915" y="1312.0075712891733"/>
      <point x="894.5691272515965" y="1448.9910762723448"/>
      <point x="665.3640268715708" y="1454.8802903633723" type="curve" smooth="yes"/>
      <point x="315.1489052669812" y="1456.0468225672123" type="line"/>
      <point x="62.30586610479905" y="0.0" type="line"/>
      <point x="175.7631788114586" y="0.0" type="line"/>
      <point x="410.0542751101183" y="1349.0531788825374" type="line"/>
      <point x="661.9477328075249" y="1348.006746603816" type="line" smooth="yes"/>
      <point x="825.4484141668113" y="1342.9331772077421"/>
      <point x="898.8669833557361" y="1249.2234377286202"/>
      <point x="882.0496981293168" y="1087.5133310855401" type="curve" smooth="yes"/>
      <point x="863.5726546611764" y="909.8434735875012"/>
      <point x="740.3453265872972" y="804.7435324750167"/>
      <point x="563.7454255803443" y="803.6756594029767" type="curve" smooth="yes"/>
      <point x="284.10705270529417" y="804.9665841815698" type="line"/>
      <point x="267.2274983672127" y="700.0672447046203" type="line"/>
    </contour>
    <contour>
      <point x="475.36202183434443" y="0.0" type="line" smooth="yes"/>
      <point x="728.2180095839615" y="-2.4626578648956476"/>
      <point x="900.1230130771983" y="169.94855252737065"/>
      <point x="920.1540497801852" y="419.30665823909493" type="curve" smooth="yes"/>
      <point x="932.3135201347517" y="570.6748844088572"/>
      <point x="871.9489382338354" y="732.2221003648591"/>
      <point x="709.9574351725845" y="765.3242150892187" type="curve"/>
      <point x="695.1134405883497" y="803.7025531696507" type="line"/>
      <point x="404.1287163214125" y="805.0465540540612" type="line"/>
      <point x="383.2987091406966" y="700.2991632197743" type="line"/>
      <point x="603.6196885709758" y="698.6318437189163" type="line" smooth="yes"/>
      <point x="764.2462267380955" y="691.757485056765"/>
      <point x="822.6607379715258" y="565.2437552479352"/>
      <point x="806.8765750477463" y="417.72357185539033" type="curve" smooth="yes"/>
      <point x="787.456287070211" y="236.21984195749525"/>
      <point x="666.5273023025384" y="106.76570851404968"/>
      <point x="479.8633034261811" y="105.59522136570132" type="curve" smooth="yes"/>
      <point x="182.94435946682353" y="106.61296578087061" type="line"/>
      <point x="104.34030267567617" y="0.0" type="line"/>
    </contour>
  </outline>
</glyph>
<glyph name="C" format="2">
  <advance width="1123"/>
  <unicode hex="0043"/>
  <guideline x="0.0" y="901.0" angle="0.0" identifier="xFzIGL20cH"/>
  <guideline x="0.0" y="555.0" angle="0.0" identifier="Nd5ItZFcxm"/>
  <anchor x="750.7838716124038" y="1633" name="top"/>
  <anchor x="466.90294125501805" y="-10" name="bottom"/>
  <anchor x="1276.6420635163636" y="1600" name="top_dd"/>
  <anchor x="929.8684620390216" y="-407" name="bottom_dd"/>
  <anchor x="1282.3438716124037" y="1633" name="top0315"/>
  <anchor x="750.7838716124038" y="1633" name="parent_top"/>
  <outline>
    <contour>
      <point x="876.5826857713305" y="452.8655073548255" type="line"/>
      <point x="824.3103060328637" y="238.5687853606509"/>
      <point x="730.3676308883978" y="75.70687653713536"/>
      <point x="486.75281386709037" y="85.60425620713121" type="curve" smooth="yes"/>
      <point x="232.7435187164128" y="95.92393406808172"/>
      <point x="218.73951420401048" y="381.9217175324641"/>
      <point x="244.78098097202826" y="576.1645124331553" type="curve" smooth="yes"/>
      <point x="294.3387591296811" y="891.3173187156503" type="line" smooth="yes"/>
      <point x="329.24886881596495" y="1119.4284322763706"/>
      <point x="446.6530449467479" y="1377.6399494115446"/>
      <point x="715.4039403278588" y="1369.9025800632671" type="curve" smooth="yes"/>
      <point x="935.2650168497614" y="1363.5727542520917"/>
      <point x="977.4127932081151" y="1191.1825714841423"/>
      <point x="968.750342277867" y="999.8087982910475" type="curve"/>
      <point x="1082.6052927179962" y="999.6615892994994" type="line"/>
      <point x="1096.0125076804622" y="1254.1727455890432"/>
      <point x="1003.6890873193496" y="1470.295506748805"/>
      <point x="722.2773624634609" y="1476.676717668762" type="curve" smooth="yes"/>
      <point x="386.9103922527015" y="1484.2814021345482"/>
      <point x="224.46952974703711" y="1180.7839860257225"/>
      <point x="179.85599381511787" y="888.5983563572528" type="curve" smooth="yes"/>
      <point x="130.28732018582878" y="576.6888384506316" type="line" smooth="yes"/>
      <point x="95.47584230798705" y="315.4244096647453"/>
      <point x="159.01034057303946" y="-12.142134036975168"/>
      <point x="479.0737471952674" y="-21.173700510009105" type="curve" smooth="yes"/>
      <point x="779.8619558209507" y="-29.661358406227333"/>
      <point x="933.9202375670932" y="179.80921984196613"/>
      <point x="985.2794392839619" y="454.1301458053564" type="curve"/>
    </contour>
  </outline>
</glyph>
<glyph name="D" format="2">
  <advance width="1132"/>
  <unicode hex="0044"/>
  <guideline x="0.0" y="901.0" angle="0.0" identifier="G2IKwcljH5"/>
  <guideline x="0.0" y="555.0" angle="0.0" identifier="VfYumNrUat"/>
  <anchor x="684.1054482785601" y="1612" name="top"/>
  <anchor x="409.24858252534534" y="10" name="bottom"/>
  <anchor x="1285.3720635163636" y="1600" name="top_dd"/>
  <anchor x="938.5984620390216" y="-407" name="bottom_dd"/>
  <anchor x="1287.44544827856" y="1612" name="top0315"/>
  <anchor x="684.1054482785601" y="1612" name="parent_top"/>
  <outline>
    <contour>
      <point x="395.70256480539547" y="0.0" type="line" smooth="yes"/>
      <point x="747.5933473230486" y="-3.1297153137223805"/>
      <point x="951.6698204783232" y="253.5855827997097"/>
      <point x="1001.7979429207478" y="582.168887287902" type="curve" smooth="yes"/>
      <point x="1047.4021487359335" y="874.3283743670768" type="line" smooth="yes"/>
      <point x="1085.5021147234515" y="1168.8990597079724"/>
      <point x="968.7186507573186" y="1446.7290398403134"/>
      <point x="640.3697615980684" y="1455.0632470623232" type="curve" smooth="yes"/>
      <point x="369.5977087901385" y="1456.0757485281513" type="line"/>
      <point x="350.41222713149455" y="1349.2543110767435" type="line"/>
      <point x="636.8053128176591" y="1348.0630706925454" type="line" smooth="yes"/>
      <point x="903.5672171008086" y="1340.0626216819985"/>
      <point x="965.5723007938991" y="1106.3142443306942"/>
      <point x="935.2942248644217" y="876.9279930279863" type="curve" smooth="yes"/>
      <point x="889.2216882155283" y="581.7035686866061" type="line" smooth="yes"/>
      <point x="847.5249151217209" y="313.6022283160499"/>
      <point x="688.0823501060853" y="104.52070686031303"/>
      <point x="399.70164826860344" y="105.61106132610401" type="curve" smooth="yes"/>
      <point x="141.64808243926888" y="107.04849768877354" type="line"/>
      <point x="121.4800155072402" y="0.0" type="line"/>
    </contour>
    <contour>
      <point x="428.808533579685" y="1455.9275110172482" type="line"/>
      <point x="315.34835701809965" y="1455.9311749582594" type="line"/>
      <point x="62.30701779846386" y="0.0" type="line"/>
      <point x="175.7671943600477" y="0.0" type="line"/>
    </contour>
  </outline>
</glyph>
<glyph name="E" format="2">
  <advance width="988"/>
  <unicode hex="0045"/>
  <anchor x="698.65544827856" y="1612" name="top"/>
  <anchor x="421.85858252534535" y="10" name="bottom"/>
  <anchor x="1141.8120635163637" y="1600" name="top_dd"/>
  <anchor x="795.0384620390216" y="-407" name="bottom_dd"/>
  <anchor x="1143.88544827856" y="1612" name="top0315"/>
  <anchor x="698.65544827856" y="1612" name="parent_top"/>
  <outline>
    <contour>
      <point x="824.5483821614457" y="106.91642050774904" type="line"/>
      <point x="162.0664800467976" y="106.92115971957834" type="line"/>
      <point x="142.89091388960725" y="0.0" type="line"/>
      <point x="805.3728160042516" y="0.0" type="line"/>
    </contour>
    <contour>
      <point x="428.8110919191854" y="1455.9426618485877" type="line"/>
      <point x="315.3487362665279" y="1455.9471667589585" type="line"/>
      <point x="62.305195590848186" y="0.0" type="line"/>
      <point x="175.76755124350433" y="0.0" type="line"/>
    </contour>
    <contour>
      <point x="862.8548395622664" y="803.916378052962" type="line"/>
      <point x="282.8259326367968" y="803.9210975849984" type="line"/>
      <point x="263.6476845665592" y="697.0825642353923" type="line"/>
      <point x="843.6765914920279" y="697.0778447033547" type="line"/>
    </contour>
    <contour>
      <point x="1053.415254044498" y="1455.9155705138983" type="line"/>
      <point x="395.7833665418152" y="1455.9203099403835" type="line"/>
      <point x="376.6077971256768" y="1349.0824528831683" type="line"/>
      <point x="1034.2396846283614" y="1349.0777134566947" type="line"/>
    </contour>
  </outline>
</glyph>
<glyph name="F" format="2">
  <advance width="975"/>
  <unicode hex="0046"/>
  <anchor x="698.65544827856" y="1612" name="top"/>
  <anchor x="350.0785825253454" y="10" name="bottom"/>
  <anchor x="1128.2320635163637" y="1600" name="top_dd"/>
  <anchor x="781.4584620390216" y="-407" name="bottom_dd"/>
  <anchor x="1130.30544827856" y="1612" name="top0315"/>
  <anchor x="698.65544827856" y="1612" name="parent_top"/>
  <outline>
    <contour>
      <point x="428.8107476587754" y="1455.942365965989" type="line"/>
      <point x="315.3489349477232" y="1455.946866998737" type="line"/>
      <point x="62.305531696945835" y="0.0" type="line"/>
      <point x="175.76734440799925" y="0.0" type="line"/>
    </contour>
    <contour>
      <point x="855.0629591714799" y="786.9158015024973" type="line"/>
      <point x="276.9730989345991" y="786.9205133248454" type="line"/>
      <point x="257.6157338440659" y="679.083212703295" type="line"/>
      <point x="835.7055940809465" y="679.0785008809437" type="line"/>
    </contour>
    <contour>
      <point x="1052.4449670258257" y="1455.9150541466463" type="line"/>
      <point x="392.87311697434944" y="1455.9197878267917" type="line"/>
      <point x="373.6980662635553" y="1349.0830596645892" type="line"/>
      <point x="1033.2699163150266" y="1349.078325984441" type="line"/>
    </contour>
  </outline>
</glyph>
<glyph name="G" format="2">
  <advance width="1180"/>
  <unicode hex="0047"/>
  <guideline x="0.0" y="901.0" angle="0.0" identifier="Id3P8G4oyx"/>
  <guideline x="0.0" y="555.0" angle="0.0" identifier="9DCW9RxIDL"/>
  <anchor x="755.6338716124037" y="1633" name="top"/>
  <anchor x="509.4768515725999" y="-5" name="bottom"/>
  <anchor x="1332.9020635163638" y="1600" name="top_dd"/>
  <anchor x="986.1284620390215" y="-407" name="bottom_dd"/>
  <anchor x="1338.6038716124037" y="1633" name="top0315"/>
  <anchor x="755.6338716124037" y="1633" name="parent_top"/>
  <outline>
    <contour>
      <point x="1043.7383753302295" y="692.848135917962" type="line"/>
      <point x="621.526003414481" y="692.9326186866272" type="line"/>
      <point x="602.5361870544913" y="587.088867346479" type="line"/>
      <point x="913.4521655497476" y="586.9218332477948" type="line"/>
      <point x="846.2073734144362" y="207.62901600187868" type="line"/>
      <point x="754.0692794267356" y="128.7414958571646"/>
      <point x="645.623944520806" y="84.56379377937634"/>
      <point x="522.7688640766222" y="86.58901343277218" type="curve" smooth="yes"/>
      <point x="262.1327940150613" y="90.88550072140606"/>
      <point x="225.2893089584026" y="357.06104300309266"/>
      <point x="252.70642123918338" y="564.9678708464355" type="curve" smooth="yes"/>
      <point x="306.1238051798967" y="903.3195633990148" type="line" smooth="yes"/>
      <point x="342.0429745886594" y="1138.480583644055"/>
      <point x="458.1006885453497" y="1377.8980556719066"/>
      <point x="730.4954211349034" y="1369.4178105379783" type="curve" smooth="yes"/>
      <point x="927.0235308278111" y="1363.2994596797969"/>
      <point x="994.8487171865137" y="1226.2246030113765"/>
      <point x="991.4140596209766" y="1045.6205870728108" type="curve"/>
      <point x="1104.5533343604563" y="1045.4950699101682" type="line"/>
      <point x="1112.6542432640483" y="1290.1004115177295"/>
      <point x="994.4238498651803" y="1469.8208143382587"/>
      <point x="736.6295176511064" y="1476.1479676432768" type="curve" smooth="yes"/>
      <point x="396.57315467985416" y="1484.4941121158377"/>
      <point x="236.41467967738214" y="1201.3516875639966"/>
      <point x="191.4186052866624" y="900.6368191968713" type="curve" smooth="yes"/>
      <point x="138.33074322393134" y="565.6862023790052" type="line" smooth="yes"/>
      <point x="102.31069541660976" y="288.1057084684468"/>
      <point x="191.868573942247" y="-16.11750374701959"/>
      <point x="517.979959492262" y="-21.06806872860879" type="curve" smooth="yes"/>
      <point x="683.6413820749297" y="-23.58290774919314"/>
      <point x="856.2974664209994" y="37.82527712459677"/>
      <point x="962.0769919259842" y="169.92896539130203" type="curve"/>
    </contour>
  </outline>
</glyph>
<glyph name="R" format="2">
  <advance width="1092"/>
  <unicode hex="0052"/>
  <anchor x="688.8887558974619" y="1606" name="top"/>
  <anchor x="413.12858252534534" y="10" name="bottom"/>
  <anchor x="1245.6020635163636" y="1600" name="top_dd"/>
  <anchor x="898.8284620390216" y="-407" name="bottom_dd"/>
  <anchor x="1246.638755897462" y="1606" name="top0315"/>
  <anchor x="688.8887558974619" y="1606" name="parent_top"/>
  <outline>
    <contour>
      <point x="313.1996256198349" y="1456.0123850105874" type="line"/>
      <point x="60.36585962689411" y="0.0" type="line"/>
      <point x="173.82395566685028" y="0.0" type="line"/>
      <point x="408.1118959502532" y="1349.062840217135" type="line"/>
      <point x="690.0141073787839" y="1347.8862836763221" type="line" smooth="yes"/>
      <point x="870.7437183973726" y="1341.3427153561506"/>
      <point x="937.5091813487044" y="1203.3110479929458"/>
      <point x="918.7118571172981" y="1036.3189418397103" type="curve" smooth="yes"/>
      <point x="898.4865453057834" y="856.640846413354"/>
      <point x="771.6955176467" y="713.4224950784338"/>
      <point x="584.8621327277739" y="711.456771966055" type="curve" smooth="yes"/>
      <point x="258.46875468404966" y="712.9786289298788" type="line"/>
      <point x="241.24256761361676" y="606.0868166262895" type="line"/>
      <point x="654.2051452667761" y="605.4412421276254" type="line"/>
      <point x="694.1009215822796" y="621.8013609408481" type="line"/>
      <point x="887.386325161037" y="686.2237121680766"/>
      <point x="1012.7271086009163" y="825.7851575716656"/>
      <point x="1032.5416842729237" y="1034.6656254035759" type="curve" smooth="yes"/>
      <point x="1054.9395022013412" y="1270.7780087694837"/>
      <point x="939.442482694478" y="1447.1262370697018"/>
      <point x="693.0869482210019" y="1454.6396154677325" type="curve" smooth="yes"/>
    </contour>
    <contour>
      <point x="787.2942577981744" y="0.0" type="line"/>
      <point x="908.8798797619928" y="0.0" type="line"/>
      <point x="910.1350293944298" y="13.428464048246934" type="line"/>
      <point x="712.4897222661375" y="652.043561428055" type="line"/>
      <point x="597.9160236178656" y="651.0933329837603" type="line"/>
    </contour>
  </outline>
</glyph>
<glyph name="T" format="2">
  <advance width="1035"/>
  <unicode hex="0054"/>
  <anchor x="690.1376276433965" y="1602" name="top"/>
  <anchor x="415.2807618901817" y="0" name="bottom"/>
  <anchor x="1188.3720635163636" y="1600" name="top_dd"/>
  <anchor x="841.5984620390216" y="-407" name="bottom_dd"/>
  <anchor x="1188.7176276433966" y="1602" name="top0315"/>
  <anchor x="690.1376276433965" y="1602" name="parent_top"/>
  <outline>
    <contour>
      <point x="723.6908239642061" y="1455.9398124407428" type="line"/>
      <point x="610.2272804720438" y="1455.9446677422309" type="line"/>
      <point x="357.1844429366331" y="0.0" type="line"/>
      <point x="470.6479864287958" y="0.0" type="line"/>
    </contour>
    <contour>
      <point x="1125.2082659419161" y="1455.9162396960987" type="line"/>
      <point x="208.56157439120096" y="1455.920944026714" type="line"/>
      <point x="189.38364755081096" y="1349.0820296770721" type="line"/>
      <point x="1106.0303391015273" y="1349.0773253464602" type="line"/>
    </contour>
  </outline>
</glyph>
<glyph name="bracketleft" format="2">
  <advance width="447"/>
  <unicode hex="005B"/>
  <outline>
    <contour>
      <point x="593.8777377751728" y="1663.9535211546697" type="line"/>
      <point x="315.4423866117848" y="1663.950156623907" type="line"/>
      <point x="6.523870120894955" y="-311.94791323623286" type="line"/>
      <point x="284.81103215764256" y="-311.9600339348472" type="line"/>
      <point x="301.5203437671938" y="-208.07557444731094" type="line"/>
      <point x="133.43428618769255" y="-207.95168727316604" type="line"/>
      <point x="409.63269474144136" y="1559.9430238094444" type="line"/>
      <point x="577.1677372444175" y="1560.0701539884817" type="line"/>
    </contour>
  </outline>
</glyph>
<glyph name="backslash" format="2">
  <advance width="701"/>
  <unicode hex="005C"/>
  <guideline x="0.0" y="901.0" angle="0.0" identifier="959Sa6vjWX"/>
  <guideline x="0.0" y="555.0" angle="0.0" identifier="5FZEp2mz1X"/>
  <outline>
    <contour>
      <point x="429.32570369456437" y="-125.02640952738614" type="line"/>
      <point x="531.2563234463103" y="-125.02495802335169" type="line"/>
      <point x="309.7952722272271" y="1456.0215943940382" type="line"/>
      <point x="207.85977656466804" y="1456.0351510787389" type="line"/>
    </contour>
  </outline>
</glyph>
<glyph name="bracketright" format="2">
  <advance width="447"/>
  <unicode hex="005D"/>
  <outline>
    <contour>
      <point x="169.79589041995445" y="1560.0730544130442" type="line"/>
      <point x="338.85194074240695" y="1559.948677820332" type="line"/>
      <point x="62.65354497567023" y="-207.94550292487278" type="line"/>
      <point x="-105.85150859322087" y="-208.07312987423654" type="line"/>
      <point x="-122.56151093037741" y="-311.9563091932435" type="line"/>
      <point x="156.84384841552983" y="-311.9528347763752" type="line"/>
      <point x="465.7623600086017" y="1663.9450897981928" type="line"/>
      <point x="186.50519191937525" y="1663.957318924571" type="line"/>
    </contour>
  </outline>
</glyph>
<glyph name="asciicircum" format="2">
  <advance width="734"/>
  <unicode hex="005E"/>
  <guideline x="0.0" y="181.0" angle="0.0" identifier="KYcxL0yheX"/>
  <guideline x="0.0" y="526.0" angle="0.0" identifier="QZYrW3gBNk"/>
  <outline>
    <contour>
      <point x="500.7808345428268" y="1321.902946322413" type="line"/>
      <point x="542.0064031091781" y="1455.2159507948725" type="line"/>
      <point x="468.58201081316565" y="1455.021058700499" type="line"/>
      <point x="98.84297762975741" y="729.279836973109" type="line"/>
      <point x="209.1507466335666" y="729.2523831273713" type="line"/>
    </contour>
    <contour>
      <point x="566.6151772775481" y="728.9763450358994" type="line"/>
      <point x="667.494951583041" y="728.9684817699857" type="line"/>
      <point x="548.9255048676638" y="1456.7324668769086" type="line"/>
      <point x="478.04916388534775" y="1456.5607609670712" type="line"/>
      <point x="478.69877780579213" y="1335.1025097498705" type="line"/>
    </contour>
  </outline>
</glyph>
<glyph name="underscore" format="2">
  <advance width="765"/>
  <unicode hex="005F"/>
  <outline>
    <contour>
      <point x="643.0427458189282" y="0.0" type="line"/>
      <point x="-83.4584915757633" y="0.0" type="line"/>
      <point x="-102.09962925842343" y="-103.91694222975336" type="line"/>
      <point x="624.401608136268" y="-103.92166401953217" type="line"/>
    </contour>
  </outline>
</glyph>
<glyph name="a" format="2">
  <advance width="936"/>
  <unicode hex="0061"/>
  <guideline x="0.0" y="1658.0" angle="0.0" identifier="mZaeDE32dk"/>
  <guideline x="0.0" y="555.0" angle="0.0" identifier="20HMqtbKuH"/>
  <anchor x="611.1824058898073" y="1291" name="top"/>
  <anchor x="326.0407618901817" y="0" name="bottom"/>
  <anchor x="1089.4320635163638" y="1600" name="top_dd"/>
  <anchor x="742.6584620390216" y="-407" name="bottom_dd"/>
  <anchor x="744.5902314298836" y="654" name="rhotichook"/>
  <anchor x="1036.0424058898075" y="1291" name="top0315"/>
  <anchor x="611.1824058898073" y="1291" name="parent_top"/>
  <outline>
    <contour>
      <point x="608.3960546316483" y="193.842702774087" type="line" smooth="yes"/>
      <point x="599.1380887470793" y="129.6904889825106"/>
      <point x="593.6592524477854" y="64.22157665505601"/>
      <point x="601.243924614031" y="-0.3458835261845847" type="curve"/>
      <point x="712.9244819195405" y="0.0" type="line"/>
      <point x="714.6795514868797" y="13.204508282236345" type="line"/>
      <point x="714.0106779484462" y="85.90360032794086"/>
      <point x="711.0513522741115" y="153.75981316190786"/>
      <point x="722.8506767772853" y="226.66460120958328" type="curve" smooth="yes"/>
      <point x="813.7641819223461" y="780.1529430976841" type="line"/>
      <point x="832.7686237087364" y="974.1447823445785"/>
      <point x="733.3917372336365" y="1099.9679442390755"/>
      <point x="535.6336735339132" y="1103.451964596369" type="curve" smooth="yes"/>
      <point x="343.9158380511199" y="1106.8295706933445"/>
      <point x="181.7737445993843" y="974.9575764455568"/>
      <point x="155.21064737044333" y="784.5908809551518" type="curve"/>
      <point x="263.7437320071172" y="784.260088071631" type="line"/>
      <point x="290.6054332434874" y="913.4955286041177"/>
      <point x="387.7052256396089" y="1001.5534017339935"/>
      <point x="523.366433680544" y="999.4916999420233" type="curve" smooth="yes"/>
      <point x="660.5439127820123" y="997.4069547258661"/>
      <point x="715.6796392006635" y="916.3470664675979"/>
      <point x="702.774819005391" y="784.8557578549593" type="curve"/>
    </contour>
    <contour>
      <point x="708.5113368082114" y="630.978915501096" type="line"/>
      <point x="498.5180152819255" y="632.1455030834495" type="line" smooth="yes"/>
      <point x="275.0876336055502" y="631.8365958568562"/>
      <point x="65.43669162387955" y="519.2309894231214"/>
      <point x="48.16704692787157" y="276.75839798493365" type="curve" smooth="yes"/>
      <point x="36.19837044626879" y="108.71348138914777"/>
      <point x="121.8554893410415" y="-20.22552948945594"/>
      <point x="298.66723630482113" y="-22.803875675350405" type="curve" smooth="yes"/>
      <point x="470.37736678683046" y="-25.307827859581828"/>
      <point x="610.0543988696129" y="99.29598195874482"/>
      <point x="666.3954162776035" y="254.88942351968572" type="curve"/>
      <point x="645.4059874888637" y="321.93779410424645" type="line"/>
      <point x="587.8435311427171" y="187.6306223198439"/>
      <point x="470.6831653283234" y="82.94320412448644"/>
      <point x="317.4913121304961" y="86.11932703715728" type="curve" smooth="yes"/>
      <point x="196.2230418200939" y="88.63357909346892"/>
      <point x="149.8879259750641" y="171.63709382902428"/>
      <point x="161.08587583476378" y="285.8116970208686" type="curve" smooth="yes"/>
      <point x="179.03153841980256" y="468.7861638056734"/>
      <point x="347.11322510554294" y="537.901085528257"/>
      <point x="511.4066278997417" y="538.4836166593448" type="curve" smooth="yes"/>
      <point x="693.948874265486" y="537.1916861958988" type="line"/>
    </contour>
  </outline>
</glyph>
<glyph name="b" format="2">
  <advance width="966"/>
  <unicode hex="0062"/>
  <anchor x="691.86544827856" y="1612" name="top"/>
  <anchor x="397.0629412550181" y="-10" name="bottom"/>
  <anchor x="1119.5020635163637" y="1600" name="top_dd"/>
  <anchor x="772.7284620390217" y="-407" name="bottom_dd"/>
  <anchor x="1121.57544827856" y="1612" name="top0315"/>
  <anchor x="691.86544827856" y="1612" name="parent_top"/>
  <outline>
    <contour>
      <point x="304.9552961019108" y="1535.9315324008614" type="line"/>
      <point x="38.044432711526824" y="0.0" type="line"/>
      <point x="141.0932360851466" y="0.0" type="line"/>
      <point x="184.45987381016198" y="203.6376202541467" type="line"/>
      <point x="415.5234364763338" y="1535.9291677058834" type="line"/>
    </contour>
    <contour>
      <point x="858.0896575759143" y="591.3591543046689" type="line" smooth="yes"/>
      <point x="882.9470673459576" y="805.91746159183"/>
      <point x="870.3667565000753" y="1096.3491249925448"/>
      <point x="593.0219970457013" y="1103.2355256507988" type="curve" smooth="yes"/>
      <point x="365.6343746395934" y="1108.8815031543825"/>
      <point x="236.45902183456099" y="893.9166721444876"/>
      <point x="196.8097024405041" y="693.9154486857852" type="curve" smooth="yes"/>
      <point x="148.08515176383372" y="369.9203996366584" type="line"/>
      <point x="136.55316040349555" y="182.47643470596944"/>
      <point x="224.6652671342427" y="-13.888015930902789"/>
      <point x="432.02601606551093" y="-21.031959793471657" type="curve" smooth="yes"/>
      <point x="718.3408568592583" y="-30.896011501390824"/>
      <point x="813.3740157060514" y="256.605509065914"/>
      <point x="845.0106778125088" y="491.48683750340024" type="curve" smooth="yes"/>
    </contour>
    <contour>
      <point x="734.7896702128877" y="489.64719501550866" type="line" smooth="yes"/>
      <point x="710.9655528839994" y="304.7797463509141"/>
      <point x="643.7390733646215" y="76.54419245868314"/>
      <point x="416.3975909843716" y="85.66715195910241" type="curve" smooth="yes"/>
      <point x="280.10665091174053" y="91.13635499912226"/>
      <point x="182.83052331591617" y="206.16865596758484"/>
      <point x="186.82343279521677" y="342.64583307911937" type="curve"/>
      <point x="246.77502393625616" y="714.6119820142893" type="line"/>
      <point x="283.72926575725603" y="862.0447722223716"/>
      <point x="403.5533789907927" y="1001.522909649269"/>
      <point x="564.3925345363317" y="998.1705071526595" type="curve" smooth="yes"/>
      <point x="780.3388276502167" y="993.669495631472"/>
      <point x="765.341591258663" y="749.0943296017997"/>
      <point x="747.3582768269276" y="592.2769353606955" type="curve" smooth="yes"/>
    </contour>
  </outline>
</glyph>
<glyph name="d" format="2">
  <advance width="969"/>
  <unicode hex="0064"/>
  <anchor x="411.4007618901817" y="0" name="bottom"/>
  <anchor x="638.2365765326256" y="1616" name="top"/>
  <anchor x="1122.4120635163638" y="1600" name="top_dd"/>
  <anchor x="775.6384620390216" y="-407" name="bottom_dd"/>
  <anchor x="1125.1765765326256" y="1616" name="top0315"/>
  <anchor x="638.2365765326256" y="1616" name="parent_top"/>
  <outline>
    <contour>
      <point x="647.3816602935922" y="216.1553497661113" type="line"/>
      <point x="616.4262686198439" y="0.0" type="line"/>
      <point x="719.9433322265801" y="0.0" type="line"/>
      <point x="986.8355331141897" y="1535.9276234448262" type="line"/>
      <point x="876.3042687236294" y="1535.9326200226976" type="line"/>
    </contour>
    <contour>
      <point x="88.74184383052481" y="489.6806627627109" type="line" smooth="yes"/>
      <point x="64.8782964705111" y="282.0860164317344"/>
      <point x="84.79275769775376" y="-15.039116268123617"/>
      <point x="354.69862709003377" y="-22.3699144512767" type="curve" smooth="yes"/>
      <point x="577.4283660015427" y="-28.41938187865437"/>
      <point x="711.1232009045331" y="170.57884080243093"/>
      <point x="749.3713303658402" y="370.0496434356319" type="curve" smooth="yes"/>
      <point x="798.0383104025206" y="694.0801695025165" type="line"/>
      <point x="808.9047801985064" y="880.4664923081917"/>
      <point x="731.5318109436715" y="1094.4895416457957"/>
      <point x="519.3590656821669" y="1102.102310964942" type="curve" smooth="yes"/>
      <point x="230.501643563174" y="1112.4665305446285"/>
      <point x="133.2181715296101" y="828.0121103135795"/>
      <point x="101.65315978120286" y="589.3839663533378" type="curve" smooth="yes"/>
    </contour>
    <contour>
      <point x="212.36830396920254" y="591.3322483431916" type="line" smooth="yes"/>
      <point x="236.45514725448737" y="776.8012822743917"/>
      <point x="306.91369010095696" y="1006.0238950029237"/>
      <point x="534.7418979305536" y="996.1129189484511" type="curve" smooth="yes"/>
      <point x="681.638632504327" y="989.7226214839255"/>
      <point x="765.4408764129671" y="854.9845315608497"/>
      <point x="759.683143246096" y="715.0112831587795" type="curve"/>
      <point x="699.432692183699" y="343.2105243495724" type="line"/>
      <point x="661.337461907838" y="199.6781005553702"/>
      <point x="534.3885618587461" y="80.35654832816955"/>
      <point x="382.32539130403376" y="84.5146206131483" type="curve" smooth="yes"/>
      <point x="169.705594434319" y="90.32857596720739"/>
      <point x="182.2904008722249" y="332.6188920342129"/>
      <point x="199.76041646197172" y="488.1410989672158" type="curve" smooth="yes"/>
    </contour>
  </outline>
</glyph>
<glyph name="e" format="2">
  <advance width="910"/>
  <unicode hex="0065"/>
  <anchor x="587.8080274921386" y="1291" name="top"/>
  <anchor x="387.95140312547187" y="2" name="bottom"/>
  <anchor x="1042.380329221619" y="1600" name="top_dd"/>
  <anchor x="729.6890684738296" y="-407" name="bottom_dd"/>
  <anchor x="775.6832177779675" y="654" name="rhotichook"/>
  <anchor x="994.2380274921387" y="1291" name="top0315"/>
  <anchor x="587.8080274921386" y="1291" name="parent_top"/>
  <outline>
    <contour>
      <point x="395.5607585988818" y="-20.8224735186775" type="curve" smooth="yes"/>
      <point x="524.2326884750023" y="-23.091908451065414"/>
      <point x="641.0898817923287" y="24.205440774718284"/>
      <point x="724.453073123612" y="122.79646739849713" type="curve"/>
      <point x="673.1851781609049" y="197.57053953292814" type="line"/>
      <point x="596.9678577212346" y="126.74801197050324"/>
      <point x="512.0333431404667" y="80.75189616486287"/>
      <point x="405.42922236296374" y="83.52483636732516" type="curve" smooth="yes"/>
      <point x="193.7577172391367" y="89.03074385000693"/>
      <point x="163.94048040494528" y="297.7337141959832"/>
      <point x="183.1208068872234" y="469.087507366266" type="curve" smooth="yes"/>
      <point x="198.75582539907805" y="594.4068932113091" type="line" smooth="yes"/>
      <point x="223.75985487397065" y="783.847244878393"/>
      <point x="309.62689782833263" y="1008.5716946776416"/>
      <point x="537.3971239168259" y="998.7373920488611" type="curve" smooth="yes"/>
      <point x="717.21627711255" y="990.9734450161584"/>
      <point x="740.2107230090023" y="811.2514295685739"/>
      <point x="721.8605892197759" y="665.095322942942" type="curve" smooth="yes"/>
      <point x="717.4445093903943" y="635.7986862698887" type="line"/>
      <point x="163.4983895207605" y="635.9262249253026" type="line"/>
      <point x="144.8622820009324" y="532.0800416774144" type="line"/>
      <point x="812.7942777719394" y="531.9973530436245" type="line"/>
      <point x="826.0100041093942" y="625.2975216588408" type="line" smooth="yes"/>
      <point x="852.903594659621" y="846.9182333823801"/>
      <point x="812.2663337631122" y="1094.4057577063945"/>
      <point x="544.8102995760954" y="1102.405041290026" type="curve" smooth="yes"/>
      <point x="257.5217755350509" y="1110.9974904419503"/>
      <point x="120.95230780170172" y="842.4521790977593"/>
      <point x="88.19360336826618" y="593.6364924957516" type="curve" smooth="yes"/>
      <point x="72.64550922124782" y="469.72873381641415" type="line" smooth="yes"/>
      <point x="46.46912622610317" y="232.7780758045539"/>
      <point x="119.14362585279224" y="-15.947201207393846"/>
    </contour>
  </outline>
</glyph>
<glyph name="g" format="2">
  <advance width="967"/>
  <unicode hex="0067"/>
  <anchor x="595.489623826291" y="1290" name="top"/>
  <anchor x="289.54717949836714" y="-447" name="bottom"/>
  <anchor x="1120.4720635163637" y="1600" name="top_dd"/>
  <anchor x="773.6984620390216" y="-407" name="bottom_dd"/>
  <anchor x="1066.909623826291" y="1290" name="top0315"/>
  <anchor x="595.489623826291" y="1290" name="parent_top"/>
  <outline>
    <contour>
      <point x="804.8735709076965" y="1081.904966688102" type="line"/>
      <point x="756.1095207464691" y="845.9692314316353" type="line"/>
      <point x="608.3688260762494" y="-31.59386051659886" type="line" smooth="yes"/>
      <point x="583.7072996143081" y="-206.8879175711712"/>
      <point x="493.3552647374571" y="-335.0386082056516"/>
      <point x="303.2657835052696" y="-328.813536924943" type="curve" smooth="yes"/>
      <point x="206.11441969557868" y="-325.63201335607874"/>
      <point x="128.79689358570872" y="-276.4128160383714"/>
      <point x="71.31105607062476" y="-200.53307437063" type="curve"/>
      <point x="11.090624966932097" y="-278.44305779669025" type="line"/>
      <point x="79.26501477764985" y="-370.93883719672294"/>
      <point x="190.9213629632078" y="-428.0579170980781"/>
      <point x="306.10446069573015" y="-431.80387149077154" type="curve" smooth="yes"/>
      <point x="559.3174774170639" y="-440.0387985846503"/>
      <point x="687.4777513783978" y="-258.0833135215325"/>
      <point x="719.2613170177812" y="-25.715291657293367" type="curve" smooth="yes"/>
      <point x="908.3835388957662" y="1081.943432422843" type="line"/>
    </contour>
    <contour>
      <point x="88.80073857171276" y="489.675372930525" type="line" smooth="yes"/>
      <point x="64.78026967488934" y="280.88497321535"/>
      <point x="83.42985695619183" y="-15.159515543322403"/>
      <point x="354.67167298344896" y="-22.41693935982486" type="curve" smooth="yes"/>
      <point x="577.4471877141821" y="-28.377584919644978"/>
      <point x="711.1190066761717" y="170.49924207498594"/>
      <point x="749.374397803338" y="370.0643178509527" type="curve" smooth="yes"/>
      <point x="798.0395641445131" y="694.0837649542684" type="line"/>
      <point x="808.9190445782874" y="880.5450221052524"/>
      <point x="731.617183297544" y="1094.4683074659017"/>
      <point x="519.3428510724798" y="1101.9908393872286" type="curve" smooth="yes"/>
      <point x="229.66128092033176" y="1112.256512281581"/>
      <point x="133.49873435146623" y="828.824816250429"/>
      <point x="101.7362639741434" y="589.390427314524" type="curve" smooth="yes"/>
    </contour>
    <contour>
      <point x="212.31040669816417" y="591.3395481398258" type="line" smooth="yes"/>
      <point x="236.32575977262036" y="776.8396518707829"/>
      <point x="306.6166573692657" y="1006.1911114717598"/>
      <point x="534.5614907134527" y="996.2591852972" type="curve" smooth="yes"/>
      <point x="681.3110916734413" y="989.8650671173862"/>
      <point x="763.6917312625125" y="854.7151665844128"/>
      <point x="758.4395510920172" y="715.3015462002392" type="curve"/>
      <point x="698.4495758712499" y="343.20791367457" type="line"/>
      <point x="660.216244562623" y="200.63778699591245"/>
      <point x="535.0397627079323" y="80.36692627539769"/>
      <point x="383.37233487177554" y="84.54471542710684" type="curve" smooth="yes"/>
      <point x="170.04123475735582" y="90.42107509441131"/>
      <point x="181.9685767261589" y="332.28701942908674"/>
      <point x="199.7524736284259" y="488.7106607717881" type="curve" smooth="yes"/>
    </contour>
  </outline>
</glyph>
<glyph name="j" format="2">
  <advance width="423"/>
  <unicode hex="006A"/>
  <guideline x="0.0" y="659.0" angle="0.0" identifier="WOsgA1gLOE"/>
  <guideline x="0.0" y="1005.0" angle="0.0" identifier="etpEazHGS6"/>
  <anchor x="373.57206351636376" y="1600" name="top"/>
  <anchor x="-8.376205263829249" y="-459" name="bottom"/>
  <anchor x="576.3020635163638" y="1600" name="top_dd"/>
  <anchor x="229.5284620390217" y="-407" name="bottom_dd"/>
  <anchor x="576.3020635163638" y="1600" name="top0315"/>
  <anchor x="373.57206351636376" y="1600" name="parent_top"/>
  <outline>
    <contour>
      <point x="234.07474062574573" y="1081.9330527645868" type="line"/>
      <point x="27.89956693654203" y="-129.42110051425198" type="line" smooth="yes"/>
      <point x="13.338889819119245" y="-227.74009829611805"/>
      <point x="-29.756411556538083" y="-335.5053717195859"/>
      <point x="-146.1176622169376" y="-333.6273834243201" type="curve" smooth="yes"/>
      <point x="-171.99658133470012" y="-333.209715971268"/>
      <point x="-196.89760699593333" y="-326.14341975403204"/>
      <point x="-221.1863454831279" y="-317.9747812052148" type="curve"/>
      <point x="-234.19328734488568" y="-418.7051787883106" type="line"/>
      <point x="-203.2226122086722" y="-430.2222103695987"/>
      <point x="-173.02902096606041" y="-439.09622437303597"/>
      <point x="-139.67856212869833" y="-440.0068153838528" type="curve" smooth="yes"/>
      <point x="44.10194612952458" y="-445.0247037313381"/>
      <point x="119.42456554238035" y="-287.98625840337786"/>
      <point x="140.00485677714641" y="-128.67794602234554" type="curve" smooth="yes"/>
      <point x="345.5959991194494" y="1081.929468709596" type="line"/>
    </contour>
    <contour>
      <point x="271.64644192928205" y="1393.5914306598172" type="curve" smooth="yes"/>
      <point x="268.6125890328012" y="1351.7601167166367"/>
      <point x="294.2719550311236" y="1312.2204115271877"/>
      <point x="339.3092227546717" y="1313.1735040375956" type="curve" smooth="yes"/>
      <point x="383.0626477236974" y="1314.099427472797"/>
      <point x="413.17795971450096" y="1353.0602065487544"/>
      <point x="416.34323542061145" y="1394.3366011757269" type="curve" smooth="yes"/>
      <point x="419.5766447254142" y="1436.501483747541"/>
      <point x="393.71873989141636" y="1477.8529989097065"/>
      <point x="347.97924217210783" y="1476.8404707208688" type="curve" smooth="yes"/>
      <point x="303.62331406904457" y="1475.8585703987003"/>
      <point x="274.63905149152316" y="1434.854074030787"/>
    </contour>
  </outline>
</glyph>
<glyph name="k" format="2">
  <advance width="862"/>
  <unicode hex="006B"/>
  <anchor x="359.39671173368725" y="92" name="bottom"/>
  <anchor x="640.4554482785601" y="1612" name="top"/>
  <anchor x="640.4554482785601" y="1612" name="marktop"/>
  <anchor x="1015.7120635163637" y="1600" name="top_dd"/>
  <anchor x="668.9384620390216" y="-407" name="bottom_dd"/>
  <anchor x="911.0854482785601" y="1612" name="top0315"/>
  <anchor x="640.4554482785601" y="1612" name="parent_top"/>
  <outline>
    <contour>
      <point x="416.4789287207948" y="1535.9292150931883" type="line"/>
      <point x="305.9302468445482" y="1535.932874542465" type="line"/>
      <point x="39.02756179582498" y="0.0" type="line"/>
      <point x="149.57624367207342" y="0.0" type="line"/>
    </contour>
    <contour>
      <point x="892.2272542905846" y="1081.5916947287988" type="line"/>
      <point x="745.6377188147934" y="1081.6075127008332" type="line"/>
      <point x="352.97274136162275" y="680.4980660672715" type="line"/>
      <point x="179.7771745331994" y="496.1636031670307" type="line"/>
      <point x="171.08851535366153" y="363.87591155335673" type="line"/>
      <point x="397.07770041798864" y="578.356416896663" type="line"/>
    </contour>
    <contour>
      <point x="607.4864172139302" y="0.0" type="line"/>
      <point x="729.6161881036469" y="0.0" type="line"/>
      <point x="416.81108392193755" y="667.3831640515855" type="line"/>
      <point x="342.9423300199552" y="567.7469717517374" type="line"/>
    </contour>
  </outline>
</glyph>
<glyph name="m" format="2">
  <advance width="1515"/>
  <unicode hex="006D"/>
  <anchor x="882.609623826291" y="1290" name="top"/>
  <anchor x="655.6285825253453" y="10" name="bottom"/>
  <anchor x="882.609623826291" y="1290" name="marktop"/>
  <anchor x="1668.5220635163637" y="1600" name="top_dd"/>
  <anchor x="1321.7484620390217" y="-407" name="bottom_dd"/>
  <anchor x="1614.9596238262911" y="1290" name="top0315"/>
  <anchor x="882.609623826291" y="1290" name="parent_top"/>
  <outline>
    <contour>
      <point x="293.86734751627483" y="853.9363492007881" type="line"/>
      <point x="328.9480580700371" y="1081.9378734700663" type="line"/>
      <point x="222.4243787863594" y="1081.9312415254085" type="line"/>
      <point x="34.17918830461831" y="0.0" type="line"/>
      <point x="145.67698215438566" y="0.0" type="line"/>
    </contour>
    <contour>
      <point x="230.32161325265793" y="608.3906126923167" type="line"/>
      <point x="264.5336589417452" y="774.9915429731997"/>
      <point x="351.0135637918032" y="1002.6501266569992"/>
      <point x="556.269495020868" y="998.3303134597465" type="curve" smooth="yes"/>
      <point x="716.0630595706598" y="994.9673005380498"/>
      <point x="732.3659981250966" y="847.1823603841581"/>
      <point x="718.283520088619" y="717.2899319517118" type="curve"/>
      <point x="598.8337784365774" y="0.0" type="line"/>
      <point x="709.2272972800461" y="0.0" type="line"/>
      <point x="829.7437399588922" y="720.2498572016442" type="line"/>
      <point x="848.3845291902418" y="896.4009182994948"/>
      <point x="809.8122474748977" y="1096.838757416813"/>
      <point x="597.786846122076" y="1102.750463147841" type="curve" smooth="yes"/>
      <point x="340.11088608475967" y="1109.9350006607112"/>
      <point x="225.7829750607467" y="847.1847732364648"/>
      <point x="188.3971761895292" y="632.6681000462838" type="curve"/>
    </contour>
    <contour>
      <point x="831.834615064784" y="702.2897698681038" type="line"/>
      <point x="860.8682467873564" y="845.9204710416815"/>
      <point x="959.395071413587" y="999.9969579543392"/>
      <point x="1122.9254353564424" y="998.0234096012441" type="curve" smooth="yes"/>
      <point x="1287.0006729214501" y="996.0432855002957"/>
      <point x="1295.2285849005032" y="837.6251587296236"/>
      <point x="1281.1471225028627" y="708.0116991700546" type="curve"/>
      <point x="1163.2611685247912" y="0.0" type="line"/>
      <point x="1274.7690800218043" y="0.0" type="line"/>
      <point x="1392.9526975715899" y="706.2812175159004" type="line"/>
      <point x="1412.7648505717282" y="890.2317705884002"/>
      <point x="1379.3187057551727" y="1097.715339800589"/>
      <point x="1156.2370373569481" y="1103.1516809592126" type="curve" smooth="yes"/>
      <point x="927.0430528354527" y="1108.7369749025004"/>
      <point x="796.468528393618" y="898.48134748434"/>
      <point x="757.8698002549822" y="697.8615613526975" type="curve"/>
    </contour>
  </outline>
</glyph>
<glyph name="n" format="2">
  <advance width="957"/>
  <unicode hex="006E"/>
  <anchor x="607.129623826291" y="1290" name="top"/>
  <anchor x="381.1185825253454" y="10" name="bottom"/>
  <anchor x="607.129623826291" y="1290" name="marktop"/>
  <anchor x="1110.7720635163637" y="1600" name="top_dd"/>
  <anchor x="763.9984620390217" y="-407" name="bottom_dd"/>
  <anchor x="1057.2096238262911" y="1290" name="top0315"/>
  <anchor x="607.129623826291" y="1290" name="parent_top"/>
  <outline>
    <contour>
      <point x="297.4341018204897" y="852.2708444893367" type="line"/>
      <point x="332.6201014088835" y="1081.933898978504" type="line"/>
      <point x="227.28523844140318" y="1081.931771268588" type="line"/>
      <point x="39.03500713085437" y="0.0" type="line"/>
      <point x="149.5650177528522" y="0.0" type="line"/>
    </contour>
    <contour>
      <point x="230.60389403013613" y="608.4742839918664" type="line"/>
      <point x="265.24406373886086" y="770.3793376158264"/>
      <point x="371.3989371921687" y="1002.7187567987484"/>
      <point x="568.5719410632884" y="997.9335448555476" type="curve" smooth="yes"/>
      <point x="729.8157072205695" y="994.020303283761"/>
      <point x="733.2106281304166" y="832.695924942153"/>
      <point x="719.4328321680213" y="707.1642941512486" type="curve"/>
      <point x="601.704266752979" y="0.0" type="line"/>
      <point x="712.1525322001952" y="0.0" type="line"/>
      <point x="830.1385625004366" y="705.2866496734802" type="line"/>
      <point x="849.3583077879528" y="883.2585033243654"/>
      <point x="823.4643027619454" y="1097.1085430236233"/>
      <point x="603.4302739017195" y="1102.8956437599804" type="curve" smooth="yes"/>
      <point x="351.1246072156141" y="1109.5315187518154"/>
      <point x="230.14848092799429" y="842.4397677752191"/>
      <point x="192.26846371435505" y="632.7073537028118" type="curve"/>
    </contour>
  </outline>
</glyph>
<glyph name="p" format="2">
  <advance width="966"/>
  <unicode hex="0070"/>
  <anchor x="634.5018031911274" y="1280" name="top"/>
  <anchor x="21.948462039021678" y="-407" name="bottom"/>
  <anchor x="634.5018031911274" y="1280" name="marktop"/>
  <anchor x="1119.5020635163637" y="1600" name="top_dd"/>
  <anchor x="772.7284620390217" y="-407" name="bottom_dd"/>
  <anchor x="1064.2118031911273" y="1280" name="top0315"/>
  <anchor x="634.5018031911274" y="1280" name="parent_top"/>
  <outline>
    <contour>
      <point x="299.1706958506606" y="867.5981691223888" type="line"/>
      <point x="328.7981891151008" y="1081.9481747299153" type="line"/>
      <point x="226.29694148695688" y="1081.9307158047668" type="line"/>
      <point x="-34.014050272504164" y="-415.92824519746483" type="line"/>
      <point x="76.5120828042936" y="-415.93367917541445" type="line"/>
    </contour>
    <contour>
      <point x="857.1128749811953" y="591.3407014705293" type="line" smooth="yes"/>
      <point x="882.0324115738188" y="806.4203713093148"/>
      <point x="869.9253467938042" y="1096.2577006342763"/>
      <point x="592.1308911470826" y="1103.2608352884574" type="curve" smooth="yes"/>
      <point x="363.79315188571195" y="1109.0171774406288"/>
      <point x="231.0785034479339" y="895.4530357691474"/>
      <point x="191.0911472851816" y="693.6519753308079" type="curve" smooth="yes"/>
      <point x="140.6845422025499" y="360.94960680974975" type="line"/>
      <point x="129.73385321696367" y="172.38427771917964"/>
      <point x="226.70104262044023" y="-14.09879228754649"/>
      <point x="430.9151302934363" y="-21.113987359781476" type="curve" smooth="yes"/>
      <point x="717.3132829547629" y="-30.952382605383413"/>
      <point x="812.3746187933531" y="256.4979181491604"/>
      <point x="844.0354911987919" y="491.4798842234754" type="curve" smooth="yes"/>
    </contour>
    <contour>
      <point x="734.8011908368708" y="489.64433926919185" type="line" smooth="yes"/>
      <point x="710.5546752449607" y="303.2039840626961"/>
      <point x="639.2208319870454" y="73.69334068204502"/>
      <point x="410.8385618865077" y="82.53149242338395" type="curve" smooth="yes"/>
      <point x="276.65530281931035" y="87.72424229955087"/>
      <point x="177.81876893099212" y="197.9072944939121"/>
      <point x="180.1610799291417" y="333.68242189965497" type="curve"/>
      <point x="241.99169589137028" y="714.6007475292155" type="line"/>
      <point x="278.5573039065856" y="862.3024531054468"/>
      <point x="398.68721397297554" y="1001.5011627137159"/>
      <point x="559.6086174385935" y="998.0181607167646" type="curve" smooth="yes"/>
      <point x="774.3870699582595" y="993.3694703442129"/>
      <point x="765.5229005449231" y="750.5635486492287"/>
      <point x="747.5651588789424" y="593.0643725506123" type="curve" smooth="yes"/>
    </contour>
  </outline>
</glyph>
<glyph name="u" format="2">
  <advance width="956"/>
  <unicode hex="0075"/>
  <guideline x="0.0" y="202.0" angle="0.0" identifier="i3uEHnqSNd"/>
  <guideline x="0.0" y="547.0" angle="0.0" identifier="fXHgOV2hDV"/>
  <anchor x="605.5351879533237" y="1292" name="top"/>
  <anchor x="1109.802063516364" y="1600" name="top_dd"/>
  <anchor x="763.0284620390216" y="-407" name="bottom_dd"/>
  <anchor x="779.5102314298836" y="654" name="rhotichook"/>
  <anchor x="1056.5851879533238" y="1292" name="top0315"/>
  <anchor x="373.57076189018176" y="0" name="bottom"/>
  <anchor x="605.5351879533237" y="1292" name="parent_top"/>
  <outline>
    <contour>
      <point x="644.281720789411" y="254.41174064972478" type="line"/>
      <point x="603.6869878968241" y="0.0" type="line"/>
      <point x="710.2440912758063" y="0.0" type="line"/>
      <point x="898.4790885123361" y="1081.929364234885" type="line"/>
      <point x="787.9492707495419" y="1081.9343010176156" type="line"/>
    </contour>
    <contour>
      <point x="699.6239512855326" y="450.6154091112333" type="line"/>
      <point x="666.2015499088185" y="268.160794009483"/>
      <point x="578.1537184321778" y="78.0967515337694"/>
      <point x="362.1903761774641" y="86.39201691268201" type="curve" smooth="yes"/>
      <point x="207.5668229549882" y="92.33118878518464"/>
      <point x="205.83022634939346" y="269.9474289846918"/>
      <point x="218.26243400526255" y="385.8756607546762" type="curve"/>
      <point x="333.8424825582694" y="1081.934888872344" type="line"/>
      <point x="223.4240437027392" y="1081.9204343851802" type="line"/>
      <point x="107.25117314309382" y="388.7009617179138" type="line"/>
      <point x="87.26858032243771" y="208.35242217916658"/>
      <point x="115.89564341182805" y="-15.948610778381383"/>
      <point x="339.72028488412593" y="-21.9144698781975" type="curve" smooth="yes"/>
      <point x="614.7878558607139" y="-29.246166516157253"/>
      <point x="716.2124015995965" y="221.00030858929884"/>
      <point x="748.6353797421664" y="453.15040707006136" type="curve"/>
    </contour>
  </outline>
</glyph>
<glyph name="v" format="2">
  <advance width="843"/>
  <unicode hex="0076"/>
  <guideline x="0.0" y="901.0" angle="0.0" identifier="98hHkrZ8Ph"/>
  <guideline x="0.0" y="555.0" angle="0.0" identifier="ua3h7wcFvw"/>
  <anchor x="532.7442238707009" y="1280" name="top"/>
  <anchor x="332.93780575924484" y="10" name="bottom"/>
  <anchor x="979.3303292216189" y="1600" name="top_dd"/>
  <anchor x="666.6390684738296" y="-407" name="bottom_dd"/>
  <anchor x="929.4742238707009" y="1280" name="top0315"/>
  <anchor x="532.7442238707009" y="1280" name="parent_top"/>
  <outline>
    <contour>
      <point x="330.13514072358436" y="121.41122287836257" type="line"/>
      <point x="290.3978732138317" y="0.0" type="line"/>
      <point x="374.0407696407246" y="0.0" type="line"/>
      <point x="870.7098347176707" y="1081.7430275552927" type="line"/>
      <point x="753.4948588250269" y="1081.7691198221685" type="line"/>
    </contour>
    <contour>
      <point x="236.09437049786158" y="1082.02392847274" type="line"/>
      <point x="125.66015825162026" y="1082.01827074119" type="line"/>
      <point x="285.28459383976343" y="0.0" type="line"/>
      <point x="362.6346089855128" y="0.0" type="line"/>
      <point x="365.21304041851334" y="107.57924523547027" type="line"/>
    </contour>
  </outline>
</glyph>
<glyph name="w" format="2">
  <advance width="1297"/>
  <unicode hex="0077"/>
  <anchor x="761.7051879533237" y="1292" name="top"/>
  <anchor x="543.1085825253454" y="10" name="bottom"/>
  <anchor x="761.7051879533237" y="1292" name="marktop"/>
  <anchor x="1450.2720635163637" y="1600" name="top_dd"/>
  <anchor x="1103.4984620390217" y="-407" name="bottom_dd"/>
  <anchor x="1397.0551879533236" y="1292" name="top0315"/>
  <anchor x="761.7051879533237" y="1292" name="parent_top"/>
  <outline>
    <contour>
      <point x="321.7112906962564" y="250.51071434550929" type="line"/>
      <point x="233.54899513516534" y="0.0" type="line"/>
      <point x="313.37735573703173" y="0.0" type="line"/>
      <point x="685.1754459342374" y="856.8768852228781" type="line"/>
      <point x="762.7036136774857" y="1081.7820513943454" type="line"/>
      <point x="678.7893643195627" y="1081.427448885942" type="line"/>
    </contour>
    <contour>
      <point x="260.18827310156973" y="1082.0273568385276" type="line"/>
      <point x="152.28082679116443" y="1082.0244582873017" type="line"/>
      <point x="220.4542048440823" y="0.0" type="line"/>
      <point x="296.97235403185397" y="0.0" type="line"/>
      <point x="304.86104122049795" y="250.3149044433255" type="line"/>
    </contour>
    <contour>
      <point x="869.37007306215" y="256.0788573853478" type="line"/>
      <point x="783.5880849599924" y="0.0" type="line"/>
      <point x="865.0641169846649" y="0.0" type="line"/>
      <point x="1310.6201987400357" y="1081.776627671001" type="line"/>
      <point x="1193.8274950269165" y="1081.8072698779379" type="line"/>
    </contour>
    <contour>
      <point x="774.2338226079543" y="1082.0210813337555" type="line"/>
      <point x="695.9636149849238" y="1081.9982567511179" type="line"/>
      <point x="692.2168062856106" y="868.0734115017729" type="line"/>
      <point x="772.5462268914532" y="0.0" type="line"/>
      <point x="846.6341008337452" y="0.0" type="line"/>
      <point x="843.5116036583744" y="251.66929248460232" type="line"/>
    </contour>
  </outline>
</glyph>
<glyph name="y" format="2">
  <advance width="831"/>
  <unicode hex="0079"/>
  <anchor x="557.0351879533237" y="1292" name="top"/>
  <anchor x="470.43119585459624" y="-158" name="bottom"/>
  <anchor x="557.0351879533237" y="1292" name="marktop"/>
  <anchor x="984.6720635163638" y="1600" name="top_dd"/>
  <anchor x="637.8984620390216" y="-407" name="bottom_dd"/>
  <anchor x="634.0102314298836" y="654" name="rhotichook"/>
  <anchor x="931.4551879533237" y="1292" name="top0315"/>
  <anchor x="557.0351879533237" y="1292" name="parent_top"/>
  <outline>
    <contour>
      <point x="322.5513835097883" y="124.63815271851375" type="line"/>
      <point x="205.65227547446824" y="-134.174665367599" type="line" smooth="yes"/>
      <point x="162.98284940407763" y="-233.69868756026113"/>
      <point x="101.07664073910891" y="-338.42110067512675"/>
      <point x="-22.472795880411695" y="-332.3045632034582" type="curve" smooth="yes"/>
      <point x="-38.95637179572625" y="-331.4885140776042"/>
      <point x="-55.42304679981385" y="-327.13755523286795"/>
      <point x="-71.47508359372759" y="-323.66675495740026" type="curve"/>
      <point x="-82.94173618411745" y="-425.37757152310036" type="line"/>
      <point x="-55.38891476159242" y="-433.0768855438045"/>
      <point x="-27.002424332568896" y="-440.0330309814585"/>
      <point x="1.8187192034887119" y="-440.40601463108214" type="curve" smooth="yes"/>
      <point x="158.09708853423544" y="-442.4284630629873"/>
      <point x="237.120987603239" y="-298.71200840472574"/>
      <point x="291.393435390022" y="-173.80751030606297" type="curve" smooth="yes"/>
      <point x="876.376440556068" y="1081.8267783574315" type="line"/>
      <point x="753.8866509065145" y="1081.7478905382864" type="line"/>
    </contour>
    <contour>
      <point x="245.1847501965562" y="1082.0208412031711" type="line"/>
      <point x="129.44283776693493" y="1082.0232276865136" type="line"/>
      <point x="276.7118353532323" y="-24.017472496248992" type="line"/>
      <point x="362.9443337276676" y="24.54000670696024" type="line"/>
      <point x="355.9522872592548" y="148.40441289258123" type="line"/>
    </contour>
  </outline>
</glyph>
<glyph name="braceleft" format="2">
  <advance width="593"/>
  <unicode hex="007B"/>
  <outline>
    <contour>
      <point x="678.5696446969165" y="1601.2295030310636" type="line"/>
      <point x="464.3526065771529" y="1520.7234155663357"/>
      <point x="369.23545678701595" y="1351.115384784153"/>
      <point x="339.9233151134971" y="1131.6776450445298" type="curve" smooth="yes"/>
      <point x="309.4159324984337" y="905.7699809595389" type="line" smooth="yes"/>
      <point x="290.63573683154203" y="768.0842319471676"/>
      <point x="231.04622662487176" y="653.9922900536194"/>
      <point x="79.89031090620702" y="646.5663378526654" type="curve"/>
      <point x="71.04761343746847" y="564.0576652582322" type="line"/>
      <point x="282.74625040595186" y="571.1104762090366"/>
      <point x="394.3583061211226" y="702.3302187823781"/>
      <point x="420.1169217245466" y="906.0035928467705" type="curve" smooth="yes"/>
      <point x="450.8571623156056" y="1132.0974887284744" type="line" smooth="yes"/>
      <point x="474.40883843540996" y="1295.4528836394916"/>
      <point x="539.4501666658144" y="1451.194932912316"/>
      <point x="701.9214535944279" y="1515.9915370818567" type="curve"/>
    </contour>
    <contour>
      <point x="424.11474671836925" y="-322.709965424821" type="line"/>
      <point x="277.83339461978744" y="-250.51665406567133"/>
      <point x="268.8165952777421" y="-86.51117078892331"/>
      <point x="286.85300785503364" y="59.02831771681737" type="curve" smooth="yes"/>
      <point x="317.02387720649995" y="286.1734928666159" type="line" smooth="yes"/>
      <point x="334.49471058352026" y="462.909436845009"/>
      <point x="266.1560959382738" y="615.745063647608"/>
      <point x="73.17873173447069" y="624.4713126940709" type="curve"/>
      <point x="65.35259912191881" y="541.4481409822919" type="line"/>
      <point x="206.10349966458648" y="529.8165185281058"/>
      <point x="220.10309384605958" y="407.8966644834037"/>
      <point x="206.88995681723327" y="287.13288357744887" type="curve" smooth="yes"/>
      <point x="176.5687260703521" y="59.79474025968713" type="line" smooth="yes"/>
      <point x="154.4627578824494" y="-134.3869912492268"/>
      <point x="200.67951816931455" y="-321.6000418054018"/>
      <point x="394.4988102753703" y="-402.09230187788506" type="curve"/>
    </contour>
  </outline>
</glyph>
<glyph name="bar" format="2">
  <advance width="439"/>
  <unicode hex="007C"/>
  <guideline x="0.0" y="901.0" angle="0.0" identifier="sy2G1Ja8mH"/>
  <guideline x="0.0" y="555.0" angle="0.0" identifier="nF4XTWflQg"/>
  <outline>
    <contour>
      <point x="407.26453564310515" y="1455.953019363729" type="line"/>
      <point x="305.4417108217578" y="1455.9567442810753" type="line"/>
      <point x="35.221752136026396" y="-269.955878924649" type="line"/>
      <point x="137.04457695741365" y="-269.9596038419879" type="line"/>
    </contour>
  </outline>
</glyph>
<glyph name="asciitilde" format="2">
  <advance width="1180"/>
  <unicode hex="007E"/>
  <outline>
    <contour>
      <point x="977.4669084061719" y="764.555329691767" type="line"/>
      <point x="959.2816543319547" y="663.7888584214595"/>
      <point x="915.4628679465395" y="527.9322168410005"/>
      <point x="789.6571574530918" y="530.21542526834" type="curve" smooth="yes"/>
      <point x="716.3465202918891" y="531.5459170554263"/>
      <point x="670.7363251017911" y="592.4303840554572"/>
      <point x="628.3894612188036" y="643.9748610460664" type="curve" smooth="yes"/>
      <point x="568.4869138746408" y="716.8880638228255"/>
      <point x="496.83200792473707" y="788.2785093685021"/>
      <point x="396.42032546593197" y="790.2852833357975" type="curve" smooth="yes"/>
      <point x="210.53212852714657" y="794.0003450229402"/>
      <point x="131.90161675482955" y="605.1745467456226"/>
      <point x="111.98535458011102" y="449.4662738225813" type="curve"/>
      <point x="207.75330653252496" y="450.78258588329965" type="line"/>
      <point x="225.48099995827226" y="551.5547656081998"/>
      <point x="265.3601706580082" y="682.5802580043992"/>
      <point x="391.1172425182166" y="679.5933676183841" type="curve" smooth="yes"/>
      <point x="464.47641563238085" y="677.85099396369"/>
      <point x="509.6426718453128" y="618.8200232407288"/>
      <point x="552.3508700006095" y="567.0502821303878" type="curve" smooth="yes"/>
      <point x="612.7330846194075" y="493.8565686630699"/>
      <point x="682.7096733649201" y="422.85111063846483"/>
      <point x="783.7588586544573" y="421.0204490882403" type="curve" smooth="yes"/>
      <point x="967.5998642716551" y="417.6898862601116"/>
      <point x="1046.5589827165852" y="612.6121576138695"/>
      <point x="1064.3757453219832" y="765.7685423937744" type="curve"/>
    </contour>
  </outline>
</glyph>
<glyph name="cent" format="2">
  <advance width="949"/>
  <unicode hex="00A2"/>
  <outline>
    <contour>
      <point x="669.9034629725365" y="1317.8949456682924" type="line"/>
      <point x="559.3499034032153" y="1317.8959591852188" type="line"/>
      <point x="511.578543924835" y="1049.1034428016196" type="line"/>
      <point x="622.126091574667" y="1049.0978244018922" type="line"/>
    </contour>
    <contour>
      <point x="445.53867463124527" y="22.90020601446678" type="line"/>
      <point x="334.9863256217484" y="22.899369158735084" type="line"/>
      <point x="287.39142645954695" y="-244.8921712418838" type="line"/>
      <point x="397.940536741397" y="-244.89782420167057" type="line"/>
    </contour>
    <contour>
      <point x="408.56819497882634" y="83.1821908679567" type="curve" smooth="yes"/>
      <point x="190.76014585767348" y="90.68046585954491"/>
      <point x="193.02969107449894" y="360.05674297239693"/>
      <point x="210.80364586260225" y="518.332167059048" type="curve" smooth="yes"/>
      <point x="215.85777283520008" y="559.9691331157967" type="line" smooth="yes"/>
      <point x="239.69738043712775" y="744.1073406952546"/>
      <point x="327.5868075835701" y="1007.6402970244354"/>
      <point x="556.8827439728528" y="998.6286025103636" type="curve" smooth="yes"/>
      <point x="709.3616634160952" y="992.635938778524"/>
      <point x="755.9191036628642" y="847.0018207810913"/>
      <point x="749.8619777031619" y="716.6847123490849" type="curve"/>
      <point x="854.7471705974542" y="716.5066069470138" type="line"/>
      <point x="865.6979278846501" y="907.1391686174736"/>
      <point x="776.7005177874231" y="1095.5986497338718"/>
      <point x="564.3671041445316" y="1102.2844009486323" type="curve" smooth="yes"/>
      <point x="272.7390179249631" y="1111.4669068870521"/>
      <point x="137.39244476142005" y="805.9481615852193"/>
      <point x="107.0903789842949" y="560.2163835308584" type="curve" smooth="yes"/>
      <point x="102.09064871096267" y="517.0244673114901" type="line" smooth="yes"/>
      <point x="78.26124717640911" y="295.2127585693333"/>
      <point x="118.99551664758786" y="-13.84237969995962"/>
      <point x="401.71777569132723" y="-21.085083819119397" type="curve" smooth="yes"/>
      <point x="608.69239755031" y="-26.38730498617535"/>
      <point x="755.2990057134707" y="143.18402776402309"/>
      <point x="789.8086608382034" y="334.2316660911479" type="curve"/>
      <point x="685.8417044885375" y="333.5980438094287" type="line"/>
      <point x="651.94373878292" y="200.1505293496413"/>
      <point x="559.5821072618565" y="77.98337545951472"/>
    </contour>
  </outline>
</glyph>
<glyph name="sterling" format="2">
  <advance width="995"/>
  <unicode hex="00A3"/>
  <outline>
    <contour>
      <point x="814.1013747141658" y="0.0" type="line"/>
      <point x="833.2831901256449" y="106.91565373246716" type="line"/>
      <point x="11.7177303199947" y="106.92040284980266" type="line"/>
      <point x="-7.464085091483753" y="0.0" type="line"/>
    </contour>
    <contour>
      <point x="638.5479513414111" y="644.0787278070513" type="line"/>
      <point x="657.7328378704519" y="750.9160046341921" type="line"/>
      <point x="120.38956261850406" y="750.9207335451522" type="line"/>
      <point x="101.20467608946184" y="644.0834567180102" type="line"/>
    </contour>
    <contour>
      <point x="419.12449693884537" y="1037.3526405703492" type="line" smooth="yes"/>
      <point x="438.1351888000261" y="1182.555760608474"/>
      <point x="513.3567454133274" y="1376.4204189600034"/>
      <point x="689.9743302278304" y="1370.4066654153878" type="curve" smooth="yes"/>
      <point x="846.1239260650086" y="1365.0898381784941"/>
      <point x="876.9350312448695" y="1217.7122305431444"/>
      <point x="864.4068002127206" y="1088.1092671034712" type="curve"/>
      <point x="978.1796903188115" y="1087.7678471907498" type="line"/>
      <point x="996.5645026233778" y="1278.9305728757079"/>
      <point x="923.1179858408293" y="1469.9085037234622"/>
      <point x="705.9985032945305" y="1476.5569463078152" type="curve" smooth="yes"/>
      <point x="460.7202251404615" y="1484.067642862412"/>
      <point x="334.6801055758743" y="1252.9604066242064"/>
      <point x="306.8308207697172" y="1038.7573743536418" type="curve" smooth="yes"/>
      <point x="212.85940604376344" y="368.8530665731363" type="line" smooth="yes"/>
      <point x="200.33603313493967" y="283.3574485465112"/>
      <point x="178.37001345275283" y="147.7167553335698"/>
      <point x="90.67114844016156" y="106.60559696902169" type="curve"/>
      <point x="195.88903266503968" y="67.02866827994369" type="line"/>
      <point x="282.5767453746814" y="144.6213909133445"/>
      <point x="312.1532105840191" y="259.3140344072918"/>
      <point x="326.8739062605644" y="370.9882841141213" type="curve" smooth="yes"/>
    </contour>
  </outline>
</glyph>
<glyph name="currency" format="2">
  <advance width="1437"/>
  <unicode hex="00A4"/>
  <guideline x="0.0" y="901.0" angle="0.0" identifier="qiFwmByhLj"/>
  <guideline x="0.0" y="555.0" angle="0.0" identifier="affQKpacDg"/>
  <outline>
    <contour>
      <point x="254.33512236789403" y="599.7874371223533" type="curve" smooth="yes"/>
      <point x="290.65298477869004" y="869.4712303634412"/>
      <point x="524.8577723253105" y="1127.646136845115"/>
      <point x="810.3781785054166" y="1120.3582732555913" type="curve" smooth="yes"/>
      <point x="1076.8093576600913" y="1113.5576591921242"/>
      <point x="1216.3440412617826" y="860.0034919401542"/>
      <point x="1183.4902984502617" y="616.1435926269104" type="curve" smooth="yes"/>
      <point x="1147.2453097554276" y="347.11186176937156"/>
      <point x="913.7740349346027" y="86.2856624394442"/>
      <point x="628.1824381782109" y="93.58988864754294" type="curve" smooth="yes"/>
      <point x="361.102878925017" y="100.42065516343825"/>
      <point x="221.44909742235572" y="355.58727325760367"/>
    </contour>
    <contour>
      <point x="141.59219157208094" y="600.233818028972" type="curve" smooth="yes"/>
      <point x="104.83464590813959" y="291.21864848270934"/>
      <point x="289.09406996508466" y="-13.558201279712222"/>
      <point x="621.6442167037328" y="-20.57336289460418" type="curve" smooth="yes"/>
      <point x="973.212936511658" y="-27.989722238843296"/>
      <point x="1257.3931419138269" y="280.76242447526914"/>
      <point x="1297.280700311561" y="615.6948458662167" type="curve" smooth="yes"/>
      <point x="1334.1882566749578" y="925.6044446727831"/>
      <point x="1149.748731481229" y="1227.5966159310708"/>
      <point x="816.9485839087099" y="1234.532381253551" type="curve" smooth="yes"/>
      <point x="465.70350165910065" y="1241.8525506673209"/>
      <point x="181.4546849244534" y="935.3518167778398"/>
    </contour>
    <contour>
      <point x="1435.5224119469765" y="1170.1288966037534" type="line"/>
      <point x="1361.0790799572464" y="1265.3770260046738" type="line"/>
      <point x="1133.4665141331695" y="1064.870658053013" type="line"/>
      <point x="1207.9098461228984" y="969.6225286520856" type="line"/>
    </contour>
    <contour>
      <point x="313.27938541539464" y="174.1443087107418" type="line"/>
      <point x="240.70075074702976" y="268.4026868414796" type="line"/>
      <point x="13.059185620589645" y="67.89944433352552" type="line"/>
      <point x="85.73834451097262" y="-26.476766927463512" type="line"/>
    </contour>
    <contour>
      <point x="1146.9753283884127" y="-27.50073643107945" type="line"/>
      <point x="1242.5251612632496" y="56.334570167582534" type="line"/>
      <point x="1076.4783291776314" y="268.51030008797727" type="line"/>
      <point x="981.0222090537084" y="184.68289721505937" type="line"/>
    </contour>
    <contour>
      <point x="371.8912415319842" y="969.5339354262777" type="line"/>
      <point x="465.44170565344916" y="1052.2730042927224" type="line"/>
      <point x="299.41010016602394" y="1264.5397056469126" type="line"/>
      <point x="206.10353208973055" y="1181.7261378094486" type="line"/>
    </contour>
  </outline>
</glyph>
<glyph name="yen" format="2">
  <advance width="903"/>
  <unicode hex="00A5"/>
  <outline>
    <contour>
      <point x="811.1210817443362" y="706.9106641285368" type="line"/>
      <point x="128.27691660283648" y="706.9149183873977" type="line"/>
      <point x="111.8852092346451" y="616.0896294523598" type="line"/>
      <point x="794.7293743761428" y="616.0853751934984" type="line"/>
    </contour>
    <contour>
      <point x="760.3547024864157" y="413.9114464856449" type="line"/>
      <point x="77.51053758752435" y="413.91570358955806" type="line"/>
      <point x="61.29896632489685" y="324.0887172805708" type="line"/>
      <point x="744.1431312237869" y="324.0844601766575" type="line"/>
    </contour>
    <contour>
      <point x="449.73328257936544" y="706.7406913551165" type="line"/>
      <point x="426.48331272132634" y="616.2128548179752" type="line"/>
      <point x="509.3493833641119" y="616.3581011741439" type="line"/>
      <point x="1016.548306110144" y="1455.6631355603067" type="line"/>
      <point x="883.982914003796" y="1455.723214518772" type="line"/>
    </contour>
    <contour>
      <point x="307.1731133840751" y="1456.526329465281" type="line"/>
      <point x="188.6272433398425" y="1456.0870490319585" type="line"/>
      <point x="402.90430480094216" y="615.9597597526547" type="line"/>
      <point x="479.1857708026181" y="616.0136637823231" type="line"/>
      <point x="488.91133485173816" y="698.0269538882226" type="line"/>
    </contour>
    <contour>
      <point x="529.3897600728478" y="731.9245833383192" type="line"/>
      <point x="414.9544252081855" y="731.9282224868828" type="line"/>
      <point x="287.3443864238815" y="0.0" type="line"/>
      <point x="401.77972128857596" y="0.0" type="line"/>
    </contour>
  </outline>
</glyph>
<glyph name="brokenbar" format="2">
  <advance width="432"/>
  <unicode hex="00A6"/>
  <guideline x="0.0" y="901.0" angle="0.0" identifier="rFTxiRny7q"/>
  <guideline x="0.0" y="555.0" angle="0.0" identifier="hTna7jxEPo"/>
  <outline>
    <contour>
      <point x="122.19063222395674" y="-269.9298766526425" type="line"/>
      <point x="256.74584020455603" y="501.92616850036364" type="line"/>
      <point x="137.46527553588908" y="501.92986345083364" type="line"/>
      <point x="2.9100675552723345" y="-269.92618170217395" type="line"/>
    </contour>
    <contour>
      <point x="422.0207947155517" y="1455.9273480991058" type="line"/>
      <point x="302.74023087919977" y="1455.9310462319227" type="line"/>
      <point x="170.6251456940094" y="698.0725293289349" type="line"/>
      <point x="289.9057095303594" y="698.0688311961148" type="line"/>
    </contour>
  </outline>
</glyph>
<glyph name="copyright" format="2">
  <advance width="1589"/>
  <unicode hex="00A9"/>
  <guideline x="0.0" y="901.0" angle="0.0" identifier="Fl1TguyTNi"/>
  <guideline x="0.0" y="555.0" angle="0.0" identifier="LeAwWh9pBs"/>
  <outline>
    <contour>
      <point x="994.654671353518" y="606.0551057713959" type="line"/>
      <point x="969.9224941894939" y="472.2454723826019"/>
      <point x="900.2467964721797" y="379.36452223869105"/>
      <point x="753.7683579642811" y="384.4873250672715" type="curve" smooth="yes"/>
      <point x="596.2141230872006" y="389.99748265978036"/>
      <point x="561.9503176356332" y="548.9502521957262"/>
      <point x="573.926150146219" y="679.0209589231046" type="curve" smooth="yes"/>
      <point x="584.7005551019087" y="778.2790686607939" type="line" smooth="yes"/>
      <point x="602.3847307843901" y="923.3768200931036"/>
      <point x="686.2096727198601" y="1077.426205085774"/>
      <point x="851.6945188592684" y="1074.2197459036008" type="curve" smooth="yes"/>
      <point x="990.8784728686635" y="1071.5228967493972"/>
      <point x="1039.2715852091985" y="979.8032842469395"/>
      <point x="1028.2050912555223" y="850.9667011378989" type="curve"/>
      <point x="1126.394725243314" y="850.5183536392153" type="line"/>
      <point x="1140.3018486757042" y="1033.5655013230962"/>
      <point x="1045.9111430495016" y="1160.7410669590768"/>
      <point x="856.1045467421329" y="1164.6500563073605" type="curve" smooth="yes"/>
      <point x="634.5146977277782" y="1169.2136087672666"/>
      <point x="506.09706811321706" y="977.9996967842641"/>
      <point x="483.3446557781989" y="776.7121497840291" type="curve" smooth="yes"/>
      <point x="473.5008189986611" y="679.8966018057394" type="line" smooth="yes"/>
      <point x="457.53118062279293" y="492.2569801890743"/>
      <point x="537.404015979373" y="298.45643669236676"/>
      <point x="749.6771082771199" y="292.4324041271461" type="curve" smooth="yes"/>
      <point x="950.5948777700282" y="286.73062076282275"/>
      <point x="1066.067760183021" y="416.31223676089894"/>
      <point x="1089.5742139157792" y="606.6972512504806" type="curve"/>
    </contour>
    <contour>
      <point x="209.613065326161" y="721.9774706213638" type="curve" smooth="yes"/>
      <point x="254.33252288971153" y="1070.7759260452744"/>
      <point x="552.9142558361388" y="1395.2551333148808"/>
      <point x="919.9216264052378" y="1388.1983337586141" type="curve" smooth="yes"/>
      <point x="1268.8222574957763" y="1381.4896896928478"/>
      <point x="1457.2426053435524" y="1058.0673559812185"/>
      <point x="1415.9374858381302" y="735.9458145245186" type="curve" smooth="yes"/>
      <point x="1371.2370771299754" y="387.3458170127067"/>
      <point x="1072.8573369533274" y="59.57792719328958"/>
      <point x="705.2771946120711" y="66.71499137296345" type="curve" smooth="yes"/>
      <point x="355.8115947678992" y="73.50033728090573"/>
      <point x="168.3663733121563" y="400.26555259584575"/>
    </contour>
    <contour>
      <point x="123.28688945051323" y="722.4391482474332" type="curve" smooth="yes"/>
      <point x="80.20895265265054" y="351.52372360496685"/>
      <point x="305.857331598176" y="-14.744468565173541"/>
      <point x="704.3640415014962" y="-21.256711935743837" type="curve" smooth="yes"/>
      <point x="1120.5588922896393" y="-28.058008101040844"/>
      <point x="1456.163932117624" y="338.63649858605237"/>
      <point x="1502.2775937723482" y="735.4710080286736" type="curve" smooth="yes"/>
      <point x="1545.4661508165" y="1107.133314450502"/>
      <point x="1319.0961051667628" y="1469.7437510370112"/>
      <point x="920.8246948492977" y="1476.1724639457673" type="curve" smooth="yes"/>
      <point x="505.53479895447555" y="1482.8758813778318"/>
      <point x="169.36064399070446" y="1119.149564308856"/>
    </contour>
  </outline>
</glyph>
<glyph name="ordfeminine" format="2">
  <advance width="779"/>
  <unicode hex="00AA"/>
  <guideline x="0.0" y="1681.0" angle="0.0" identifier="1uUVZpvXX1"/>
  <guideline x="0.0" y="909.0" angle="0.0" identifier="7wtM7tMzmY"/>
  <outline>
    <contour>
      <point x="570.8643304782529" y="860.8358501233997" type="line" smooth="yes"/>
      <point x="563.6503324955975" y="808.5490608725572"/>
      <point x="562.8039450949042" y="756.8713820644267"/>
      <point x="568.51587790628" y="704.435657215382" type="curve"/>
      <point x="664.7509352270006" y="704.3419896914809" type="line"/>
      <point x="660.1027888180248" y="765.4832802755279"/>
      <point x="663.8559416905928" y="825.2137396684635"/>
      <point x="673.6669423707025" y="885.7201984213581" type="curve" smooth="yes"/>
      <point x="722.116514751289" y="1200.1053975971786" type="line"/>
      <point x="734.509167916013" y="1334.7013603929258"/>
      <point x="686.6447641459199" y="1473.9722185508358"/>
      <point x="531.6374134742064" y="1477.3895838602423" type="curve" smooth="yes"/>
      <point x="385.8532937678569" y="1480.603609460886"/>
      <point x="282.9197112913293" y="1384.341887493899"/>
      <point x="261.3907655854537" y="1244.1810268918516" type="curve"/>
      <point x="360.70617039727824" y="1238.1357896403488" type="line"/>
      <point x="379.94584377970193" y="1323.7767495627966"/>
      <point x="433.44716027914046" y="1381.4867983556942"/>
      <point x="526.7086203186832" y="1378.3954438845126" type="curve" smooth="yes"/>
      <point x="622.3270905694321" y="1375.2259611698748"/>
      <point x="629.1341660685623" y="1278.1972162402808"/>
      <point x="622.0015659678999" y="1202.8987206195713" type="curve"/>
    </contour>
    <contour>
      <point x="645.4061156703707" y="1141.3768179619226" type="line"/>
      <point x="502.5915184088352" y="1142.3068524198288" type="line" smooth="yes"/>
      <point x="347.5370978090008" y="1141.14551825499"/>
      <point x="209.10780179842888" y="1070.7544558914408"/>
      <point x="200.90273448840094" y="901.0017033936962" type="curve" smooth="yes"/>
      <point x="195.2330563984396" y="783.7030359749872"/>
      <point x="259.98755488960387" y="688.182462548478"/>
      <point x="384.4445264552579" y="688.8134566250219" type="curve" smooth="yes"/>
      <point x="488.5148008381438" y="689.3410906004738"/>
      <point x="566.539055117942" y="765.1733147985416"/>
      <point x="606.8662305947431" y="855.0760784696578" type="curve"/>
      <point x="600.9246786350852" y="937.0939848249037" type="line"/>
      <point x="574.9069285713624" y="859.6066553551359"/>
      <point x="491.12377330100225" y="786.0025844859541"/>
      <point x="406.19485819747985" y="785.1615798588797" type="curve" smooth="yes"/>
      <point x="331.44436358743445" y="784.421366566781"/>
      <point x="294.96925708800245" y="833.3874885513872"/>
      <point x="302.3321495226587" y="905.220910768626" type="curve" smooth="yes"/>
      <point x="313.334023305162" y="1012.5567508088079"/>
      <point x="403.0142791493244" y="1055.9397272925905"/>
      <point x="501.5251594167029" y="1058.0369751658855" type="curve" smooth="yes"/>
      <point x="631.6709214782684" y="1057.4958839386607" type="line"/>
    </contour>
  </outline>
</glyph>
<glyph name="registered" format="2">
  <advance width="1593"/>
  <unicode hex="00AE"/>
  <outline>
    <contour>
      <point x="839.5370563190096" y="665.7749730653691" type="line" smooth="yes"/>
      <point x="864.8886178230833" y="666.9030217203014"/>
      <point x="875.0777979901266" y="674.0890791799476"/>
      <point x="896.557593727651" y="686.3050514691063" type="curve" smooth="yes"/>
      <point x="900.9024359624889" y="688.7760466773532"/>
      <point x="905.7665833060242" y="691.2467509231948"/>
      <point x="910.4042181044193" y="693.1104879673245" type="curve" smooth="yes"/>
      <point x="1019.6322235896453" y="737.0061996671051"/>
      <point x="1123.3047143411632" y="787.1116328532808"/>
      <point x="1131.4757581794793" y="920.135896557483" type="curve" smooth="yes"/>
      <point x="1141.7444972880755" y="1087.310554547457"/>
      <point x="1016.6193985882031" y="1155.595320826849"/>
      <point x="866.0820238180995" y="1159.8289113491226" type="curve" smooth="yes"/>
      <point x="622.9495101354765" y="1161.0058129582733" type="line"/>
      <point x="491.1748553688086" y="321.0627222416265" type="line"/>
      <point x="589.114305055496" y="321.0597627415972" type="line"/>
      <point x="706.5543773024385" y="1069.0260354064749" type="line"/>
      <point x="865.7539293452721" y="1068.4219668145176" type="line" smooth="yes"/>
      <point x="970.1376965217673" y="1065.7919931187166"/>
      <point x="1049.8712325679403" y="1035.5547656155563"/>
      <point x="1035.1993508414153" y="916.6423233735935" type="curve" smooth="yes"/>
      <point x="1022.071570236949" y="810.244488249859"/>
      <point x="923.411510452771" y="760.8114532020347"/>
      <point x="825.2520595342392" y="758.1166697217556" type="curve" smooth="yes"/>
      <point x="615.3226902668066" y="758.8476617779733" type="line"/>
      <point x="605.0322954446616" y="665.9599115829984" type="line"/>
    </contour>
    <contour>
      <point x="820.2556194801152" y="665.5475109057382" type="line"/>
      <point x="924.6893631366754" y="658.1425688099058"/>
      <point x="965.8264247704354" y="618.2263192272206"/>
      <point x="956.0728541156628" y="510.48972864074454" type="curve" smooth="yes"/>
      <point x="950.772014493977" y="465.61931519718195" type="line" smooth="yes"/>
      <point x="945.5912643091601" y="417.37757632454685"/>
      <point x="940.7668428104106" y="368.9561085292483"/>
      <point x="948.0780518154646" y="320.80158363517864" type="curve"/>
      <point x="1046.349594884039" y="320.699859541733" type="line"/>
      <point x="1048.4092647344319" y="337.0339217690144" type="line"/>
      <point x="1047.1979634618851" y="380.00947439971503"/>
      <point x="1043.7995974389144" y="419.84525464992623"/>
      <point x="1048.4005012758375" y="463.44858414375227" type="curve" smooth="yes"/>
      <point x="1053.667188964822" y="509.8878014503781" type="line" smooth="yes"/>
      <point x="1066.0398812239812" y="656.3382710442713"/>
      <point x="981.8435068699906" y="727.9615158779532"/>
      <point x="840.7770184524919" y="732.2692692422454" type="curve"/>
    </contour>
    <contour>
      <point x="204.20696083517362" y="721.8915254195555" type="curve" smooth="yes"/>
      <point x="249.05313690961998" y="1071.4747444132165"/>
      <point x="548.4974767875228" y="1395.3724031070144"/>
      <point x="915.9943623380653" y="1388.319347512664" type="curve" smooth="yes"/>
      <point x="1265.0375481108526" y="1381.620458104672"/>
      <point x="1453.7586675594346" y="1058.2017522550584"/>
      <point x="1412.3959359670139" y="735.8532831832761" type="curve" smooth="yes"/>
      <point x="1367.634940556504" y="387.021429260195"/>
      <point x="1068.9641198240301" y="59.310177958604314"/>
      <point x="701.2264038411163" y="66.41041116263095" type="curve" smooth="yes"/>
      <point x="351.3034038506656" y="73.16668008855272"/>
      <point x="162.8260813919738" y="399.32085592639277"/>
    </contour>
    <contour>
      <point x="118.89168641770294" y="722.36359139142" type="curve" smooth="yes"/>
      <point x="75.69814048769763" y="350.87784105406837"/>
      <point x="301.3086677289233" y="-15.031697376387527"/>
      <point x="700.316373817454" y="-21.525677330481905" type="curve" smooth="yes"/>
      <point x="1116.324709792551" y="-28.296348055219806"/>
      <point x="1451.6154162275732" y="338.9049337054091"/>
      <point x="1497.723418353732" y="735.3803447658981" type="curve" smooth="yes"/>
      <point x="1540.897419591282" y="1106.6267466582995"/>
      <point x="1314.986184198242" y="1469.8146292929257"/>
      <point x="916.894955150138" y="1476.2561659589096" type="curve" smooth="yes"/>
      <point x="501.11295384329645" y="1482.9839580101898"/>
      <point x="165.0798551561949" y="1119.6045715214525"/>
    </contour>
  </outline>
</glyph>
<glyph name="macron" format="2">
  <advance width="761"/>
  <unicode hex="00AF"/>
  <anchor x="534.5025157235326" y="1559" name="mkmktop_acc"/>
  <outline>
    <contour>
      <point x="778.3319719693213" y="1440.9276862360618" type="line"/>
      <point x="262.32174401434696" y="1440.9305278594306" type="line"/>
      <point x="246.2263280152103" y="1342.0721140115345" type="line"/>
      <point x="762.2365559701807" y="1342.069272388159" type="line"/>
    </contour>
  </outline>
</glyph>
<glyph name="degree" format="2">
  <advance width="751"/>
  <unicode hex="00B0"/>
  <outline>
    <contour>
      <point x="247.25768189611932" y="1217.3857475714112" type="curve" smooth="yes"/>
      <point x="241.823364887517" y="1091.140069959909"/>
      <point x="333.07975982709405" y="979.6238796109691"/>
      <point x="462.9488376479643" y="977.9073356440362" type="curve" smooth="yes"/>
      <point x="602.8925825358094" y="976.0576298092988"/>
      <point x="714.4385119051576" y="1099.080191434494"/>
      <point x="720.4495201910769" y="1234.7639888317317" type="curve" smooth="yes"/>
      <point x="725.9208159525596" y="1358.2650971799542"/>
      <point x="639.0697936689281" y="1474.5441053938669"/>
      <point x="510.17029777134496" y="1476.9000230555973" type="curve" smooth="yes"/>
      <point x="369.2405844851223" y="1479.475819014159"/>
      <point x="253.15835153522733" y="1354.4653540374316"/>
    </contour>
    <contour>
      <point x="336.5460053363385" y="1218.518298930154" type="curve" smooth="yes"/>
      <point x="344.0362626562625" y="1306.0849631318504"/>
      <point x="416.5978914943057" y="1384.8671049775808"/>
      <point x="507.27202323578615" y="1384.7563610575564" type="curve" smooth="yes"/>
      <point x="590.9464824697967" y="1384.6541661156969"/>
      <point x="638.7817684802254" y="1311.9836237646618"/>
      <point x="631.9382264013828" y="1233.34249395582" type="curve" smooth="yes"/>
      <point x="624.4189684963455" y="1146.9365173191993"/>
      <point x="554.8596203170032" y="1071.1276083843184"/>
      <point x="465.3373326450718" y="1071.2202849388932" type="curve" smooth="yes"/>
      <point x="383.4587856637347" y="1071.3050484299204"/>
      <point x="329.7505480691903" y="1139.0743627349982"/>
    </contour>
  </outline>
</glyph>
<glyph name="plusminus" format="2">
  <advance width="925"/>
  <unicode hex="00B1"/>
  <outline>
    <contour>
      <point x="874.9531500210038" y="829.9348778568249" type="line"/>
      <point x="125.16758662771542" y="829.9383859948052" type="line"/>
      <point x="108.52277805860334" y="727.0637300136071" type="line"/>
      <point x="858.3083414518879" y="727.0602218756272" type="line"/>
    </contour>
    <contour>
      <point x="628.0116870287249" y="1266.951606329384" type="line"/>
      <point x="526.1931179080113" y="1266.955134221858" type="line"/>
      <point x="372.7680944315556" y="289.047002435149" type="line"/>
      <point x="474.5866635522682" y="289.04347454267304" type="line"/>
    </contour>
    <contour>
      <point x="730.5517426911764" y="103.93492992622046" type="line"/>
      <point x="46.73239127315617" y="103.93843555328057" type="line"/>
      <point x="29.926723389404458" y="0.0" type="line"/>
      <point x="713.746074807426" y="0.0" type="line"/>
    </contour>
  </outline>
</glyph>
<glyph name="threesuperior" format="2">
  <advance width="653"/>
  <unicode hex="00B3"/>
  <outline>
    <contour>
      <point x="322.36035683627017" y="1106.9403562148611" type="line"/>
      <point x="316.051905506842" y="1048.2961017519606" type="line"/>
      <point x="400.8122360883257" y="1047.856449152232" type="line" smooth="yes"/>
      <point x="522.5556055237198" y="1050.2510947350434"/>
      <point x="645.6115220690077" y="1117.9067436343653"/>
      <point x="652.2344640332619" y="1251.6245064908376" type="curve" smooth="yes"/>
      <point x="658.6644277854292" y="1381.446022794104"/>
      <point x="572.4038637264089" y="1465.7353608416197"/>
      <point x="444.2167385308551" y="1467.0511179370073" type="curve" smooth="yes"/>
      <point x="309.35967887667715" y="1468.4353375521396"/>
      <point x="215.47205387334674" y="1376.7060099504693"/>
      <point x="196.09995344258607" y="1247.4844476155986" type="curve"/>
      <point x="292.5848776987201" y="1248.0555240752994" type="line"/>
      <point x="312.96685147807796" y="1321.6990025408231"/>
      <point x="363.16516275250535" y="1378.4322183048585"/>
      <point x="445.055931938717" y="1378.085976549944" type="curve" smooth="yes"/>
      <point x="521.5843269326715" y="1377.7624074096514"/>
      <point x="560.5654204049995" y="1323.2614379961428"/>
      <point x="553.035165533231" y="1249.8353246717757" type="curve" smooth="yes"/>
      <point x="543.8301078710133" y="1160.0785211408224"/>
      <point x="471.56867746393095" y="1110.182841617654"/>
      <point x="385.8739581379858" y="1106.8775011360333" type="curve" smooth="yes"/>
    </contour>
    <contour>
      <point x="312.1381263695006" y="1024.647639752289" type="line"/>
      <point x="380.4388720518049" y="1024.0621384746419" type="line" smooth="yes"/>
      <point x="464.62141021906496" y="1020.8390422578207"/>
      <point x="518.2681902357141" y="981.3799092499414"/>
      <point x="509.60822224979256" y="891.248324054324" type="curve" smooth="yes"/>
      <point x="501.2707189865441" y="804.4729009913423"/>
      <point x="436.43398116548985" y="742.9946779152777"/>
      <point x="348.4391768760735" y="743.9301146403454" type="curve" smooth="yes"/>
      <point x="261.8403918819555" y="744.8507108560414"/>
      <point x="219.6105222342054" y="804.4283209807468"/>
      <point x="224.43807135487043" y="885.7788810121448" type="curve"/>
      <point x="129.34654160820298" y="886.1015721618448" type="line"/>
      <point x="122.54233552804172" y="751.765934130456"/>
      <point x="204.9997524581146" y="656.6715739843454"/>
      <point x="342.4337113953559" y="653.8328437221475" type="curve" smooth="yes"/>
      <point x="483.0400394906502" y="650.9285874400235"/>
      <point x="595.6427378994571" y="745.3896081791747"/>
      <point x="602.3119369555948" y="888.384976846288" type="curve" smooth="yes"/>
      <point x="608.4753336707516" y="1020.5353562407101"/>
      <point x="515.6851370088679" y="1079.4661064262964"/>
      <point x="393.6475373311308" y="1082.94455359229" type="curve" smooth="yes"/>
      <point x="318.6587720981181" y="1083.267501267219" type="line"/>
    </contour>
  </outline>
</glyph>
<glyph name="acute" format="2">
  <advance width="560"/>
  <unicode hex="00B4"/>
  <anchor x="344.82972691706766" y="1593" name="mkmktop_acc"/>
  <outline>
    <contour>
      <point x="218.48175670880636" y="1256.4984787647568" type="line"/>
      <point x="329.68501028463226" y="1256.502007785725" type="line"/>
      <point x="599.3185695808394" y="1535.4822771085348" type="line"/>
      <point x="448.2219910694172" y="1535.5643453368582" type="line"/>
    </contour>
  </outline>
</glyph>
<glyph name="mu" format="2">
  <advance width="971"/>
  <unicode hex="00B5"/>
  <guideline x="0.0" y="202.0" angle="0.0" identifier="RvikxOAbti"/>
  <guideline x="0.0" y="547.0" angle="0.0" identifier="QXtZ9PeYJw"/>
  <outline>
    <contour>
      <point x="796.6778326077982" y="1081.9321167869336" type="line"/>
      <point x="653.3573928098807" y="256.5054043802774" type="line"/>
      <point x="618.4289575019106" y="0.0" type="line"/>
      <point x="718.9843898204391" y="0.0" type="line"/>
      <point x="907.2080463776053" y="1081.9269321103488" type="line"/>
    </contour>
    <contour>
      <point x="715.3744548567115" y="502.7970840255934" type="line"/>
      <point x="682.3498706978635" y="311.91476067237176"/>
      <point x="622.4572870336048" y="72.71967849168261"/>
      <point x="381.8224232452938" y="81.7699856536714" type="curve" smooth="yes"/>
      <point x="201.60206247765416" y="88.54809584150529"/>
      <point x="222.74442115295082" y="325.21764764770575"/>
      <point x="236.46718773778042" y="449.68454763675174" type="curve"/>
      <point x="163.2393250245724" y="450.2284872247759" type="line"/>
      <point x="149.42684837965936" y="270.3592929708477" type="line"/>
      <point x="151.4955474853141" y="123.12557782643785"/>
      <point x="220.70451179976928" y="-16.506097814687593"/>
      <point x="381.7265714778562" y="-20.99718237516815" type="curve" smooth="yes"/>
      <point x="657.1695852255147" y="-28.6795947651687"/>
      <point x="731.2053079571092" y="291.5704541026296"/>
      <point x="761.631830215348" y="505.3078839243845" type="curve"/>
    </contour>
    <contour>
      <point x="234.06477853504538" y="1081.929941134414" type="line"/>
      <point x="-26.25779010868304" y="-415.926694303189" type="line"/>
      <point x="82.35254575024426" y="-415.93050217092065" type="line"/>
      <point x="342.67511439393695" y="1081.9261332666777" type="line"/>
    </contour>
  </outline>
</glyph>
<glyph name="periodcentered" format="2">
  <advance width="454"/>
  <unicode hex="00B7"/>
  <guideline x="0.0" y="901.0" angle="0.0" identifier="OuzyapJ1n0"/>
  <guideline x="0.0" y="555.0" angle="0.0" identifier="SkFUwu7lMt"/>
  <outline>
    <contour>
      <point x="169.98953055060957" y="717.5646661616643" type="curve" smooth="yes"/>
      <point x="166.6986937961319" y="673.6004203964446"/>
      <point x="192.9565901849176" y="632.9061290085867"/>
      <point x="240.30250745805665" y="633.9702636944312" type="curve" smooth="yes"/>
      <point x="285.96378903208193" y="634.9965349406448"/>
      <point x="316.3810158136027" y="675.4659131725979"/>
      <point x="319.6403245753682" y="718.4102274434495" type="curve" smooth="yes"/>
      <point x="322.9483749016648" y="761.9967555143044"/>
      <point x="296.6399990428128" y="803.9854728225944"/>
      <point x="249.45055296068517" y="803.0437688769258" type="curve" smooth="yes"/>
      <point x="203.23153277037738" y="802.1214305726702"/>
      <point x="173.2207881596987" y="760.7329586828405"/>
    </contour>
  </outline>
</glyph>
<glyph name="cedilla" format="2">
  <advance width="447"/>
  <unicode hex="00B8"/>
  <outline>
    <contour>
      <point x="35.77633372931116" y="0.0" type="line"/>
      <point x="-4.594902661314848" y="-127.8693225417632" type="line"/>
      <point x="60.332637292663804" y="-137.88088248230514"/>
      <point x="125.87536749773655" y="-149.14281388642706"/>
      <point x="115.46350955060824" y="-230.20106227541552" type="curve" smooth="yes"/>
      <point x="103.81981391668025" y="-320.84939590169495"/>
      <point x="15.706902681230986" y="-352.9783071452428"/>
      <point x="-64.17049732214552" y="-356.63805547408606" type="curve"/>
      <point x="-65.39615038905447" y="-438.34220235364063" type="line"/>
      <point x="66.52943096758156" y="-431.7572561428876"/>
      <point x="200.3647812774341" y="-379.5368307869334"/>
      <point x="207.5251000631477" y="-228.28781039073678" type="curve" smooth="yes"/>
      <point x="211.33101661275947" y="-147.89458111343362"/>
      <point x="180.60956072133234" y="-85.0382900325722"/>
      <point x="99.96931897105172" y="-65.69830203702993" type="curve"/>
      <point x="120.67538827552052" y="0.0" type="line"/>
    </contour>
  </outline>
</glyph>
<glyph name="multiply" format="2">
  <advance width="916"/>
  <unicode hex="00D7"/>
  <outline>
    <contour>
      <point x="84.87543141249655" y="104.3588817503111" type="line"/>
      <point x="853.0197507764458" y="892.8820785016841" type="line"/>
      <point x="791.2256891603888" y="981.7640365908868" type="line"/>
      <point x="22.948042057365726" y="192.04477722910033" type="line"/>
    </contour>
    <contour>
      <point x="658.9676342474766" y="103.96123705469809" type="line"/>
      <point x="739.9307910888651" y="179.97737433659057" type="line"/>
      <point x="237.5377666165282" y="982.0287270443672" type="line"/>
      <point x="156.3739990824143" y="905.044487417457" type="line"/>
    </contour>
  </outline>
</glyph>
<glyph name="divide" format="2">
  <advance width="988"/>
  <unicode hex="00F7"/>
  <outline>
    <contour>
      <point x="921.5792771843708" y="761.907218160487" type="line"/>
      <point x="104.86893973343707" y="761.9119980641045" type="line"/>
      <point x="83.35746105484505" y="642.0926188011555" type="line"/>
      <point x="900.0677985057831" y="642.0878388975399" type="line"/>
    </contour>
    <contour>
      <point x="501.9953195157293" y="1088.5465485642828" type="curve" smooth="yes"/>
      <point x="498.72580245680297" y="1044.605939410021"/>
      <point x="524.9763519942597" y="1003.8962890891039"/>
      <point x="572.3081105045941" y="1004.9667115457759" type="curve" smooth="yes"/>
      <point x="618.008510310122" y="1006.0002403173731"/>
      <point x="648.375619085878" y="1046.4503069329558"/>
      <point x="651.6471449443205" y="1089.4224251308017" type="curve" smooth="yes"/>
      <point x="654.9568327976662" y="1132.8958084344736"/>
      <point x="628.9832895404143" y="1175.9939770009723"/>
      <point x="581.5615380677626" y="1175.0486834851838" type="curve" smooth="yes"/>
      <point x="535.180019815355" y="1174.12412572224"/>
      <point x="505.2011999891356" y="1131.6319150995732"/>
    </contour>
    <contour>
      <point x="363.72143433302216" y="290.53871623602265" type="curve" smooth="yes"/>
      <point x="360.55578891100674" y="246.9277123672241"/>
      <point x="387.0596239717324" y="205.8940874527937"/>
      <point x="434.0787129739899" y="206.9680111338291" type="curve" smooth="yes"/>
      <point x="479.54915234302905" y="208.0065634040177"/>
      <point x="510.04736911909833" y="248.74863322669995"/>
      <point x="513.3731573027322" y="291.41500541387876" type="curve" smooth="yes"/>
      <point x="516.7870885615124" y="335.21216075448206"/>
      <point x="491.06425550797724" y="377.99283266019637"/>
      <point x="443.3325411971348" y="377.04947206498366" type="curve" smooth="yes"/>
      <point x="396.72707099679155" y="376.12837034586147"/>
      <point x="366.8707737856604" y="333.92508354614415"/>
    </contour>
  </outline>
</glyph>
<glyph name="Aogonek" format="2">
  <advance width="1090"/>
  <unicode hex="0104"/>
  <anchor x="720.898755897462" y="1606" name="parent_top"/>
  <anchor x="458.93076189018177" y="0" name="bottom"/>
  <anchor x="1243.6620635163636" y="1600" name="top_dd"/>
  <anchor x="896.8884620390215" y="-407" name="bottom_dd"/>
  <anchor x="1244.698755897462" y="1606" name="top0315"/>
  <anchor x="720.898755897462" y="1606" name="top"/>
  <outline>
    <contour>
      <point x="700.5199973770467" y="1362.3048567305143" type="line"/>
      <point x="723.3857691492911" y="1455.787031903066" type="line"/>
      <point x="639.2921226686061" y="1455.73034597414" type="line"/>
      <point x="-64.16259832877464" y="0.0" type="line"/>
      <point x="58.60166721752843" y="0.0" type="line"/>
    </contour>
    <contour>
      <point x="831.3109840575771" y="0.0" type="line"/>
      <point x="941.2247744742865" y="0.0" type="line"/>
      <point x="744.7774178833006" y="1456.0282148949045" type="line"/>
      <point x="666.6834708549749" y="1455.960854563768" type="line"/>
      <point x="656.645353348525" y="1367.9627780326437" type="line"/>
    </contour>
    <contour>
      <point x="855.288973621315" y="513.9128335606788" type="line"/>
      <point x="215.12460809993968" y="513.917557405135" type="line"/>
      <point x="195.94583081860736" y="407.08531514397885" type="line"/>
      <point x="836.1101963399908" y="407.0805912995541" type="line"/>
    </contour>
    <contour>
      <point x="869.2166433188831" y="40.46187520044017" type="line"/>
      <point x="766.4942739336088" y="-24.490187366414766"/>
      <point x="653.2949343124985" y="-120.8983249964223"/>
      <point x="648.0076193712539" y="-252.64978041566718" type="curve" smooth="yes"/>
      <point x="644.6637763663532" y="-335.9730148900327"/>
      <point x="680.8780188998796" y="-415.7713356648223"/>
      <point x="774.4085290532619" y="-415.53434901018375" type="curve" smooth="yes"/>
      <point x="818.1110127669757" y="-415.42361610177"/>
      <point x="857.0150064422255" y="-399.6142620708964"/>
      <point x="890.885412552138" y="-373.0340301943522" type="curve"/>
      <point x="886.5089230634701" y="-286.42765237055875" type="line"/>
      <point x="859.9145800701656" y="-301.7950532756486"/>
      <point x="830.7527730599544" y="-318.0710481564394"/>
      <point x="798.8559678355803" y="-317.321409215811" type="curve" smooth="yes"/>
      <point x="754.0468180771131" y="-316.2683042631643"/>
      <point x="744.00228392314" y="-280.03951697247413"/>
      <point x="747.7278779673019" y="-241.2610044540068" type="curve" smooth="yes"/>
      <point x="757.5202307037266" y="-139.33554809094704"/>
      <point x="851.4520016975953" y="-63.58375605783219"/>
      <point x="924.7259809022619" y="-3.489463668668421" type="curve"/>
    </contour>
  </outline>
</glyph>
<glyph name="aogonek" format="2">
  <advance width="936"/>
  <unicode hex="0105"/>
  <anchor x="611.1824058898073" y="1291" name="parent_top"/>
  <anchor x="326.0407618901817" y="0" name="bottom"/>
  <anchor x="1089.4320635163638" y="1600" name="top_dd"/>
  <anchor x="742.6584620390216" y="-407" name="bottom_dd"/>
  <anchor x="1036.0424058898075" y="1291" name="top0315"/>
  <anchor x="611.1824058898073" y="1291" name="top"/>
  <outline>
    <contour>
      <point x="608.3960546316483" y="193.842702774087" type="line" smooth="yes"/>
      <point x="599.1380887470793" y="129.6904889825106"/>
      <point x="593.6592524477854" y="64.22157665505601"/>
      <point x="601.243924614031" y="-0.3458835261845847" type="curve"/>
      <point x="712.9244819195405" y="0.0" type="line"/>
      <point x="714.6795514868797" y="13.204508282236345" type="line"/>
      <point x="714.0106779484462" y="85.90360032794086"/>
      <point x="711.0513522741115" y="153.75981316190786"/>
      <point x="722.8506767772853" y="226.66460120958328" type="curve" smooth="yes"/>
      <point x="813.7641819223461" y="780.1529430976841" type="line"/>
      <point x="832.7686237087364" y="974.1447823445785"/>
      <point x="733.3917372336365" y="1099.9679442390755"/>
      <point x="535.6336735339132" y="1103.451964596369" type="curve" smooth="yes"/>
      <point x="343.9158380511199" y="1106.8295706933445"/>
      <point x="181.7737445993843" y="974.9575764455568"/>
      <point x="155.21064737044333" y="784.5908809551518" type="curve"/>
      <point x="263.7437320071172" y="784.260088071631" type="line"/>
      <point x="290.6054332434874" y="913.4955286041177"/>
      <point x="387.7052256396089" y="1001.5534017339935"/>
      <point x="523.366433680544" y="999.4916999420233" type="curve" smooth="yes"/>
      <point x="660.5439127820123" y="997.4069547258661"/>
      <point x="715.6796392006635" y="916.3470664675979"/>
      <point x="702.774819005391" y="784.8557578549593" type="curve"/>
    </contour>
    <contour>
      <point x="708.5113368082114" y="630.978915501096" type="line"/>
      <point x="498.5180152819255" y="632.1455030834495" type="line" smooth="yes"/>
      <point x="275.0876336055502" y="631.8365958568562"/>
      <point x="65.43669162387955" y="519.2309894231214"/>
      <point x="48.16704692787157" y="276.75839798493365" type="curve" smooth="yes"/>
      <point x="36.19837044626879" y="108.71348138914777"/>
      <point x="121.8554893410415" y="-20.22552948945594"/>
      <point x="298.66723630482113" y="-22.803875675350405" type="curve" smooth="yes"/>
      <point x="470.37736678683046" y="-25.307827859581828"/>
      <point x="610.0543988696129" y="99.29598195874482"/>
      <point x="666.3954162776035" y="254.88942351968572" type="curve"/>
      <point x="645.4059874888637" y="321.93779410424645" type="line"/>
      <point x="587.8435311427171" y="187.6306223198439"/>
      <point x="470.6831653283234" y="82.94320412448644"/>
      <point x="317.4913121304961" y="86.11932703715728" type="curve" smooth="yes"/>
      <point x="196.2230418200939" y="88.63357909346892"/>
      <point x="149.8879259750641" y="171.63709382902428"/>
      <point x="161.08587583476378" y="285.8116970208686" type="curve" smooth="yes"/>
      <point x="179.03153841980256" y="468.7861638056734"/>
      <point x="347.11322510554294" y="537.901085528257"/>
      <point x="511.4066278997417" y="538.4836166593448" type="curve" smooth="yes"/>
      <point x="693.948874265486" y="537.1916861958988" type="line"/>
    </contour>
    <contour>
      <point x="638.3566433188831" y="40.46187520044017" type="line"/>
      <point x="535.6342739336088" y="-24.490187366414766"/>
      <point x="422.4349343124985" y="-120.8983249964223"/>
      <point x="417.1476193712539" y="-252.64978041566718" type="curve" smooth="yes"/>
      <point x="413.8037763663531" y="-335.9730148900327"/>
      <point x="450.01801889987956" y="-415.7713356648223"/>
      <point x="543.5485290532617" y="-415.53434901018375" type="curve" smooth="yes"/>
      <point x="587.2510127669757" y="-415.42361610177"/>
      <point x="626.1550064422254" y="-399.6142620708964"/>
      <point x="660.0254125521379" y="-373.0340301943522" type="curve"/>
      <point x="655.64892306347" y="-286.42765237055875" type="line"/>
      <point x="629.0545800701655" y="-301.7950532756486"/>
      <point x="599.8927730599543" y="-318.0710481564394"/>
      <point x="567.9959678355801" y="-317.321409215811" type="curve" smooth="yes"/>
      <point x="523.186818077113" y="-316.2683042631643"/>
      <point x="513.14228392314" y="-280.03951697247413"/>
      <point x="516.8678779673019" y="-241.2610044540068" type="curve" smooth="yes"/>
      <point x="526.6602307037266" y="-139.33554809094704"/>
      <point x="620.5920016975952" y="-63.58375605783219"/>
      <point x="693.8659809022619" y="-3.489463668668421" type="curve"/>
    </contour>
  </outline>
</glyph>
<glyph name="Dcroat" format="2">
  <advance width="1162"/>
  <unicode hex="0110"/>
  <anchor x="684.1054482785601" y="1612" name="parent_top"/>
  <anchor x="409.24858252534534" y="10" name="bottom"/>
  <anchor x="1315.3720635163636" y="1600" name="top_dd"/>
  <anchor x="968.5984620390216" y="-407" name="bottom_dd"/>
  <anchor x="1317.44544827856" y="1612" name="top0315"/>
  <anchor x="684.1054482785601" y="1612" name="top"/>
  <outline>
    <contour>
      <point x="425.70256480539547" y="0.0" type="line" smooth="yes"/>
      <point x="777.5933473230486" y="-3.1297153137223805"/>
      <point x="981.6698204783232" y="253.5855827997097"/>
      <point x="1031.7979429207478" y="582.168887287902" type="curve" smooth="yes"/>
      <point x="1077.4021487359335" y="874.3283743670768" type="line" smooth="yes"/>
      <point x="1115.5021147234515" y="1168.8990597079724"/>
      <point x="998.7186507573186" y="1446.7290398403134"/>
      <point x="670.3697615980684" y="1455.0632470623232" type="curve" smooth="yes"/>
      <point x="399.5977087901385" y="1456.0757485281513" type="line"/>
      <point x="380.41222713149455" y="1349.2543110767435" type="line"/>
      <point x="666.8053128176591" y="1348.0630706925454" type="line" smooth="yes"/>
      <point x="933.5672171008086" y="1340.0626216819985"/>
      <point x="995.5723007938991" y="1106.3142443306942"/>
      <point x="965.2942248644217" y="876.9279930279863" type="curve" smooth="yes"/>
      <point x="919.2216882155283" y="581.7035686866061" type="line" smooth="yes"/>
      <point x="877.5249151217209" y="313.6022283160499"/>
      <point x="718.0823501060853" y="104.52070686031303"/>
      <point x="429.70164826860344" y="105.61106132610401" type="curve" smooth="yes"/>
      <point x="171.64808243926888" y="107.04849768877354" type="line"/>
      <point x="151.48001550724018" y="0.0" type="line"/>
    </contour>
    <contour>
      <point x="458.808533579685" y="1455.9275110172482" type="line"/>
      <point x="345.34835701809965" y="1455.9311749582594" type="line"/>
      <point x="92.30701779846386" y="0.0" type="line"/>
      <point x="205.7671943600477" y="0.0" type="line"/>
    </contour>
    <contour>
      <point x="609.4675743472029" y="791.9200493474397" type="line"/>
      <point x="104.12632672574784" y="791.9247491927935" type="line"/>
      <point x="85.4838154862453" y="688.0797044641685" type="line"/>
      <point x="590.8250631076987" y="688.0750046188128" type="line"/>
    </contour>
  </outline>
</glyph>
<glyph name="Eogonek" format="2">
  <advance width="988"/>
  <unicode hex="0118"/>
  <anchor x="698.65544827856" y="1612" name="parent_top"/>
  <anchor x="421.85858252534535" y="10" name="bottom"/>
  <anchor x="1141.8120635163637" y="1600" name="top_dd"/>
  <anchor x="795.0384620390216" y="-407" name="bottom_dd"/>
  <anchor x="1143.88544827856" y="1612" name="top0315"/>
  <anchor x="698.65544827856" y="1612" name="top"/>
  <outline>
    <contour>
      <point x="824.5483821614457" y="106.91642050774904" type="line"/>
      <point x="162.0664800467976" y="106.92115971957834" type="line"/>
      <point x="142.89091388960725" y="0.0" type="line"/>
      <point x="805.3728160042516" y="0.0" type="line"/>
    </contour>
    <contour>
      <point x="428.8110919191854" y="1455.9426618485877" type="line"/>
      <point x="315.3487362665279" y="1455.9471667589585" type="line"/>
      <point x="62.305195590848186" y="0.0" type="line"/>
      <point x="175.76755124350433" y="0.0" type="line"/>
    </contour>
    <contour>
      <point x="862.8548395622664" y="803.916378052962" type="line"/>
      <point x="282.8259326367968" y="803.9210975849984" type="line"/>
      <point x="263.6476845665592" y="697.0825642353923" type="line"/>
      <point x="843.6765914920279" y="697.0778447033547" type="line"/>
    </contour>
    <contour>
      <point x="1053.415254044498" y="1455.9155705138983" type="line"/>
      <point x="395.7833665418152" y="1455.9203099403835" type="line"/>
      <point x="376.6077971256768" y="1349.0824528831683" type="line"/>
      <point x="1034.2396846283614" y="1349.0777134566947" type="line"/>
    </contour>
    <contour>
      <point x="694.616643318883" y="40.46187520044017" type="line"/>
      <point x="591.8942739336087" y="-24.490187366414766"/>
      <point x="478.69493431249845" y="-120.8983249964223"/>
      <point x="473.4076193712538" y="-252.64978041566718" type="curve" smooth="yes"/>
      <point x="470.063776366353" y="-335.9730148900327"/>
      <point x="506.2780188998795" y="-415.7713356648223"/>
      <point x="599.8085290532617" y="-415.53434901018375" type="curve" smooth="yes"/>
      <point x="643.5110127669756" y="-415.42361610177"/>
      <point x="682.4150064422254" y="-399.6142620708964"/>
      <point x="716.2854125521378" y="-373.0340301943522" type="curve"/>
      <point x="711.90892306347" y="-286.42765237055875" type="line"/>
      <point x="685.3145800701654" y="-301.7950532756486"/>
      <point x="656.1527730599543" y="-318.0710481564394"/>
      <point x="624.2559678355801" y="-317.321409215811" type="curve" smooth="yes"/>
      <point x="579.446818077113" y="-316.2683042631643"/>
      <point x="569.4022839231399" y="-280.03951697247413"/>
      <point x="573.1278779673017" y="-241.2610044540068" type="curve" smooth="yes"/>
      <point x="582.9202307037265" y="-139.33554809094704"/>
      <point x="676.8520016975951" y="-63.58375605783219"/>
      <point x="750.1259809022617" y="-3.489463668668421" type="curve"/>
    </contour>
  </outline>
</glyph>
<glyph name="eogonek" format="2">
  <advance width="910"/>
  <unicode hex="0119"/>
  <anchor x="587.8080274921386" y="1291" name="parent_top"/>
  <anchor x="387.95140312547187" y="2" name="bottom"/>
  <anchor x="1042.380329221619" y="1600" name="top_dd"/>
  <anchor x="729.6890684738296" y="-407" name="bottom_dd"/>
  <anchor x="994.2380274921387" y="1291" name="top0315"/>
  <anchor x="587.8080274921386" y="1291" name="top"/>
  <outline>
    <contour>
      <point x="395.5607585988818" y="-20.8224735186775" type="curve" smooth="yes"/>
      <point x="524.2326884750023" y="-23.091908451065414"/>
      <point x="641.0898817923287" y="24.205440774718284"/>
      <point x="724.453073123612" y="122.79646739849713" type="curve"/>
      <point x="673.1851781609049" y="197.57053953292814" type="line"/>
      <point x="596.9678577212346" y="126.74801197050324"/>
      <point x="512.0333431404667" y="80.75189616486287"/>
      <point x="405.42922236296374" y="83.52483636732516" type="curve" smooth="yes"/>
      <point x="193.7577172391367" y="89.03074385000693"/>
      <point x="163.94048040494528" y="297.7337141959832"/>
      <point x="183.1208068872234" y="469.087507366266" type="curve" smooth="yes"/>
      <point x="198.75582539907805" y="594.4068932113091" type="line" smooth="yes"/>
      <point x="223.75985487397065" y="783.847244878393"/>
      <point x="309.62689782833263" y="1008.5716946776416"/>
      <point x="537.3971239168259" y="998.7373920488611" type="curve" smooth="yes"/>
      <point x="717.21627711255" y="990.9734450161584"/>
      <point x="740.2107230090023" y="811.2514295685739"/>
      <point x="721.8605892197759" y="665.095322942942" type="curve" smooth="yes"/>
      <point x="717.4445093903943" y="635.7986862698887" type="line"/>
      <point x="163.4983895207605" y="635.9262249253026" type="line"/>
      <point x="144.8622820009324" y="532.0800416774144" type="line"/>
      <point x="812.7942777719394" y="531.9973530436245" type="line"/>
      <point x="826.0100041093942" y="625.2975216588408" type="line" smooth="yes"/>
      <point x="852.903594659621" y="846.9182333823801"/>
      <point x="812.2663337631122" y="1094.4057577063945"/>
      <point x="544.8102995760954" y="1102.405041290026" type="curve" smooth="yes"/>
      <point x="257.5217755350509" y="1110.9974904419503"/>
      <point x="120.95230780170172" y="842.4521790977593"/>
      <point x="88.19360336826618" y="593.6364924957516" type="curve" smooth="yes"/>
      <point x="72.64550922124782" y="469.72873381641415" type="line" smooth="yes"/>
      <point x="46.46912622610317" y="232.7780758045539"/>
      <point x="119.14362585279224" y="-15.947201207393846"/>
    </contour>
    <contour>
      <point x="545.479297723038" y="82.46187520044018" type="line"/>
      <point x="442.7569283377637" y="17.509812633585234"/>
      <point x="329.5575887166534" y="-78.8983249964223"/>
      <point x="324.2702737754088" y="-210.64978041566718" type="curve" smooth="yes"/>
      <point x="320.926430770508" y="-293.9730148900327"/>
      <point x="357.14067330403446" y="-373.7713356648223"/>
      <point x="450.67118345741665" y="-373.53434901018375" type="curve" smooth="yes"/>
      <point x="494.3736671711306" y="-373.42361610177"/>
      <point x="533.2776608463803" y="-357.6142620708964"/>
      <point x="567.1480669562928" y="-331.0340301943522" type="curve"/>
      <point x="562.7715774676249" y="-244.42765237055875" type="line"/>
      <point x="536.1772344743204" y="-259.7950532756486"/>
      <point x="507.01542746410917" y="-276.0710481564394"/>
      <point x="475.11862223973503" y="-275.321409215811" type="curve" smooth="yes"/>
      <point x="430.3094724812679" y="-274.2683042631643"/>
      <point x="420.26493832729483" y="-238.03951697247413"/>
      <point x="423.9905323714567" y="-199.2610044540068" type="curve" smooth="yes"/>
      <point x="433.78288510788144" y="-97.33554809094704"/>
      <point x="527.71465610175" y="-21.58375605783219"/>
      <point x="600.9886353064168" y="38.51053633133158" type="curve"/>
    </contour>
  </outline>
</glyph>
<glyph name="Hbar" format="2">
  <advance width="1193"/>
  <unicode hex="0126"/>
  <anchor x="771.40544827856" y="1612" name="top"/>
  <anchor x="494.60858252534535" y="10" name="bottom"/>
  <anchor x="1348.55544827856" y="1612" name="top0315"/>
  <anchor x="771.40544827856" y="1612" name="parent_top"/>
  <outline>
    <contour>
      <point x="1245.4029850597924" y="1124.9046559309759" type="line"/>
      <point x="130.86190495367634" y="1124.9088129932031" type="line"/>
      <point x="113.02275698634752" y="1026.0932576698383" type="line"/>
      <point x="1227.5638370924644" y="1026.089100607611" type="line"/>
    </contour>
    <contour>
      <point x="981.2020705567868" y="803.9184569172112" type="line"/>
      <point x="273.11375668244193" y="803.9230907813609" type="line"/>
      <point x="253.93992521848543" y="697.0800871622205" type="line"/>
      <point x="962.0282390928267" y="697.0754532980706" type="line"/>
    </contour>
    <contour>
      <point x="412.32072823355065" y="1455.9412977454253" type="line"/>
      <point x="298.857115343752" y="1455.9460065975873" type="line"/>
      <point x="45.81536662957397" y="0.0" type="line"/>
      <point x="159.27897951937382" y="0.0" type="line"/>
    </contour>
    <contour>
      <point x="1186.3802896992356" y="1455.9412977454567" type="line"/>
      <point x="1072.916676809391" y="1455.9460065976166" type="line"/>
      <point x="819.8749280952056" y="0.0" type="line"/>
      <point x="933.3385409850528" y="0.0" type="line"/>
    </contour>
  </outline>
</glyph>
<glyph name="Lslash" format="2">
  <advance width="923"/>
  <unicode hex="0141"/>
  <anchor x="385.396947801422" y="1573" name="top"/>
  <anchor x="417.97858252534536" y="10" name="bottom"/>
  <anchor x="1072.156947801422" y="1573" name="top0315"/>
  <anchor x="385.396947801422" y="1573" name="parent_top"/>
  <outline>
    <contour>
      <point x="576.2284608010042" y="917.7601229749914" type="line"/>
      <point x="60.21248345220643" y="730.3770330572939" type="line"/>
      <point x="42.8763050475127" y="633.2000068442406" type="line"/>
      <point x="559.076101174354" y="820.7076091856601" type="line"/>
    </contour>
    <contour>
      <point x="774.1091964263087" y="106.91415559671601" type="line"/>
      <point x="159.15961492170237" y="106.91887736728718" type="line"/>
      <point x="139.97982730725187" y="0.0" type="line"/>
      <point x="754.9294088118556" y="0.0" type="line"/>
    </contour>
    <contour>
      <point x="426.8691505416965" y="1455.928464646129" type="line"/>
      <point x="312.43817695482124" y="1455.9321327494554" type="line"/>
      <point x="59.39684578320812" y="0.0" type="line"/>
      <point x="173.82781937008406" y="0.0" type="line"/>
    </contour>
  </outline>
</glyph>
<glyph name="Eng" format="2">
  <advance width="1206"/>
  <unicode hex="014A"/>
  <anchor x="784.918755897462" y="1606" name="top"/>
  <anchor x="506.24858252534534" y="10" name="bottom"/>
  <anchor x="1360.1287558974618" y="1606" name="top0315"/>
  <anchor x="784.918755897462" y="1606" name="parent_top"/>
  <outline>
    <contour>
      <point x="311.4681032861382" y="1455.931519943893" type="line"/>
      <point x="58.427779739335406" y="0.0" type="line"/>
      <point x="172.85759536807342" y="0.0" type="line"/>
      <point x="425.897918914878" y="1455.9279032194302" type="line"/>
    </contour>
    <contour>
      <point x="332.47463117261475" y="1386.8397237439633" type="line"/>
      <point x="833.4273785384472" y="0.0" type="line"/>
      <point x="921.9803173142707" y="69.12730459474058" type="line"/>
      <point x="421.1112676424905" y="1458.2508877326818" type="line"/>
    </contour>
    <contour>
      <point x="1081.6453722281897" y="1455.9346377974198" type="line"/>
      <point x="817.639203712071" y="-87.48351751865651" type="line" smooth="yes"/>
      <point x="802.8571754497577" y="-189.29473460892547"/>
      <point x="759.957989389553" y="-336.5727088816711"/>
      <point x="631.4229603917863" y="-333.8562156538475" type="curve" smooth="yes"/>
      <point x="602.7921991523168" y="-333.25112558913213"/>
      <point x="574.9338196889149" y="-324.85123012707385"/>
      <point x="548.3318295698612" y="-315.1306499989645" type="curve"/>
      <point x="525.0715822736694" y="-418.17127562023535" type="line"/>
      <point x="557.8859520031733" y="-429.69206971806045"/>
      <point x="589.0726357097691" y="-438.60150884575035"/>
      <point x="624.1360858292982" y="-439.4468602892033" type="curve" smooth="yes"/>
      <point x="826.9006947768116" y="-444.33535113282073"/>
      <point x="909.2816593764477" y="-259.07440036994626"/>
      <point x="932.4638855166663" y="-85.72443584203859" type="curve" smooth="yes"/>
      <point x="1196.1750466425872" y="1455.937594730492" type="line"/>
    </contour>
  </outline>
</glyph>
<glyph name="eng" format="2">
  <advance width="971"/>
  <unicode hex="014B"/>
  <anchor x="607.129623826291" y="1290" name="top"/>
  <anchor x="381.1185825253454" y="10" name="bottom"/>
  <anchor x="494.32945045417443" y="-306" name="parenthesses.w1"/>
  <anchor x="381.1185825253454" y="10" name="markbottom"/>
  <anchor x="1070.789623826291" y="1290" name="top0315"/>
  <anchor x="494.32945045417443" y="-306" name="markparenthesses.w1"/>
  <anchor x="607.129623826291" y="1290" name="parent_top"/>
  <outline>
    <contour>
      <point x="298.4034518839029" y="846.4963987670113" type="line"/>
      <point x="327.6460855829092" y="1081.964222621168" type="line"/>
      <point x="229.2813624769621" y="1081.9246317796274" type="line"/>
      <point x="40.97117181303601" y="0.0" type="line"/>
      <point x="151.50352046399905" y="0.0" type="line"/>
    </contour>
    <contour>
      <point x="216.01576356402103" y="565.0162554274918" type="line"/>
      <point x="252.17155600733577" y="751.0220285290578"/>
      <point x="333.0347039533856" y="1005.3900839914861"/>
      <point x="566.6795192138285" y="998.0884424419027" type="curve" smooth="yes"/>
      <point x="744.8889301860644" y="992.5192144740952"/>
      <point x="735.3380226458728" y="791.6046399843257"/>
      <point x="720.2197573969454" y="659.9593808252072" type="curve" smooth="yes"/>
      <point x="599.2599592655731" y="-89.48683132446256" type="line" smooth="yes"/>
      <point x="584.4986699966574" y="-192.43026759330002"/>
      <point x="542.0233161214226" y="-335.5645807041391"/>
      <point x="413.18619452973724" y="-332.96188503709095" type="curve" smooth="yes"/>
      <point x="382.0863162351815" y="-332.33362264281385"/>
      <point x="351.5870791655768" y="-324.20361901211055"/>
      <point x="322.42988470451763" y="-314.19111832390655" type="curve"/>
      <point x="298.0333540340655" y="-418.05467707655475" type="line"/>
      <point x="333.4364357271166" y="-430.0548359271859"/>
      <point x="368.02750070872395" y="-438.92540456824287"/>
      <point x="405.6761545498531" y="-439.4534876318319" type="curve" smooth="yes"/>
      <point x="605.739714579917" y="-442.25970158410297"/>
      <point x="686.5924214246814" y="-260.79972701863755"/>
      <point x="709.8401589206566" y="-88.89245745109488" type="curve" smooth="yes"/>
      <point x="831.5173292900147" y="660.3245177330438" type="line" smooth="yes"/>
      <point x="852.7910234302462" y="845.6795082177593"/>
      <point x="838.2339564194444" y="1096.0608859150614"/>
      <point x="600.1340626904567" y="1102.784096562545" type="curve" smooth="yes"/>
      <point x="315.56684403854985" y="1110.8194019312361"/>
      <point x="219.10572638617808" y="789.9455805432244"/>
      <point x="185.19509622264007" y="563.7909171708562" type="curve"/>
    </contour>
  </outline>
</glyph>
<glyph name="OE" format="2">
  <advance width="1603"/>
  <unicode hex="0152"/>
  <anchor x="973.0593585961419" y="1617" name="top"/>
  <anchor x="693.4979798266654" y="-1" name="bottom"/>
  <anchor x="1756.7920635163637" y="1600" name="top_dd"/>
  <anchor x="1410.0184620390216" y="-407" name="bottom_dd"/>
  <anchor x="1759.729358596142" y="1617" name="top0315"/>
  <anchor x="973.0593585961419" y="1617" name="parent_top"/>
  <outline>
    <contour>
      <point x="687.8233281016697" y="1477.8340978829713" type="curve" smooth="yes"/>
      <point x="361.92778955060584" y="1479.2813716193764"/>
      <point x="194.35730882940766" y="1163.107403273538"/>
      <point x="151.76809569070696" y="879.7251593941029" type="curve" smooth="yes"/>
      <point x="103.51998812457363" y="575.7203881034992" type="line" smooth="yes"/>
      <point x="69.37809268112744" y="325.01759089715745"/>
      <point x="141.17649784538685" y="-11.135062003059948"/>
      <point x="450.2842079769398" y="-18.576044101306113" type="curve" smooth="yes"/>
      <point x="534.3521019319982" y="-20.59976487388283"/>
      <point x="618.7628021136527" y="-10.880002742161633"/>
      <point x="702.0065911995395" y="-0.26136811884080585" type="curve"/>
      <point x="712.6688848102857" y="106.87712767093167" type="line"/>
      <point x="628.017319618604" y="92.0464874661999"/>
      <point x="541.1918448496525" y="83.25506133436609"/>
      <point x="455.1370995083613" y="86.16109138994072" type="curve" smooth="yes"/>
      <point x="207.70749580738965" y="94.5166778499582"/>
      <point x="191.4018837455131" y="388.4701598348431"/>
      <point x="215.8116228056585" y="575.0718166187402" type="curve" smooth="yes"/>
      <point x="264.0821409074798" y="882.2812079765384" type="line" smooth="yes"/>
      <point x="299.76640596728373" y="1108.5091572924355"/>
      <point x="416.84136247930854" y="1378.987453546386"/>
      <point x="684.674501807761" y="1376.8168340976792" type="curve" smooth="yes"/>
      <point x="768.0198694357684" y="1376.1413722172467"/>
      <point x="852.1412314676727" y="1366.8542758990484"/>
      <point x="933.5338841100697" y="1349.0632197754246" type="curve"/>
      <point x="946.4332745913698" y="1455.9212046238013" type="line"/>
      <point x="860.7764826809055" y="1467.0565096718587"/>
      <point x="774.3291888524103" y="1477.449932880694"/>
    </contour>
    <contour>
      <point x="1403.6353545016316" y="106.91456396392462" type="line"/>
      <point x="741.1638163006737" y="106.9192588139314" type="line"/>
      <point x="721.9839808015163" y="0.0" type="line"/>
      <point x="1384.4555190024653" y="0.0" type="line"/>
    </contour>
    <contour>
      <point x="1007.8992145100576" y="1455.9318203812982" type="line"/>
      <point x="893.4647118651512" y="1455.9357705856985" type="line"/>
      <point x="640.4268391957272" y="0.0" type="line"/>
      <point x="754.8613418406316" y="0.0" type="line"/>
    </contour>
    <contour>
      <point x="1440.9771904317688" y="803.9146837873387" type="line"/>
      <point x="861.9131967226892" y="803.9193690223909" type="line"/>
      <point x="842.7351587296674" y="697.0850581708605" type="line"/>
      <point x="1421.7991524387553" y="697.0803729358073" type="line"/>
    </contour>
    <contour>
      <point x="1632.5020650773865" y="1455.9144323210376" type="line"/>
      <point x="974.8804654770233" y="1455.9191270520248" type="line"/>
      <point x="955.700626772651" y="1349.0850854623352" type="line"/>
      <point x="1613.3222263730165" y="1349.0803907313493" type="line"/>
    </contour>
  </outline>
</glyph>
<glyph name="Uogonek" format="2">
  <advance width="1133"/>
  <unicode hex="0172"/>
  <anchor x="747.088755897462" y="1606" name="parent_top"/>
  <anchor x="463.7807618901817" y="0" name="bottom"/>
  <anchor x="1286.3420635163639" y="1600" name="top_dd"/>
  <anchor x="939.5684620390216" y="-407" name="bottom_dd"/>
  <anchor x="1287.3787558974618" y="1606" name="top0315"/>
  <anchor x="747.088755897462" y="1606" name="top"/>
  <outline>
    <contour>
      <point x="1024.3870219386615" y="1455.9385183214433" type="line"/>
      <point x="849.9479346670856" y="429.3868549188244" type="line" smooth="yes"/>
      <point x="820.4946825994962" y="223.0925698706385"/>
      <point x="699.3070301196951" y="78.63206208774962"/>
      <point x="480.530311609101" y="85.83868294837673" type="curve" smooth="yes"/>
      <point x="275.67789706537286" y="92.5866298691053"/>
      <point x="214.37406362532707" y="241.4662041964658"/>
      <point x="235.44568365665236" y="428.7139143801265" type="curve"/>
      <point x="409.34673570686687" y="1455.9225945444111" type="line"/>
      <point x="295.9779953311624" y="1455.9321811989557" type="line"/>
      <point x="121.59398690788511" y="429.7344032219574" type="line"/>
      <point x="92.68427044180412" y="176.47589824056095"/>
      <point x="204.1927025359147" y="-16.09716264197631"/>
      <point x="472.4885834915051" y="-22.19466335114985" type="curve" smooth="yes"/>
      <point x="756.8257679436745" y="-28.656731190829014"/>
      <point x="923.834103789352" y="162.48944681307307"/>
      <point x="962.5938021569932" y="431.8228677129953" type="curve" smooth="yes"/>
      <point x="1138.1142003150267" y="1455.953069339159" type="line"/>
    </contour>
    <contour>
      <point x="631.5151437960212" y="79.46187520044018" type="line"/>
      <point x="528.7927744107469" y="14.509812633585234"/>
      <point x="415.5934347896366" y="-81.8983249964223"/>
      <point x="410.306119848392" y="-213.64978041566718" type="curve" smooth="yes"/>
      <point x="406.96227684349117" y="-296.9730148900327"/>
      <point x="443.17651937701766" y="-376.7713356648223"/>
      <point x="536.7070295303998" y="-376.53434901018375" type="curve" smooth="yes"/>
      <point x="580.4095132441138" y="-376.42361610177"/>
      <point x="619.3135069193636" y="-360.6142620708964"/>
      <point x="653.183913029276" y="-334.0340301943522" type="curve"/>
      <point x="648.8074235406082" y="-247.42765237055875" type="line"/>
      <point x="622.2130805473035" y="-262.7950532756486"/>
      <point x="593.0512735370924" y="-279.0710481564394"/>
      <point x="561.1544683127182" y="-278.321409215811" type="curve" smooth="yes"/>
      <point x="516.3453185542511" y="-277.2683042631643"/>
      <point x="506.300784400278" y="-241.03951697247413"/>
      <point x="510.0263784444399" y="-202.2610044540068" type="curve" smooth="yes"/>
      <point x="519.8187311808647" y="-100.33554809094704"/>
      <point x="613.7505021747334" y="-24.58375605783219"/>
      <point x="687.0244813794" y="35.51053633133158" type="curve"/>
    </contour>
  </outline>
</glyph>
<glyph name="Bhook" format="2">
  <advance width="1219"/>
  <unicode hex="0181"/>
  <outline>
    <contour>
      <point x="541.5271489855692" y="1349.8023160516063" type="line"/>
      <point x="560.6414454449933" y="1456.652016105263" type="line"/>
      <point x="464.9757963854365" y="1457.4147550395628" type="line" smooth="yes"/>
      <point x="280.7036383746483" y="1456.663287916494"/>
      <point x="150.57358142213914" y="1356.2374328844319"/>
      <point x="134.00840179842533" y="1167.728459328404" type="curve" smooth="yes"/>
      <point x="130.75857944182366" y="1130.7460244500392"/>
      <point x="133.3343465640745" y="1094.0147111328959"/>
      <point x="138.01810343414405" y="1057.3139626915251" type="curve"/>
      <point x="225.3807551196016" y="1064.223917884116" type="line"/>
      <point x="223.01380877835695" y="1091.4724985357216"/>
      <point x="221.97215099534193" y="1118.6584368336958"/>
      <point x="225.38906052350933" y="1145.9133744585172" type="curve" smooth="yes"/>
      <point x="241.73995985600288" y="1276.3361257029317"/>
      <point x="328.566762721586" y="1349.9487409553822"/>
      <point x="458.6300416215536" y="1350.9894139263483" type="curve" smooth="yes"/>
    </contour>
    <contour>
      <point x="758.5655701582092" y="699.7662192265608" type="line"/>
      <point x="826.506849942357" y="736.7167100094752" type="line"/>
      <point x="1008.9901013815677" y="765.4897479831121"/>
      <point x="1134.6590592996833" y="896.1519006887954"/>
      <point x="1150.6756257738757" y="1081.9161559050874" type="curve" smooth="yes"/>
      <point x="1170.5107931391342" y="1311.9695258726704"/>
      <point x="1049.0849650219304" y="1449.2213325143682"/>
      <point x="819.4990202367818" y="1454.9440811660738" type="curve" smooth="yes"/>
      <point x="469.3818247926266" y="1456.0537698847015" type="line"/>
      <point x="216.53648273598708" y="0.0" type="line"/>
      <point x="329.9931410173612" y="0.0" type="line"/>
      <point x="564.2843867038189" y="1349.0381537546364" type="line"/>
      <point x="816.1890661421365" y="1348.0909062218648" type="line" smooth="yes"/>
      <point x="979.8770250049982" y="1343.2212859573478"/>
      <point x="1053.7146909920427" y="1249.8744840680972"/>
      <point x="1036.8333222188926" y="1087.8013759508608" type="curve" smooth="yes"/>
      <point x="1018.3133381144727" y="909.9963989717913"/>
      <point x="894.6827236964067" y="804.768358712344"/>
      <point x="718.0268113334905" y="803.6933773201938" type="curve" smooth="yes"/>
      <point x="438.3334076829226" y="804.9651632741279" type="line"/>
      <point x="421.46021322050296" y="700.0698272850958" type="line"/>
    </contour>
    <contour>
      <point x="629.6217286188463" y="0.0" type="line" smooth="yes"/>
      <point x="883.1159538622547" y="-2.6635423616858653"/>
      <point x="1053.6107808395461" y="169.53884823338717"/>
      <point x="1074.0654348433593" y="419.26694304040984" type="curve" smooth="yes"/>
      <point x="1086.4901504359186" y="570.9586095369685"/>
      <point x="1026.8004182113696" y="732.4611618166055"/>
      <point x="864.2268321388834" y="765.4022487799575" type="curve"/>
      <point x="849.3612301392906" y="803.7661428597257" type="line"/>
      <point x="558.3549196669012" y="805.0379374729637" type="line"/>
      <point x="537.5353864890911" y="700.2799389489448" type="line"/>
      <point x="757.8586630043611" y="698.6860360529151" type="line" smooth="yes"/>
      <point x="919.0960722575824" y="691.9684087759032"/>
      <point x="977.5012916901201" y="565.9361012000779"/>
      <point x="961.5636402496777" y="417.7991188274469" type="curve" smooth="yes"/>
      <point x="942.0201514215116" y="236.14666703073476"/>
      <point x="820.8964587046706" y="106.57236803073876"/>
      <point x="634.0348886177253" y="105.54914155523369" type="curve" smooth="yes"/>
      <point x="337.1734568477133" y="106.61749857346516" type="line"/>
      <point x="258.5709609507077" y="0.0" type="line"/>
    </contour>
  </outline>
</glyph>
<glyph name="Tonesix" format="2">
  <advance width="1102"/>
  <unicode hex="0184"/>
  <guideline x="0.0" y="1211.0" angle="0.0" identifier="VJ78dDOW8H"/>
  <outline>
    <contour>
      <point x="354.8340815350367" y="1455.3974850224768" type="line"/>
      <point x="302.73250495088007" y="1385.9293233072483"/>
      <point x="251.5119350700708" y="1313.712215638734"/>
      <point x="205.6404390909115" y="1239.9733489312875" type="curve"/>
      <point x="202.9024966255707" y="1220.6578593684742"/>
      <point x="200.15369160424402" y="1201.344005706431"/>
      <point x="197.39419393113297" y="1182.0315837847506" type="curve"/>
      <point x="227.20901667896374" y="1111.678961035341"/>
      <point x="253.51895457328956" y="1039.0672594399532"/>
      <point x="278.90146942828807" y="967.0006220413293" type="curve"/>
      <point x="309.9262319356496" y="967.2098644321603" type="line"/>
      <point x="389.94286404242996" y="1455.768253340865" type="line"/>
    </contour>
    <contour>
      <point x="324.5180431074152" y="826.187920798865" type="line"/>
      <point x="305.27029208395453" y="719.1396791377872" type="line"/>
      <point x="641.9123082287382" y="717.7779619595931" type="line" smooth="yes"/>
      <point x="811.8472298363307" y="711.1431192675395"/>
      <point x="881.2511814887946" y="584.5722930120359"/>
      <point x="863.3481018492496" y="425.47087878772277" type="curve" smooth="yes"/>
      <point x="842.3143702527267" y="238.54792973098472"/>
      <point x="713.952549773114" y="107.02192417886168"/>
      <point x="522.3714409997558" y="105.60114492752261" type="curve" smooth="yes"/>
      <point x="238.1766982892484" y="107.1069475534316" type="line"/>
      <point x="472.4614865951371" y="1455.92647425506" type="line"/>
      <point x="358.03058981391877" y="1455.9308644010277" type="line"/>
      <point x="105.2013960379223" y="0.0" type="line"/>
      <point x="518.0545140127854" y="0.0" type="line" smooth="yes"/>
      <point x="774.3342008388892" y="-3.6811654150807462"/>
      <point x="953.9328107903957" y="168.89379155511256"/>
      <point x="977.3729123197684" y="422.2336927684992" type="curve" smooth="yes"/>
      <point x="998.4672784728831" y="650.2209576996045"/>
      <point x="880.4548480822594" y="817.2142722166567"/>
      <point x="644.5284201066241" y="824.4778178547688" type="curve" smooth="yes"/>
    </contour>
  </outline>
</glyph>
<glyph name="Chook" format="2">
  <advance width="1156"/>
  <unicode hex="0187"/>
  <outline>
    <contour>
      <point x="1084.2254962652144" y="1000.0330963718742" type="line"/>
      <point x="1111.588734165789" y="1177.3573357334778" type="line" smooth="yes"/>
      <point x="1127.1078091718975" y="1287.3904220617067"/>
      <point x="1167.8799588405573" y="1427.0482161414543"/>
      <point x="1304.8922092507469" y="1421.3372678075991" type="curve" smooth="yes"/>
      <point x="1328.2124025806972" y="1420.3652348773746"/>
      <point x="1349.3231614771387" y="1413.623180661896"/>
      <point x="1371.182548875004" y="1406.3037073532303" type="curve"/>
      <point x="1389.1568586082965" y="1506.5297030143809" type="line"/>
      <point x="1356.0852610066859" y="1517.6792375601153"/>
      <point x="1323.6900594742135" y="1526.9082135980443"/>
      <point x="1288.4905684044136" y="1527.7834234911668" type="curve" smooth="yes"/>
      <point x="1091.8886152203522" y="1532.6717888965843"/>
      <point x="1037.2313629555647" y="1335.9357086918228"/>
      <point x="1016.4200684650248" y="1176.5182004895312" type="curve" smooth="yes"/>
      <point x="989.333798533705" y="1000.0837708488468" type="line"/>
    </contour>
    <contour>
      <point x="876.5832772129606" y="452.8646443211212" type="line"/>
      <point x="824.3348570384671" y="238.50337497226633"/>
      <point x="730.4494851059728" y="75.6657644985758"/>
      <point x="486.7545101295766" y="85.58548885529531" type="curve" smooth="yes"/>
      <point x="232.77898417729125" y="95.92368811871285"/>
      <point x="218.85847215508002" y="381.97241647140567"/>
      <point x="244.82418508047857" y="576.1662033226372" type="curve" smooth="yes"/>
      <point x="294.36844324469445" y="891.3147590025831" type="line" smooth="yes"/>
      <point x="329.36927948935187" y="1119.476113295481"/>
      <point x="446.5847849875965" y="1377.7017384342796"/>
      <point x="715.4423158808986" y="1370.0014573972992" type="curve" smooth="yes"/>
      <point x="935.4845486360967" y="1363.6992830576407"/>
      <point x="977.4928963517539" y="1191.3351795679118"/>
      <point x="968.7684907269311" y="999.8176586932345" type="curve"/>
      <point x="1082.6066779734765" y="999.6679612466788" type="line"/>
      <point x="1096.017569555819" y="1254.4445639001024"/>
      <point x="1003.7955507311758" y="1470.1507788499994"/>
      <point x="722.1940629606622" y="1476.4421227868545" type="curve" smooth="yes"/>
      <point x="386.7896666992329" y="1483.9354937612775"/>
      <point x="224.33535948771208" y="1181.0140005716678"/>
      <point x="179.82218723414587" y="888.6230067311599" type="curve" smooth="yes"/>
      <point x="130.26857647738893" y="576.6888836646472" type="line" smooth="yes"/>
      <point x="95.39820593404727" y="315.5213398346404"/>
      <point x="158.9265563743686" y="-12.228227110323132"/>
      <point x="478.96718648340766" y="-21.264318128584726" type="curve" smooth="yes"/>
      <point x="779.8271639136672" y="-29.75885877139535"/>
      <point x="933.8924813990548" y="179.82123442527626"/>
      <point x="985.2862932841954" y="454.14023569462205" type="curve"/>
    </contour>
  </outline>
</glyph>
<glyph name="chook" format="2">
  <advance width="1029"/>
  <unicode hex="0188"/>
  <outline>
    <contour>
      <point x="838.1812580970567" y="717.1416016190499" type="line"/>
      <point x="853.4055298258261" y="819.3764006862901" type="line" smooth="yes"/>
      <point x="868.2022781101997" y="921.8364636658958"/>
      <point x="904.9199537808294" y="1056.3739167512247"/>
      <point x="1033.6381181129916" y="1051.5071457633198" type="curve" smooth="yes"/>
      <point x="1056.107148477968" y="1050.6576026885411"/>
      <point x="1076.3290554699072" y="1043.8094212791968"/>
      <point x="1097.244730478363" y="1036.4636543378972" type="curve"/>
      <point x="1113.2245124719016" y="1126.566061090794" type="line"/>
      <point x="1082.048857749965" y="1136.7862098862029"/>
      <point x="1051.472026323298" y="1145.2368810716214"/>
      <point x="1018.3835620829273" y="1145.9042233443174" type="curve" smooth="yes"/>
      <point x="836.5488841379554" y="1149.571542756703"/>
      <point x="788.879370518159" y="965.3839080328355"/>
      <point x="769.7013597610998" y="818.6636685044404" type="curve" smooth="yes"/>
      <point x="755.0376462232566" y="717.3234489646986" type="line"/>
    </contour>
    <contour>
      <point x="390.40533929807043" y="81.79565870172445" type="curve" smooth="yes"/>
      <point x="171.08473750011564" y="89.57480418789208"/>
      <point x="168.7807496004206" y="308.4887156146516"/>
      <point x="188.83051325715115" y="478.9289979965775" type="curve" smooth="yes"/>
      <point x="204.63025552786502" y="602.3035946054058" type="line" smooth="yes"/>
      <point x="230.48509900564582" y="795.7720515664976"/>
      <point x="310.9417256452211" y="1007.4047972615841"/>
      <point x="541.413958446645" y="998.6735783864077" type="curve" smooth="yes"/>
      <point x="701.6580090054724" y="992.6028866511501"/>
      <point x="740.1882231297866" y="855.4648199110222"/>
      <point x="731.4156838257533" y="716.8402798867735" type="curve"/>
      <point x="836.5865686297875" y="716.5500225774427" type="line"/>
      <point x="849.6088932395699" y="916.1631079937599"/>
      <point x="769.3022670405194" y="1095.3789463532937"/>
      <point x="548.4700233541375" y="1102.0418085594686" type="curve" smooth="yes"/>
      <point x="253.61019957941454" y="1110.938201328715"/>
      <point x="128.58711652380333" y="858.7375427811527"/>
      <point x="93.9441833270986" y="601.7260403098769" type="curve" smooth="yes"/>
      <point x="78.08732309767849" y="479.69992453586656" type="line" smooth="yes"/>
      <point x="50.7685320269982" y="244.2775886005972"/>
      <point x="99.98689720702004" y="-14.977689277360327"/>
      <point x="383.04113790926" y="-21.99199888587463" type="curve" smooth="yes"/>
      <point x="599.6516785408044" y="-27.359780667514247"/>
      <point x="737.4316197010536" y="133.21456089837886"/>
      <point x="771.8693485253439" y="334.50542888544385" type="curve"/>
      <point x="669.0127420474907" y="333.62927707654654" type="line"/>
      <point x="634.1799554119402" y="188.72351777347495"/>
      <point x="551.8864657915392" y="76.06803819564827"/>
    </contour>
  </outline>
</glyph>
<glyph name="Dhook" format="2">
  <advance width="1290"/>
  <unicode hex="018A"/>
  <outline>
    <contour>
      <point x="541.524617286115" y="1349.8211399742122" type="line"/>
      <point x="560.6495307866335" y="1456.6771315037122" type="line"/>
      <point x="464.9980321599227" y="1457.4619659030434" type="line" smooth="yes"/>
      <point x="280.94510838808515" y="1456.7767458694514"/>
      <point x="151.35595310848538" y="1355.8115858315582"/>
      <point x="134.51247699126617" y="1167.847091080051" type="curve" smooth="yes"/>
      <point x="131.1986339455964" y="1130.8663141056159"/>
      <point x="133.7159114583362" y="1094.1217001214281"/>
      <point x="138.34049954078802" y="1057.409504826811" type="curve"/>
      <point x="225.53262011738946" y="1064.2513656285093" type="line"/>
      <point x="223.19709557644964" y="1091.4982479887753"/>
      <point x="222.21003346305778" y="1118.669715433631"/>
      <point x="225.6755056869912" y="1145.9141550815484" type="curve" smooth="yes"/>
      <point x="242.23612343404838" y="1276.1084609616928"/>
      <point x="328.84755324292155" y="1350.0553022576837"/>
      <point x="458.88688853246094" y="1351.0376720702247" type="curve" smooth="yes"/>
    </contour>
    <contour>
      <point x="549.9521903311986" y="0.0" type="line" smooth="yes"/>
      <point x="921.6792189567316" y="-3.5708769943412753"/>
      <point x="1127.1105736618797" y="330.84274184019955"/>
      <point x="1177.6448494639615" y="662.4752052137012" type="curve" smooth="yes"/>
      <point x="1197.102153514427" y="794.2914730261542" type="line" smooth="yes"/>
      <point x="1235.3906630689662" y="1085.2906358557927"/>
      <point x="1144.2300875036567" y="1444.5764989228437"/>
      <point x="794.5247319691654" y="1454.918265648263" type="curve" smooth="yes"/>
      <point x="523.8311165435584" y="1456.0941779227387" type="line"/>
      <point x="504.64061252464387" y="1349.264487028664" type="line"/>
      <point x="791.0316791876634" y="1348.0072090965004" type="line" smooth="yes"/>
      <point x="1077.4951629139823" y="1338.4822721075839"/>
      <point x="1114.6020573081757" y="1021.7874760604763"/>
      <point x="1084.3094393851313" y="796.9844680255051" type="curve" smooth="yes"/>
      <point x="1064.2668975975928" y="661.8349229903419" type="line" smooth="yes"/>
      <point x="1022.1961215209735" y="389.569790733947"/>
      <point x="862.7096320070361" y="105.30727672323265"/>
      <point x="554.0804583186058" y="105.62857768468541" type="curve" smooth="yes"/>
      <point x="296.7940998867527" y="107.04842474458643" type="line"/>
      <point x="275.6354016113855" y="0.0" type="line"/>
    </contour>
    <contour>
      <point x="583.0369049466011" y="1455.929356601575" type="line"/>
      <point x="469.5781666540064" y="1455.9330838360986" type="line"/>
      <point x="216.5397070757278" y="0.0" type="line"/>
      <point x="329.99844536832194" y="0.0" type="line"/>
    </contour>
  </outline>
</glyph>
<glyph name="Dtopbar" format="2">
  <advance width="1056"/>
  <unicode hex="018B"/>
  <outline>
    <contour>
      <point x="789.0164237046139" y="0.0" type="line"/>
      <point x="1041.634214206531" y="1455.9256774391574" type="line"/>
      <point x="321.10203972093905" y="1455.9264203438902" type="line"/>
      <point x="301.9145044415124" y="1349.0793996506272" type="line"/>
      <point x="909.6556027736758" y="1348.9364812638414" type="line"/>
      <point x="818.6405068775026" y="826.0296772249866" type="line"/>
      <point x="520.5941890771138" y="827.1730124944455" type="line" smooth="yes"/>
      <point x="264.1896378380191" y="827.0464922671271"/>
      <point x="84.52439635625532" y="662.2930841310999"/>
      <point x="60.74913401696885" y="406.6830936073595" type="curve" smooth="yes"/>
      <point x="39.35605773090282" y="176.68420027362967"/>
      <point x="156.1791141377978" y="10.045246552713019"/>
      <point x="393.36950431036905" y="0.9007382639773831" type="curve" smooth="yes"/>
    </contour>
    <contour>
      <point x="694.1036142263702" y="106.94698872484842" type="line"/>
      <point x="396.7863101948578" y="108.49938229697496" type="line" smooth="yes"/>
      <point x="224.3171911529026" y="115.9897472502031"/>
      <point x="159.1373647965649" y="250.98608130469106"/>
      <point x="177.56574206804794" y="409.8352024550356" type="curve" smooth="yes"/>
      <point x="199.0178156792394" y="594.7480132679233"/>
      <point x="327.05377626365805" y="719.9501879591963"/>
      <point x="515.4978387256887" y="720.8577136453814" type="curve" smooth="yes"/>
      <point x="800.4785373734798" y="718.8636023755238" type="line"/>
    </contour>
  </outline>
</glyph>
<glyph name="Eturn" format="2">
  <advance width="988"/>
  <unicode hex="018E"/>
  <outline>
    <contour>
      <point x="207.8124530115723" y="1349.0823288600861" type="line"/>
      <point x="870.3210352759268" y="1349.0776202391742" type="line"/>
      <point x="889.4994197743475" y="1455.9156845085295" type="line"/>
      <point x="226.99083750999267" y="1455.9203931294394" type="line"/>
    </contour>
    <contour>
      <point x="603.5604581171547" y="0.0" type="line"/>
      <point x="717.9968541389794" y="0.0" type="line"/>
      <point x="971.0441391310374" y="1455.9424236865843" type="line"/>
      <point x="856.607743109214" y="1455.9473169517903" type="line"/>
    </contour>
    <contour>
      <point x="175.33190900283716" y="680.0817112323886" type="line"/>
      <point x="754.4137116094975" y="680.0770212293538" type="line"/>
      <point x="773.4158045340176" y="785.917250478273" type="line"/>
      <point x="194.3340019273569" y="785.9219404813069" type="line"/>
    </contour>
    <contour>
      <point x="-21.05404265659898" y="0.0" type="line"/>
      <point x="636.6043288440877" y="0.0" type="line"/>
      <point x="655.7827167297219" y="106.91674002247807" type="line"/>
      <point x="-1.875654770966733" y="106.9214490843899" type="line"/>
    </contour>
  </outline>
</glyph>
<glyph name="Fhook" format="2">
  <advance width="1004"/>
  <unicode hex="0191"/>
  <outline>
    <contour>
      <point x="262.3389968252817" y="981.9345395430985" type="line"/>
      <point x="80.86200865106908" y="-89.52793766308986" type="line" smooth="yes"/>
      <point x="66.8358501275919" y="-192.897096455351"/>
      <point x="27.278681251045356" y="-333.7918775794719"/>
      <point x="-102.16586624036961" y="-331.1949408621148" type="curve" smooth="yes"/>
      <point x="-131.18830662539946" y="-330.6126881328664"/>
      <point x="-158.67091543859254" y="-322.36868777140637"/>
      <point x="-185.48978633134644" y="-312.13811926537403" type="curve"/>
      <point x="-210.13532975244942" y="-418.0050949672409" type="line"/>
      <point x="-177.67111323054692" y="-429.38056173240636"/>
      <point x="-146.74937622379895" y="-438.34915322193433"/>
      <point x="-112.06765690121497" y="-439.2288123635398" type="curve" smooth="yes"/>
      <point x="88.82092536549641" y="-444.3241040989759"/>
      <point x="171.17063853355938" y="-260.48078401680846"/>
      <point x="194.6223074312707" y="-88.7579806187226" type="curve" smooth="yes"/>
      <point x="376.78535967986153" y="981.9318282456253" type="line"/>
    </contour>
    <contour>
      <point x="458.8790729425649" y="1455.9299388702511" type="line"/>
      <point x="344.44818255899753" y="1455.9336451114552" type="line"/>
      <point x="91.40720949507643" y="0.0" type="line"/>
      <point x="205.83809987864345" y="0.0" type="line"/>
    </contour>
    <contour>
      <point x="885.132624454085" y="786.9138773903611" type="line"/>
      <point x="307.04484994206194" y="786.9186159951366" type="line"/>
      <point x="287.6861118108061" y="679.0852663291621" type="line"/>
      <point x="865.7738863228261" y="679.0805277243873" type="line"/>
    </contour>
    <contour>
      <point x="1082.5138984648459" y="1455.9126087134778" type="line"/>
      <point x="422.94584189330567" y="1455.9172012707559" type="line"/>
      <point x="403.76916521008667" y="1349.0857529053308" type="line"/>
      <point x="1063.337221781628" y="1349.0811603480454" type="line"/>
    </contour>
  </outline>
</glyph>
<glyph name="florin" format="2">
  <advance width="590"/>
  <unicode hex="0192"/>
  <outline>
    <contour>
      <point x="587.2354290024126" y="1081.8975485913293" type="line"/>
      <point x="393.87379395719495" y="1082.1534346883814" type="line"/>
      <point x="411.7961459032439" y="1216.4206402914524" type="line" smooth="yes"/>
      <point x="427.21145305597634" y="1330.452874115068"/>
      <point x="478.22297147351225" y="1453.1348526149532"/>
      <point x="611.3922758993766" y="1453.1805847071203" type="curve" smooth="yes"/>
      <point x="641.9528790067677" y="1453.191079620524"/>
      <point x="670.8850641708319" y="1447.7258004179055"/>
      <point x="700.034377796483" y="1439.2290857639962" type="curve"/>
      <point x="724.3070719421936" y="1538.0898069136679" type="line"/>
      <point x="685.3156218907106" y="1549.8894054244743"/>
      <point x="646.5545844579981" y="1558.745537050696"/>
      <point x="605.5816620348915" y="1559.309381996594" type="curve" smooth="yes"/>
      <point x="406.85659471084955" y="1562.0441179687277"/>
      <point x="322.017066835673" y="1389.997952138559"/>
      <point x="300.8474966221614" y="1216.1241143659925" type="curve" smooth="yes"/>
      <point x="283.5877352447935" y="1082.2405468889692" type="line"/>
      <point x="139.04220221573837" y="1081.8687709222" type="line"/>
      <point x="123.38076450750637" y="982.0307167744825" type="line"/>
      <point x="268.0137581510922" y="981.9263862732057" type="line"/>
      <point x="104.10573451558065" y="-89.3897736249364" type="line" smooth="yes"/>
      <point x="90.6966283826555" y="-190.99477132002932"/>
      <point x="50.05073946169168" y="-338.2591369550649"/>
      <point x="-78.17371458264498" y="-336.3285298953967" type="curve" smooth="yes"/>
      <point x="-106.5869315477203" y="-335.90072727639165"/>
      <point x="-134.38824774695533" y="-328.222838153449"/>
      <point x="-160.98881058096623" y="-319.0625861612216" type="curve"/>
      <point x="-182.41632804756114" y="-418.2500593007036" type="line"/>
      <point x="-150.14601539249674" y="-429.7864699353371"/>
      <point x="-119.42237589862472" y="-438.6326501448297"/>
      <point x="-84.86824661104174" y="-439.5323471294687" type="curve" smooth="yes"/>
      <point x="116.12026216730189" y="-444.7655496156313"/>
      <point x="194.49900806376525" y="-260.40360755326407"/>
      <point x="215.03671856433994" y="-89.01310890880939" type="curve" smooth="yes"/>
      <point x="378.58090153542236" y="981.9324050987697" type="line"/>
      <point x="571.3756784099265" y="982.0366615778531" type="line"/>
    </contour>
  </outline>
</glyph>
<glyph name="Gamma1" format="2">
  <advance width="1066"/>
  <unicode hex="0194"/>
  <outline>
    <contour>
      <point x="186.42322830022374" y="1457.0025913951843" type="curve"/>
      <point x="436.3629297882693" y="80.05011001112385" type="line" smooth="yes"/>
      <point x="454.3439050194347" y="-3.000896515468227"/>
      <point x="486.6742376958176" y="-96.1693839518576"/>
      <point x="475.4880848173143" y="-182.53277113985155" type="curve" smooth="yes"/>
      <point x="470.0974860100317" y="-224.1512236163187"/>
      <point x="450.6625175840245" y="-279.7705387254915"/>
      <point x="399.82523924422605" y="-279.8119578658734" type="curve" smooth="yes"/>
      <point x="352.8707980479313" y="-279.8502135053367"/>
      <point x="353.2366037426269" y="-227.13955371747682"/>
      <point x="356.53169940726394" y="-193.0725257745956" type="curve" smooth="yes"/>
      <point x="365.640787124596" y="-98.89633868210534"/>
      <point x="419.4479862314508" y="-4.889517516802584"/>
      <point x="459.4068483220734" y="78.65266339607368" type="curve" smooth="yes"/>
      <point x="1171.7353162831027" y="1455.645323813205" type="line"/>
      <point x="1129.7703801544244" y="1455.7862108662634"/>
      <point x="1087.7876415407404" y="1455.885239455238"/>
      <point x="1045.8266350033982" y="1455.2509051042396" type="curve"/>
      <point x="400.34414976827094" y="186.93072730930834" type="line" smooth="yes"/>
      <point x="341.4895205235518" y="72.14742819179928"/>
      <point x="247.54942029945767" y="-59.707651363473786"/>
      <point x="238.35517029394725" y="-192.53020125939682" type="curve" smooth="yes"/>
      <point x="231.37943572489417" y="-293.30349460072057"/>
      <point x="272.72413588407494" y="-385.61256090302686"/>
      <point x="385.4776712457939" y="-385.5772016671698" type="curve" smooth="yes"/>
      <point x="503.505864065083" y="-385.5401883114972"/>
      <point x="565.0242644242776" y="-287.115916160352"/>
      <point x="574.0253167474157" y="-179.12609675636372" type="curve" smooth="yes"/>
      <point x="584.1317728808367" y="-57.87423269854348"/>
      <point x="534.6761594281018" y="68.86071791846692"/>
      <point x="514.022598484557" y="186.72346691221475" type="curve" smooth="yes"/>
      <point x="309.2689052879902" y="1456.586322284897" type="line"/>
      <point x="268.33061521396104" y="1456.4076803191851"/>
      <point x="227.35526929984832" y="1456.2193918855344"/>
    </contour>
  </outline>
</glyph>
<glyph name="Khook" format="2">
  <advance width="1090"/>
  <unicode hex="0198"/>
  <outline>
    <contour>
      <point x="428.80762999064393" y="1455.927379449119" type="line"/>
      <point x="315.3475203623274" y="1455.931037977164" type="line"/>
      <point x="62.308272403576424" y="0.0" type="line"/>
      <point x="175.76838203189334" y="0.0" type="line"/>
    </contour>
    <contour>
      <point x="812.6204818818625" y="0.0" type="line"/>
      <point x="941.0068276263103" y="0.0" type="line"/>
      <point x="530.6618474961906" y="849.4735621210718" type="line"/>
      <point x="449.63120228244554" y="752.3351175749327" type="line"/>
    </contour>
    <contour>
      <point x="798.4997128074983" y="1285.8045155875939" type="curve" smooth="yes"/>
      <point x="482.8494585601634" y="887.0116720009652" type="line"/>
      <point x="219.46805818252358" y="563.2455009984998" type="line"/>
      <point x="204.08605680778913" y="399.40972967975875" type="line"/>
      <point x="536.512807289464" y="786.0268066652159" type="line"/>
      <point x="892.0198731550813" y="1229.9341146716822" type="line" smooth="yes"/>
      <point x="931.9859046889136" y="1281.6782539841072"/>
      <point x="980.2176924635273" y="1360.9921207237737"/>
      <point x="1054.759981108471" y="1360.8185328189388" type="curve" smooth="yes"/>
      <point x="1102.5150786543988" y="1360.7073247050093"/>
      <point x="1132.9347471112417" y="1328.540192313441"/>
      <point x="1159.0918201289144" y="1292.900233626997" type="curve"/>
      <point x="1214.9413839864617" y="1376.6691113733546" type="line"/>
      <point x="1173.3194103818223" y="1428.2803505374536"/>
      <point x="1121.2058311079095" y="1473.8934741248397"/>
      <point x="1051.4123176659914" y="1476.5023002197793" type="curve" smooth="yes"/>
      <point x="933.7843404173346" y="1480.899140576536"/>
      <point x="861.042581595455" y="1368.5636587051483"/>
    </contour>
  </outline>
</glyph>
<glyph name="khook" format="2">
  <advance width="862"/>
  <unicode hex="0199"/>
  <guideline x="0.0" y="1557.0" angle="0.0" identifier="W784VVgTpp"/>
  <outline>
    <contour>
      <point x="354.97242246720253" y="1180.9307935716229" type="line"/>
      <point x="244.42313366599734" y="1180.9344566216585" type="line"/>
      <point x="39.02686225831262" y="0.0" type="line"/>
      <point x="149.5761510595205" y="0.0" type="line"/>
    </contour>
    <contour>
      <point x="892.2232536025851" y="1081.5922170582346" type="line"/>
      <point x="745.643707688982" y="1081.6078969626312" type="line"/>
      <point x="352.8902237533621" y="680.4154487581065" type="line"/>
      <point x="179.77717479419437" y="496.1564387172779" type="line"/>
      <point x="171.09570312248337" y="363.8937405350713" type="line"/>
      <point x="397.1388677684995" y="578.4122926382454" type="line"/>
    </contour>
    <contour>
      <point x="607.4863306667743" y="0.0" type="line"/>
      <point x="729.6219196008171" y="0.0" type="line"/>
      <point x="416.8095073320011" y="667.3715541799749" type="line"/>
      <point x="342.942474489318" y="567.7498046742922" type="line"/>
    </contour>
    <contour>
      <point x="344.60070729597965" y="1131.114055206926" type="line"/>
      <point x="359.7555720746194" y="1233.3885149412422" type="line" smooth="yes"/>
      <point x="374.46153255932325" y="1334.8568361276743"/>
      <point x="411.1966580014554" y="1470.832262404264"/>
      <point x="539.4486947421358" y="1465.3725218572858" type="curve" smooth="yes"/>
      <point x="561.7332541665762" y="1464.4238592414463"/>
      <point x="582.5296941499957" y="1457.3318036939645"/>
      <point x="603.4115202607794" y="1450.3452803581379" type="curve"/>
      <point x="619.2463182619271" y="1539.5577322814354" type="line"/>
      <point x="588.306746763671" y="1550.0183632195926"/>
      <point x="557.8457006430149" y="1559.0817782170445"/>
      <point x="524.8856979770345" y="1559.9207884964333" type="curve" smooth="yes"/>
      <point x="340.8088340495204" y="1564.6065399691486"/>
      <point x="269.0061561187064" y="1387.402162566315"/>
      <point x="248.55511186817552" y="1232.6302520811337" type="curve" smooth="yes"/>
      <point x="234.27003103775706" y="1131.3763385276352" type="line"/>
    </contour>
  </outline>
</glyph>
<glyph name="lambdabar" format="2">
  <advance width="958"/>
  <unicode hex="019B"/>
  <anchor x="978.9854482785602" y="1612" name="top0315"/>
  <outline>
    <contour>
      <point x="726.1650807853555" y="1401.6418492407558" type="line"/>
      <point x="298.42841216538545" y="1214.0244344386936" type="line"/>
      <point x="277.03986279734585" y="1095.3583408297902" type="line"/>
      <point x="704.7765314173148" y="1282.9757556318498" type="line"/>
    </contour>
    <contour>
      <point x="509.4762989205624" y="897.6484480154047" type="line"/>
      <point x="574.9344706273025" y="1078.4986249066103" type="line"/>
      <point x="494.9102678969938" y="1100.8099590259078" type="line"/>
      <point x="-49.62007774753155" y="0.0" type="line"/>
      <point x="76.94339941286405" y="0.0" type="line"/>
    </contour>
    <contour>
      <point x="375.458399837803" y="1516.2990326626348" type="curve" smooth="yes"/>
      <point x="354.61393548885206" y="1516.236831894104"/>
      <point x="334.7537573922252" y="1511.3295762200753"/>
      <point x="314.73862317058774" y="1506.269936046568" type="curve"/>
      <point x="309.3465804741414" y="1408.319779727798" type="line"/>
      <point x="321.44399673965523" y="1409.6080128003002"/>
      <point x="333.98696454516664" y="1411.6330638493416"/>
      <point x="346.1962542267558" y="1410.9408619985509" type="curve" smooth="yes"/>
      <point x="419.20752137397596" y="1406.801511097238"/>
      <point x="428.94706051345906" y="1315.1261000613965"/>
      <point x="439.28120574190007" y="1258.984300819886" type="curve" smooth="yes"/>
      <point x="482.451437060168" y="987.8417547978486" type="line"/>
      <point x="592.208292847736" y="198.9571599943453" type="line"/>
      <point x="609.6953501500786" y="110.13845354065211"/>
      <point x="640.3930468985437" y="-11.43190270516042"/>
      <point x="752.7975924277449" y="-9.97994128518695" type="curve" smooth="yes"/>
      <point x="770.7282557670376" y="-9.748325817319397"/>
      <point x="787.6745195586559" y="-5.3130412853024716"/>
      <point x="804.7002590019994" y="-0.3537976555311425" type="curve"/>
      <point x="809.6868418311014" y="103.26666011024025" type="line"/>
      <point x="798.4619305043328" y="101.43850925870248"/>
      <point x="786.634757947868" y="98.54897700002667"/>
      <point x="775.1541324720796" y="99.4712824572652" type="curve" smooth="yes"/>
      <point x="714.5797452829684" y="104.33757549950565"/>
      <point x="708.8064854493082" y="190.37539108087338"/>
      <point x="700.8926917312534" y="235.64530367172128" type="curve" smooth="yes"/>
      <point x="549.5630208465008" y="1302.3556818268855" type="line" smooth="yes"/>
      <point x="533.0600938150664" y="1399.2985242325383"/>
      <point x="493.55019247878874" y="1516.651423596577"/>
    </contour>
  </outline>
</glyph>
<glyph name="OI" format="2">
  <advance width="1412"/>
  <unicode hex="01A2"/>
  <outline>
    <contour>
      <point x="1050.6832414158418" y="797.8446143862548" type="line"/>
      <point x="942.7221256634309" y="797.9035343334169" type="line"/>
      <point x="839.9851768153618" y="213.5752954188717" type="line"/>
      <point x="758.156750762695" y="122.57524630651267"/>
      <point x="638.1625825046721" y="84.23237825600353"/>
      <point x="517.5249884285702" y="86.84990080627331" type="curve" smooth="yes"/>
      <point x="235.54034425220203" y="92.96823539852178"/>
      <point x="217.54712994636054" y="436.1721394936888"/>
      <point x="246.52375301644622" y="645.2426199828574" type="curve" smooth="yes"/>
      <point x="269.44747177662055" y="787.097308043754" type="line"/>
      <point x="156.52094294530576" y="785.0884258611514" type="line"/>
      <point x="133.83318316664787" y="645.7465476762393" type="line" smooth="yes"/>
      <point x="95.214204012776" y="369.9235048781304"/>
      <point x="159.522445260374" y="-13.90874114961927"/>
      <point x="508.13937037388405" y="-20.916466979345245" type="curve" smooth="yes"/>
      <point x="673.858281743483" y="-24.24766696425901"/>
      <point x="854.8385636732195" y="32.791865312931805"/>
      <point x="951.3017450811897" y="175.77852380384454" type="curve"/>
    </contour>
    <contour>
      <point x="1132.0617684576905" y="1280.4806910188067" type="line"/>
      <point x="1056.0654137158238" y="1420.9493068736424"/>
      <point x="896.5701949291321" y="1472.259914773289"/>
      <point x="744.9834293900311" y="1475.5801333606234" type="curve" smooth="yes"/>
      <point x="383.16031130327025" y="1483.505177725325"/>
      <point x="206.37564905944984" y="1115.3932674462078"/>
      <point x="158.66768040525363" y="808.4266748542946" type="curve" smooth="yes"/>
      <point x="136.63829344521662" y="675.2184111989271" type="line"/>
      <point x="248.80876604476225" y="673.1890556294123" type="line"/>
      <point x="271.30197705152244" y="809.1950392158134" type="line" smooth="yes"/>
      <point x="310.67989859007" y="1054.4454531608253"/>
      <point x="444.2315892046016" y="1377.3268607562597"/>
      <point x="740.846388583691" y="1371.2174962126685" type="curve" smooth="yes"/>
      <point x="843.9193676437823" y="1369.0945057044732"/>
      <point x="966.3181774595396" y="1341.1497311668982"/>
      <point x="1019.6269609361384" y="1243.3385098979284" type="curve"/>
      <point x="915.7234249582126" y="648.0847043059575" type="line"/>
      <point x="1025.2267453385405" y="648.0637360374034" type="line"/>
    </contour>
    <contour>
      <point x="1393.9302806219068" y="1455.912398071377" type="line"/>
      <point x="1299.1167375308978" y="1455.5010506799085" type="line"/>
      <point x="1088.8655503365437" y="1332.0990366391668" type="line"/>
      <point x="1066.7147862486042" y="1209.2000522484652" type="line"/>
      <point x="1260.3554646000277" y="1321.8648414454103" type="line"/>
      <point x="958.2960724643297" y="-415.92880731900897" type="line"/>
      <point x="1068.8425922280312" y="-415.93274939762205" type="line"/>
    </contour>
  </outline>
</glyph>
<glyph name="oi" format="2">
  <advance width="1092"/>
  <unicode hex="01A3"/>
  <guideline x="924.0" y="0.0" angle="90.0" identifier="3dif7g8A05"/>
  <outline>
    <contour>
      <point x="386.67325067861077" y="84.16097793174072" type="curve" smooth="yes"/>
      <point x="173.84338441673273" y="89.4551514302621"/>
      <point x="177.14157392261095" y="367.32052153653626"/>
      <point x="193.82236437317619" y="518.2782200476328" type="curve" smooth="yes"/>
      <point x="198.8424920829346" y="559.9495256396375" type="line" smooth="yes"/>
      <point x="222.99821272162595" y="747.3836089295688"/>
      <point x="313.77252052642814" y="1007.3906592472581"/>
      <point x="544.730582457834" y="999.9014621807606" type="curve" smooth="yes"/>
      <point x="603.3132344012382" y="998.0018228202066"/>
      <point x="652.5066482646981" y="973.4315154499184"/>
      <point x="690.2184835908719" y="929.3196437283175" type="curve"/>
      <point x="615.9377914179696" y="502.08484372443667" type="line"/>
      <point x="726.4351429814592" y="502.0535633643776" type="line"/>
      <point x="803.3030813900945" y="964.9446526939928" type="line"/>
      <point x="744.0119824015321" y="1051.5013496849117"/>
      <point x="655.0704988214194" y="1099.261189939683"/>
      <point x="549.7114994407018" y="1102.0773442106154" type="curve" smooth="yes"/>
      <point x="256.3372052689566" y="1109.9189835235336"/>
      <point x="120.75579004675495" y="809.0857477618316"/>
      <point x="89.74245980378505" y="560.3643377105833" type="curve" smooth="yes"/>
      <point x="84.66532100814219" y="516.934564437983" type="line" smooth="yes"/>
      <point x="60.808406998491265" y="296.8156047494349"/>
      <point x="99.68252583850403" y="-14.601621244632046"/>
      <point x="381.7612975163458" y="-20.902060129683633" type="curve" smooth="yes"/>
      <point x="493.9590419085204" y="-23.40808008779261"/>
      <point x="592.2264501621551" y="31.343581770812932"/>
      <point x="665.3669590426679" y="113.2477223049956" type="curve"/>
      <point x="735.0155269907383" y="550.8825441331063" type="line"/>
      <point x="625.2577172271284" y="550.9167373652703" type="line"/>
      <point x="553.7502117008698" y="145.9698294997849" type="line"/>
      <point x="504.2652697192965" y="109.290379033688"/>
      <point x="449.78012439651883" y="82.59118538203911"/>
    </contour>
    <contour>
      <point x="1031.3620315347505" y="1081.9090293169163" type="line"/>
      <point x="935.6718798792069" y="1081.4965545860052" type="line"/>
      <point x="749.8376092877861" y="965.2392117851136" type="line"/>
      <point x="721.0709334553414" y="804.4821295477232" type="line"/>
      <point x="892.5170785400472" y="917.126223556154" type="line"/>
      <point x="660.5078217355588" y="-415.9296923024825" type="line"/>
      <point x="771.0507779813468" y="-415.9335451926949" type="line"/>
    </contour>
  </outline>
</glyph>
